<svg preserveAspectRatio="xMidYMid slice" viewBox="0 0 1920 1080" fill="none" xmlns="http://www.w3.org/2000/svg"><g clip-path="url(#a)" fill="#444"><path d="M748.985 11.483c-15.029 18.055-19.016 39.392-11.655 61.386 3.987 11.49 3.681 12.146-4.907 19.04-4.601 3.61-11.962 12.802-16.256 19.696-4.294 7.222-9.508 13.13-11.655 13.13-2.147 0-9.508-5.58-16.255-12.146-19.63-20.024-26.071-23.963-41.713-23.963-11.962 0-16.562 1.97-25.457 10.176-6.441 6.237-11.961 15.1-13.802 22.979-1.84 7.222-6.747 18.383-10.734 24.948-4.294 6.566-7.668 16.085-7.668 21.338 0 21.337 16.562 38.735 36.191 38.735 5.521 0 9.815 1.97 11.042 4.924.92 2.955 6.748 7.55 12.882 10.176 9.201 4.268 13.802 4.268 26.99.985 8.588-1.969 18.709-4.924 22.39-6.565 4.294-1.641 10.121-1.641 14.722.328 11.962 4.924 28.831-3.611 30.978-15.428 1.533-8.535 2.76-9.192 13.802-8.207 6.44.656 16.255-.328 21.162-2.298 8.895-3.283 10.429-2.626 20.55 8.207 6.134 6.565 15.642 13.787 21.163 16.413 22.39 9.848 58.581 2.626 72.997-14.772 3.374-3.611 9.201-6.894 13.188-6.894s12.269-2.297 18.403-4.924c5.827-2.626 16.869-4.924 24.23-4.924 17.176 0 25.763-3.61 37.418-16.413 24.839-26.261 17.479-70.577-14.108-87.647l-13.496-7.222-.306-22.65c-.614-18.384-2.147-24.949-9.201-36.11-7.362-12.146-9.815-13.787-19.937-13.787h-11.348l10.122 8.535c22.696 19.367 28.83 55.149 14.108 83.051l-7.668 15.101 9.202-11.49c5.214-6.237 9.508-12.474 9.508-13.787 0-5.58 12.268-2.298 21.163 5.58 13.188 12.147 19.936 33.156 15.949 49.897-5.828 23.635-24.23 40.377-43.553 40.377-5.521 0-5.828-.985-2.761-4.924 5.215-6.894 8.895-26.59 5.828-31.514-1.84-3.282-2.76-1.313-2.76 5.909 0 22.979-33.738 45.629-57.048 37.751-8.588-2.626-10.122-2.626-7.668.657 2.454 2.954 1.533 5.908-3.681 11.161-25.456 25.604-72.076 14.772-90.479-20.681-3.374-6.566-3.374-6.566-3.68.656 0 8.207-7.668 10.505-25.764 7.222-38.952-7.222-53.367-61.058-23.616-89.617 6.134-5.909 6.44-5.909 17.175 2.626 12.269 10.177 14.416 6.894 3.067-4.595-9.814-9.848-14.722-29.545-12.268-46.614 2.454-15.1 16.869-34.469 30.671-40.706l9.201-4.267-12.575-.328c-11.041 0-14.415 1.641-22.083 11.49Zm-78.211 89.945c5.214 3.611 10.428 9.192 11.348 12.803 1.227 3.611 4.601 7.222 7.975 8.206 3.067.985 8.588 6.566 12.268 12.475 6.134 10.504 6.441 10.832 4.294 1.969-.92-4.924-.613-8.863 1.227-8.863 1.534 0 3.68 7.222 4.294 16.413 1.533 17.399 13.188 37.423 23.923 41.034 8.588 2.954 7.668 13.131-1.84 21.009-9.201 7.55-19.936 8.863-29.444 3.283-4.601-2.627-5.828-2.627-4.294 0 1.227 1.969.307 3.939-1.84 3.939-2.147.328-7.361.985-11.655 1.641-33.738 5.252-32.205 5.581-42.019-3.283-5.214-4.595-11.655-8.534-14.416-8.534-17.482 0-35.578-18.383-35.578-36.11 0-10.833 8.588-25.605 17.789-30.857 5.828-3.611 6.748-4.924 3.067-5.252-10.428 0 3.987-26.918 17.483-33.155 10.734-4.596 27.297-3.283 37.418 3.282Z"/><path d="M631.82 181.205c-.307 11.818 6.748 22.322 15.029 22.322l7.975-.328-7.668-4.596c-4.294-2.298-9.202-8.535-11.349-13.787-2.147-5.58-3.68-6.894-3.987-3.611ZM818.913 6.895c5.828 3.611 14.109 10.505 18.096 15.429 3.987 4.924 6.134 7.221 5.214 5.252-.92-2.298 3.68-9.192 10.428-15.757C862.466 2.628 863.693.001 859.092.001c-3.374 0-8.895 4.596-12.882 10.177l-6.441 10.176-9.814-10.176C824.434 4.598 817.38 0 814.313 0c-4.601 0-3.374 1.97 4.6 6.894ZM1836.27 9.19c-11.04 12.146-11.35 30.53-.92 41.69 6.13 6.237 7.05 10.176 5.83 21.994-2.77 29.872 22.39 49.568 47.23 36.766 6.44-3.611 13.8-10.505 16.25-16.085 3.07-6.565 6.45-9.52 10.13-8.863 8.28 1.641 6.13-4.924-2.46-7.222-4.29-1.313-10.43-6.894-13.8-12.803-3.37-5.58-6.13-9.191-6.13-7.55 0 1.642 2.76 7.879 6.44 13.788 4.9 8.534 5.52 12.474 2.76 17.398-9.2 18.711-31.9 22.322-46.32 7.222-11.96-12.803-11.96-28.56-.3-43.66l8.28-10.833-8.59 5.909c-8.28 5.909-9.2 5.909-14.72.328-11.66-11.49-6.75-30.857 11.35-43.003 5.52-3.61 5.52-3.939-.62-3.939-3.37-.328-9.81 3.94-14.41 8.863ZM1282.35 8.534c-5.83 2.627-12.57 6.566-15.03 8.864-2.76 2.297-11.35 3.61-22.39 2.954-19.63-1.313-30.67 3.611-40.79 18.055-13.8 20.024-7.67 54.82 12.57 67.295 6.14 3.939 10.13 9.191 10.13 13.13 0 17.07 19.63 35.453 38.33 35.453 8.9 0 23.01-6.893 28.53-14.115 3.37-4.268 5.21-3.94 15.33 1.641 23.93 13.459 52.14.328 59.2-27.574 1.53-6.894 6.13-16.086 10.43-20.353 26.99-29.216 4.29-78.784-33.74-72.875-10.43 1.313-14.11.328-18.4-4.596-4.91-5.909-22.7-13.13-30.67-13.13-1.54.327-7.67 2.297-13.5 5.251Zm36.81 9.52c4.9 2.955 11.96 9.848 15.33 15.757 5.83 10.176 6.14 10.176 3.99 1.313-1.84-8.535-1.54-8.863 11.96-8.863 30.67 0 46.31 35.781 26.68 62.37-5.21 6.894-6.44 7.55-9.2 3.283-2.14-3.61-3.06-1.313-3.06 9.192 0 12.146-1.85 16.413-10.43 25.605-8.28 8.863-12.88 11.161-23.01 11.161-13.49 0-27.91-5.581-27.91-10.833 0-1.97-3.98.328-8.58 5.252-17.18 17.727-39.57 17.07-53.99-1.313-9.5-11.817-10.73-31.185-3.06-44.973l4.9-8.863-7.97 9.192c-4.29 4.924-7.97 11.49-7.97 14.115 0 7.222-4.91 5.581-13.19-5.252-14.72-18.711-14.42-42.347 1.22-59.088 10.74-11.161 27.61-15.757 40.49-10.505 7.67 3.283 10.43 2.626 19.94-4.267 13.18-9.52 30.05-10.833 43.86-3.283ZM59.196 15.426c-9.508 1.97-25.457 18.71-25.764 26.917-1.227 21.995-.306 27.903 6.441 35.782 4.908 5.58 5.52 8.535 3.067 13.459-1.533 3.61-3.067 13.13-3.067 21.009 0 31.185 26.377 52.523 55.208 44.316 7.361-2.298 7.668-1.641 8.281 15.1 0 9.52 2.454 21.994 5.214 27.903 5.214 10.176 24.843 27.903 35.885 31.514 3.374 1.313 5.827 5.252 5.827 9.191 0 9.52 10.429 27.246 18.71 32.17 8.588 4.924 29.751 4.924 34.044.329 2.147-2.298 6.441-1.313 14.416 4.267 32.204 22.979 75.45 13.459 95.386-20.681 6.748-11.489 8.895-12.802 16.869-11.489 24.23 4.267 52.448-14.444 61.649-40.049 13.188-37.422-10.428-80.754-46.927-85.678l-11.655-1.641 11.349 4.596c18.709 7.55 25.763 14.115 32.818 29.544 12.268 26.918 6.441 53.507-15.643 72.219-15.642 13.459-36.191 15.428-53.98 5.909-12.882-6.894-18.403-3.94-6.748 3.61 7.668 5.253 7.668 9.52-.307 20.353-15.335 20.681-49.073 28.559-73.303 16.742-9.202-4.596-11.962-7.55-10.428-11.161 6.134-15.757 4.907-17.727-3.988-6.894-8.281 10.176-11.348 11.489-23.923 11.489-12.268 0-15.642-1.641-23.31-10.832-6.134-7.551-8.894-14.116-8.894-22.323 0-6.893-1.227-10.832-3.067-9.519-1.841 1.313-8.282-1.313-14.109-5.253-15.336-9.848-27.297-37.75-24.537-56.133 3.374-22.651 5.828-25.605 19.936-21.666 10.428 2.954 14.109 2.298 22.39-2.955 5.521-3.282 12.268-10.832 14.722-16.741 2.454-5.581 6.134-10.505 8.281-10.505 7.361 0 19.323 7.879 19.63 12.803 0 2.954 1.84-2.298 3.987-11.49 4.907-21.337 14.722-35.78 29.137-43.66 26.071-14.443 50.607-11.489 71.157 8.536 18.709 18.055 25.457 51.538 14.415 73.86-1.533 3.611-1.533 5.909 0 5.909 4.907 0 10.735-19.368 11.042-37.094.306-43.988-38.339-75.502-81.892-66.639-15.642 3.283-37.725 25.605-44.166 44.316-5.214 15.757-5.214 15.757-15.029 12.475-7.054-2.298-11.041-6.238-13.495-13.131-1.533-5.58-5.521-12.803-8.281-16.085-3.067-3.94-5.214-12.146-5.214-22.322-.613-29.873-25.764-46.943-50.3-33.812-11.349 5.909-12.269 5.909-19.323.328-7.974-6.237-22.083-9.52-32.511-6.893Zm28.524 9.52c5.827 2.954 10.428 6.565 10.428 8.206 0 1.313 4.907-.328 11.041-4.267 9.508-5.91 12.269-6.238 23.004-2.955 15.335 4.924 25.15 20.025 23.003 35.125-.92 8.206.307 12.146 6.134 18.054 5.521 5.581 7.361 10.833 7.361 21.01 0 16.741-6.441 26.918-19.936 30.857-14.109 3.939-23.003 1.313-23.003-7.55 0-5.253-1.227-4.596-5.521 4.267C114.097 139.839 97.841 151 86.493 151c-32.818 0-52.754-42.675-31.898-69.593l8.281-10.832-8.28 5.908c-7.975 5.253-8.589 5.253-11.962-1.313-8.588-17.726-1.227-41.69 15.948-51.21 9.815-5.58 16.563-5.252 29.138.985ZM1662.36 20.684c-42.02 12.474-66.55 55.149-54.28 92.571 4.29 12.475 3.98 13.459-2.46 18.712-6.75 5.252-7.97 5.58-18.71.656-15.64-6.893-42.02-6.893-61.65 0-19.63 6.894-41.4 29.544-48.76 49.897-11.35 31.842 1.84 71.562 30.05 91.258 7.98 5.581 14.42 10.833 14.42 11.818.31.985-3.68 4.267-8.89 7.222-4.91 2.954-12.89 11.161-17.49 18.383-7.97 11.817-10.12 13.13-26.07 15.1-23.92 2.626-42.94 12.802-58.89 31.514-53.98 64.668-5.52 172.012 73.62 163.149 8.58-.985 20.24-4.268 25.76-7.222l9.51-5.252 13.8 13.458c49.99 49.241 140.78 46.286 185.25-5.58 8.59-9.848 15.34-19.368 15.34-21.009 0-1.97 2.76-1.642 6.44.656 3.98 1.97 15.03 2.955 26.07 2.298 15.64-.985 22.08-3.282 32.51-11.489 23.92-18.383 35.88-58.76 26.99-88.304-5.83-18.711-17.48-37.094-27.6-43.331-4.91-2.955-11.35-11.49-14.11-18.712-3.07-7.222-5.83-14.115-6.44-15.1-.62-.985 2.76-3.611 7.36-5.909 22.08-10.833 49.99-44.644 49.99-60.729 0-4.268 6.13-12.474 15.03-20.681 22.39-20.681 29.75-47.599 19.94-72.547-8.29-21.994-25.15-36.766-47.24-41.69-5.83-1.313-16.56-8.207-23.61-15.1-7.37-7.222-17.18-13.46-23.62-14.444-8.28-1.642-11.04-3.94-11.04-8.864 0-17.398-23.01-47.598-43.56-56.462-15.94-7.221-41.71-9.191-57.66-4.267Zm47.85 13.787c28.22 8.864 49.38 35.781 50.61 64.012.3 7.879.92 9.192 1.84 3.94.61-3.94 1.84-7.222 2.76-7.222 5.83 0 22.69 10.504 27.6 17.07 3.68 4.924 10.43 8.863 17.79 10.176 16.87 2.954 34.35 16.413 42.02 32.498 9.2 19.04 7.36 46.614-4.6 63.028-4.6 6.565-9.51 11.817-10.74 11.817-1.53 0-3.68-4.924-4.6-10.832-1.22-5.581-4.29-13.459-7.05-17.07l-4.91-6.566 2.46 6.566c4.29 12.802 5.21 33.811 1.84 45.301-5.52 17.07-28.83 43.331-47.24 52.851-14.41 7.55-17.17 7.878-30.67 4.595-12.27-3.282-15.64-5.908-22.08-17.398-26.69-49.24-86.19-65.325-131.58-36.109l-17.18 11.161-4.29-7.222c-2.15-3.939-5.21-11.818-6.75-17.07l-2.45-9.848-1.23 8.535c-.3 4.924 1.23 14.444 3.68 21.009 2.76 6.566 3.99 13.459 3.07 15.1-2.76 5.253-29.75 2.955-42.63-3.282-46.32-22.979-55.21-84.365-17.18-119.161 22.39-20.353 56.13-24.62 81.59-10.505l11.65 6.565 7.98-7.878c6.44-6.237 10.42-7.55 22.69-6.565 12.27.656 13.8.328 9.2-3.283-2.76-1.97-9.5-3.939-15.03-3.939-11.04 0-13.49-3.939-13.49-23.964 0-28.23 21.16-57.118 49.07-66.31 18.1-5.908 29.45-5.908 47.85 0Zm-30.98 224.535c33.74 17.07 55.52 50.882 59.81 93.228 1.23 13.131 2.76 20.025 3.07 15.429 1.22-11.161 1.22-12.146-.92-33.812-2.46-21.337-.31-22.65 18.09-13.459 11.97 5.909 21.47 20.681 25.46 39.392 1.84 7.879 2.76 9.848 3.07 5.253.61-12.146 10.73-3.283 20.55 17.398 7.05 15.757 7.97 21.009 6.44 37.751-3.07 36.766-23.93 61.714-54.29 64.997-18.1 1.641-38.34-7.222-34.96-15.429 1.22-2.954 2.76-11.818 3.06-20.024.92-12.475.62-13.131-1.53-4.924-7.67 31.185-33.74 51.209-61.65 46.942-12.88-1.97-8.28 2.954 6.75 7.55 10.12 2.954 15.03 2.626 25.76-1.97 7.06-2.954 14.72-7.55 16.56-9.848 6.44-8.535 9.51-1.641 3.99 8.864-7.36 13.13-24.23 27.246-45.39 37.422-42.02 20.681-106.74 11.161-137.41-20.024l-8.28-8.535 10.74-14.116c11.34-14.772 21.77-38.079 17.17-38.079-1.53 0-4.29 4.596-6.44 9.848-8.28 21.666-44.78 45.958-69.01 45.958-14.72 0-39.26-10.833-51.22-22.322-18.1-17.727-26.99-39.721-26.99-67.952.31-36.109 16.56-65.982 43.86-80.097 16.87-8.535 37.73-10.505 36.5-3.611-3.38 16.085-3.99 39.392-1.23 44.644 2.76 5.253 3.38 3.283 3.68-10.176.31-49.568 45.7-87.647 90.17-75.501 10.74 2.954 13.81 2.954 10.13.328-16.26-10.505-16.26-10.505-10.13-18.055 3.38-3.939 14.11-11.161 24.23-16.742 25.77-13.787 53.99-13.787 80.36-.328Z"/><path d="M1350.13 212.062c-2.14.985-6.74 7.55-9.81 14.772-3.37 6.894-8.28 12.803-11.04 12.803-2.46 0-7.98 3.611-11.96 8.206-17.49 18.383-4.91 50.882 19.01 50.882 10.12 0 11.96.985 12.27 7.222.92 12.474 14.72 23.963 28.83 23.963 10.74 0 14.11-1.969 21.16-10.833 4.3-5.58 9.82-10.504 11.97-10.504 1.84 0 7.05-3.611 11.04-8.207 8.28-8.863 10.73-29.872 3.98-37.094-1.84-1.97-3.37-10.505-2.76-18.711.31-12.146-.92-16.414-7.36-22.979-6.44-7.222-10.43-8.535-23.92-8.207-8.59.328-20.86-.328-26.68-1.313-5.83-.985-12.58-.985-14.73 0Zm21.47 5.909c6.75 3.611 10.43 3.939 17.49.985 7.97-3.283 10.73-2.626 17.78 3.282 7.06 5.581 8.59 9.192 8.59 21.01.31 7.878 1.84 17.726 3.99 21.665 2.15 3.939 3.68 9.848 3.68 13.459 0 7.879-11.65 24.292-15.34 21.994-1.53-.985-4.9 2.298-7.36 7.55-5.21 11.161-10.42 13.787-24.84 13.787-17.79 0-28.22-21.337-19.94-40.376 2.76-6.566 2.76-6.566-.61-1.314-2.15 3.283-5.52 8.535-7.36 11.162-2.45 3.611-5.83 4.595-11.66 2.954-29.13-7.878-25.76-51.21 3.99-51.21 7.36 0 9.51-.985 7.06-2.954-6.44-4.268-3.07-17.727 5.52-22.322 9.51-5.253 8.89-5.253 19.01.328ZM372.651 260.974c-4.294 4.267-7.668 11.817-7.668 16.413s-1.226 8.207-3.067 8.207c-1.533 0-5.827 2.954-9.201 6.565-7.974 8.535-7.974 26.59-.307 34.14 4.294 4.267 5.521 8.535 4.294 16.085-2.147 15.429 3.374 26.918 15.949 33.155 13.802 7.222 30.058 2.626 36.499-10.505 3.68-7.55 5.827-8.534 17.789-7.55 19.016.985 30.057-9.848 30.057-30.529 0-8.206-1.227-15.428-2.76-16.413-1.227-.985-1.84-5.58-.92-10.176 3.067-18.383-10.428-35.453-29.138-35.125-4.6 0-11.961-2.954-15.949-6.237-10.428-8.863-26.377-8.207-35.578 1.97Zm35.885 3.939c3.067 2.954 9.815 5.58 15.336 5.909 6.134.656 12.575 4.267 16.869 9.848 7.054 8.863 9.814 23.635 3.68 19.368-1.84-.985-1.227 1.641 1.84 6.237 7.975 13.459 7.055 28.231-2.76 37.422-10.428 9.52-23.003 9.52-34.351.328l-8.895-7.55 5.521 9.192c5.214 8.863 5.214 9.191-2.147 17.07-22.083 23.635-54.288-6.894-36.499-34.468 4.908-7.879 4.908-7.879 0-3.611-4.6 3.939-6.134 3.611-11.348-1.313-3.374-3.283-6.134-9.52-6.134-13.788 0-7.55 9.508-20.681 15.335-20.681 1.841 0 3.068-3.282 3.068-7.55 0-21.009 25.15-31.185 40.485-16.413ZM0 347.634c0 1.97 3.067 5.253 6.748 7.222 3.68 2.298 9.508 6.894 12.575 10.833s4.6 4.596 3.373 1.97C17.177 355.513 0 340.412 0 347.634ZM45.7 376.52c13.495 7.222 21.776 21.994 21.776 40.048 0 12.146-1.84 16.085-11.962 26.918-9.814 10.833-13.802 12.803-24.536 12.803-7.055 0-16.87-2.298-21.777-4.924C.307 446.441 0 446.441 0 453.006c0 3.939 1.227 6.237 2.76 5.252 1.534-.984 6.748.329 11.349 2.955 17.482 9.519 37.725 4.924 53.06-12.803 9.815-11.161 12.575-39.064 5.214-53.507C67.17 383.742 50.3 370.939 41.1 370.939c-3.987 0-2.454 1.97 4.6 5.581ZM166.543 537.7c-55.514 21.337-78.517 73.204-55.208 124.085 8.588 19.368 4.294 24.62-11.654 13.131-23.924-17.398-57.048-20.025-83.425-6.894C3.68 673.931 0 677.542 0 683.122c0 6.894.307 6.894 5.52 1.97 10.736-10.504 32.512-18.711 49.688-18.711 19.936 0 39.872 8.863 54.594 23.963 6.134 6.237 9.508 8.207 7.974 4.596-.92-2.954-.306-7.878 1.841-10.833 3.68-4.267 4.907-3.939 11.961 2.955 10.122 9.848 22.39 18.711 26.071 18.711 1.533 0-2.761-4.268-9.202-9.52-25.457-20.024-34.965-38.079-34.965-66.638.307-32.17 17.483-58.432 49.074-74.517 22.39-11.161 61.342-12.146 83.118-1.641 29.137 14.444 51.834 46.286 51.834 73.86v12.146l-17.482 1.313c-9.815.985-22.697 3.939-28.524 7.222-5.828 2.954-7.975 4.267-4.601 2.954 3.374-.985 16.869-2.626 30.057-3.611 22.084-1.313 25.457-.656 43.553 8.864 38.952 20.68 59.195 68.279 47.54 111.939-5.521 20.024-6.747 21.009-20.856 13.459-6.748-3.611-17.789-7.55-24.537-8.864-16.562-2.626-42.632 5.909-55.208 18.383-7.361 6.894-13.188 9.848-20.856 9.848-13.495 0-25.763 6.894-35.885 19.368-3.987 5.253-8.281 8.863-9.201 7.879-3.681-3.94-27.297 3.282-39.566 12.146l-13.188 9.519-7.054-7.222c-3.988-3.939-9.815-12.474-13.189-18.711-4.6-9.848-5.521-10.504-5.827-4.267 0 4.267-.307 7.55-.92 7.55-9.508 0-33.432-12.146-41.1-20.353-18.402-20.352-23.616-44.316-14.722-67.623 3.988-10.833 3.988-11.489 0-5.58-11.654 15.756-12.881 43.659-3.373 64.012 2.76 6.237 3.373 10.504 1.226 11.817-7.974 5.253-50.3-8.535-56.127-18.383-3.374-5.908-7.975-3.282-7.055 3.94.614 4.924 5.828 10.504 14.723 15.756 11.348 6.894 18.095 8.207 37.418 8.207 17.482 0 24.843 1.642 29.137 5.581 7.975 7.878 20.857 12.474 34.352 12.474 8.588 0 13.495 2.298 20.243 9.848 7.667 8.535 8.281 10.833 5.214 18.055-5.828 13.459-4.601 41.033 2.147 52.851 14.415 25.276 46.926 39.063 71.463 30.2 13.495-4.595 13.802-4.595 23.923 4.596 32.205 28.559 96.307 26.261 126.364-4.267 10.735-10.833 14.109-12.146 31.591-13.459 15.643-.985 21.47-2.955 27.911-9.192 12.882-13.131 17.482-25.277 15.642-43.659-1.227-13.788-3.374-18.383-13.802-29.873-7.054-7.222-16.255-18.055-20.549-23.963-5.214-6.566-11.962-11.49-18.403-12.803-13.188-2.626-19.016-9.191-13.802-15.757 1.841-2.626 5.521-3.939 7.668-2.954 10.735 4.267 37.419-13.787 42.019-28.559.614-2.298 3.987-2.298 11.042.328 8.281 2.954 11.961 2.626 23.31-3.283 18.709-9.848 26.683-33.811 17.482-52.522-1.84-3.283-2.454-10.833-1.533-16.086 3.68-20.352-15.336-43.331-36.192-43.331-8.588 0-15.029-2.626-21.47-8.207-17.176-15.428-41.712-8.863-50.3 13.459l-4.294 11.162-15.336-11.162c-8.281-6.237-22.083-13.13-30.364-15.428-14.722-3.939-15.029-4.268-13.495-14.444 2.454-15.757-6.748-44.316-18.709-59.416-5.828-7.222-19.016-18.055-29.751-24.292-16.256-9.192-22.697-10.833-45.393-12.146-20.243-.985-30.058.328-42.326 4.924ZM410.99 648.326c5.214 2.955 9.202 6.565 9.202 8.207 0 1.969 5.52 3.282 12.268 3.282 15.029 0 29.751 13.131 32.818 29.216 1.84 10.177 1.533 10.833-4.601 7.222-10.121-5.909-9.814-4.267 1.227 7.55 7.975 8.535 10.428 13.788 10.428 23.307 0 9.52-2.453 14.772-10.428 23.307-15.642 16.742-37.725 14.444-48.767-4.595-2.76-4.924-5.214-7.222-5.214-5.253 0 1.97 2.761 7.55 6.441 12.146 4.601 6.566 5.521 10.176 3.067 14.444-4.907 10.176-14.108 17.07-24.536 19.368l-10.122 2.298 2.454-14.444c5.521-29.544 3.374-52.851-7.361-75.83-11.042-24.292-11.962-30.857-4.908-41.362 8.895-13.459 23.617-17.07 38.032-8.863ZM338.3 785.542c22.39 10.176 36.805 29.216 42.019 55.805l2.761 13.788-.92-17.399c-.92-16.085-.614-17.069 5.521-15.1 11.654 3.611 20.242 11.161 22.083 19.368.92 4.596 3.68 8.207 5.827 8.207 7.668 0 16.869 18.383 16.869 33.811 0 28.559-23.617 49.569-48.46 43.003-11.042-2.954-11.348-3.611-10.428-16.085l.613-13.131-3.987 9.848c-6.441 14.444-15.949 22.323-30.671 24.62-12.882 2.298-12.882 2.298-3.68 4.924 6.747 1.97 11.655.985 20.549-4.267 15.642-8.863 15.642-1.313.307 12.474-14.109 12.146-36.192 19.696-58.888 19.696-20.857 0-33.432-3.611-51.221-14.772l-13.802-8.535 11.042-13.459c5.827-7.55 10.735-15.757 10.735-18.383 0-2.626-3.067 0-7.055 6.237-8.587 13.788-30.057 25.933-46.619 25.933-29.138-.328-50.607-21.009-53.061-51.209-2.147-26.262 10.121-45.958 34.658-56.134 18.096-7.55 20.55-5.909 18.403 11.161-1.227 13.131-1.227 14.444 1.84 7.55 14.415-35.453 27.91-46.614 54.287-45.301 12.269.657 15.029 0 11.349-2.626-3.988-3.282-3.988-4.267.92-8.535 16.255-15.428 48.153-20.681 69.009-11.489ZM1765.73 696.258c-6.45 3.611-14.11 10.833-16.87 16.085-3.38 6.565-8.9 10.505-17.49 12.803-30.05 8.206-47.23 30.857-49.99 64.668-2.15 28.56 8.28 52.851 28.83 66.967 7.98 5.252 16.87 9.848 19.63 9.848 2.76 0 9.81 5.909 15.34 13.459 10.73 14.444 25.15 22.65 39.25 22.65 14.11 0 34.97-13.787 42.33-27.902 5.52-10.177 8.59-12.475 18.1-13.459 25.45-2.298 45.08-27.575 45.08-57.119-.3-8.863-1.84-19.368-3.98-23.635-4.91-10.177-18.41-25.605-25.77-29.216-4.6-2.626-4.29-1.313 1.54 4.267 11.96 11.49 15.64 17.727 18.7 31.186 3.38 17.07-1.84 36.438-13.49 49.24-10.43 11.818-28.83 17.726-32.82 10.833-1.53-2.626-3.07-.985-4.29 5.58-1.23 5.581-6.75 14.772-12.58 20.681-8.59 8.863-13.49 11.161-26.68 12.146-19.02 1.641-32.51-5.58-42.33-22.65-7.05-12.475-8.28-41.362-2.45-52.851 3.07-6.566 3.07-6.894-1.53-2.627-5.83 4.924-11.35 23.307-11.35 37.095 0 12.146-3.99 11.489-18.71-3.283-23.62-23.307-25.77-64.012-5.22-90.93 11.35-14.444 24.54-21.338 42.94-21.666 7.36-.328 10.43-.985 7.06-1.969-11.04-2.955-11.04-5.909 0-17.399 8.59-8.863 13.49-11.161 26.99-12.474 25.76-2.298 45.39 12.803 49.99 38.408 2.15 11.489 7.36 17.069 7.36 7.878-.3-9.192-10.73-31.514-18.71-39.392-15.64-15.429-39.26-18.383-58.88-7.222ZM685.494 749.432c-25.15 10.504-42.632 29.872-50.607 56.133-4.601 15.429-2.76 42.675 3.681 56.791 5.52 11.817 6.134 11.161-15.949 15.757-26.991 5.908-57.662 29.215-72.384 56.133-21.469 39.064-12.882 91.584 20.55 124.744 22.39 21.99 15.029 21.01 133.418 21.01 101.828-.33 107.962-.66 112.869-6.24 4.908-5.91 6.441-5.91 15.643-1.64 24.536 10.83 65.635-.66 77.29-21.67 3.374-6.23 8.588-10.17 15.029-11.49 21.163-3.94 37.725-29.21 33.738-50.221-1.84-8.207-1.227-8.863 7.361-8.863 7.361 0 9.508 1.641 11.042 8.863 2.147 11.491 16.255 22.321 28.835 22.321 6.74 0 12.57-2.95 18.7-9.52 4.91-5.579 11.66-10.832 15.03-11.816 8.59-2.955 18.41-17.399 18.41-27.575 0-4.596-2.15-12.474-4.3-17.398-2.76-5.581-3.99-13.459-2.76-20.353 1.54-9.848.31-13.13-7.67-21.665-9.5-10.177-22.08-12.803-30.97-6.894-3.07 1.97-6.75 1.641-10.74-1.641-3.372-2.626-9.507-4.596-13.494-4.596-8.281 0-22.083 13.787-22.083 21.994 0 4.267-3.374 7.222-9.815 9.191-7.667 2.627-11.654 6.894-16.255 17.07-5.828 13.131-6.748 13.788-16.869 11.818-5.828-.985-11.348-3.283-11.962-5.252-2.453-6.566-22.39-28.231-28.217-30.201-4.294-1.641-5.828-5.252-5.828-14.444 0-24.948-15.642-60.729-34.964-79.769-11.349-11.489-33.125-23.963-47.847-27.246-7.054-1.641-14.722-7.55-23.003-17.398-21.47-26.262-58.275-37.423-85.879-25.933Zm51.527 9.519c6.441 1.97 18.403 10.177 26.377 18.055l14.109 13.787-9.201.329c-4.908.328-13.189 2.298-18.403 4.924l-9.201 4.924 10.735-2.626c44.779-9.849 86.492 13.787 106.428 60.729 6.747 15.429 7.667 21.337 6.747 45.301-.613 15.1-2.147 28.559-3.373 29.544-1.227 1.313-6.441-1.313-11.655-6.237-5.214-4.596-11.962-8.535-14.416-8.535-3.067 0-1.84 2.626 3.988 7.222 13.188 11.161 19.629 19.696 21.469 29.872 1.227 4.924 3.374 9.848 4.907 10.833 1.534.985 1.841-1.641.921-5.909-.921-3.939.92-14.443 3.68-22.65 4.601-12.803 6.441-14.772 11.655-12.803 3.374 1.642 10.122 7.222 15.029 12.475l8.588 9.848-8.588 5.58c-4.907 2.955-6.134 4.268-2.761 2.955 13.189-4.924 19.937-5.253 30.365-1.313 20.856 7.221 31.284 32.498 22.083 53.174-4.294 9.52-18.403 22.33-24.537 22.33-.92 0-1.84-6.57-1.84-14.77 0-13.46-6.748-34.473-11.042-34.473-.613 0 0 3.283 2.147 6.894 5.521 11.161 1.84 39.389-6.441 51.539-10.428 14.77-31.591 24.95-51.527 24.62-17.789 0-25.15-4.6-19.936-11.49 3.374-4.6 10.428-25.61 8.588-25.61-.614 0-3.987 5.58-7.668 12.15-18.402 34.14-59.501 46.29-98.147 29.54-18.709-7.87-20.243-12.47-6.441-16.41 15.949-4.27 12.882-7.22-6.441-6.24-23.31 1.65-42.019-3.94-61.342-18.05-10.121-7.55-14.108-9.19-12.268-5.25 6.441 12.47 30.671 30.53 41.406 30.53 2.454 0 6.747 2.95 10.121 6.89 7.055 8.21 3.374 11.49-16.562 14.77-65.329 10.51-123.604-30.53-128.511-90.272-.92-10.176 0-24.292 1.84-31.842 8.281-32.827 37.419-62.043 70.85-71.562 16.255-4.268 17.176-4.268 23.003 2.626 3.374 3.939 8.895 9.519 12.268 11.817 3.374 2.626 1.841-.328-3.68-6.565-26.99-31.185-25.457-81.082 3.374-111.283 20.549-21.665 45.699-28.231 73.303-19.368ZM1001.4 899.122c.92 1.969 8.29 2.298 16.57 1.313 12.88-1.642 15.64-.657 21.47 5.909 5.52 6.237 6.74 10.504 5.52 20.352-.92 7.222.3 16.085 2.76 21.666 3.37 7.222 3.68 11.489.92 19.696-3.68 10.833-15.03 20.681-15.03 12.802-.31-2.297-2.15.657-4.6 6.566-7.36 18.054-27.91 21.664-41.714 6.893-5.521-5.908-6.134-9.848-4.907-22.322 1.533-14.772 1.533-14.772-2.761-5.909-9.508 18.712-34.964 5.909-34.964-17.726 0-14.444 10.734-25.933 24.23-25.933 5.214 0 6.747-.985 3.987-2.626-4.601-3.283-.307-18.712 6.134-21.338 6.748-2.954 20.549-2.298 22.385.657ZM1306.27 838.395c-23.31 9.52-36.19 18.711-50.3 35.453-14.1 16.742-15.33 17.398-31.28 17.726-23.62.985-39.57 6.238-59.19 20.353-41.41 29.872-53.37 83.052-28.84 128.023 9.51 17.4 6.75 22.98-8.28 17.4-19.63-7.22-45.7-.66-59.19 15.76-5.83 6.89-5.83 6.89.31 6.89 3.37 0 8.58-2.95 11.65-6.57 10.43-12.14 39.26-16.74 53.37-8.53 7.05 4.27 8.59 3.61 19.32-5.58 23.62-20.03 64.1-14.12 79.44 11.82 4.91 7.88 6.13 8.53 4.91 3.28-2.77-13.79 24.53-15.43 42.01-2.63 14.42 10.51 20.25 10.51 11.05 0-9.82-11.16-25.46-16.08-44.17-13.46-15.03 1.65-16.26 1.32-28.22-10.5-12.27-12.15-12.88-12.15-32.2-10.18-10.74.99-21.78 2.96-24.23 3.94-6.44 3.29-20.24-20.02-24.23-40.7-5.83-27.905 2.45-54.495 23.31-75.504 16.87-17.398 35.88-26.59 58.89-28.559 19.63-1.642 19.63-1.642 17.48 6.237-5.52 20.024-7.67 31.514-7.67 40.705.31 7.222 1.23 4.924 4.29-8.207 4.91-23.307 7.06-28.231 17.18-44.644 11.04-17.398 36.5-35.453 59.5-42.675 41.71-12.474 92.93 3.611 116.86 37.094 7.67 10.505 7.67 11.49 2.45 15.429-3.07 2.626-10.73 3.939-17.79 3.283l-12.57-1.313 15.03 5.908c18.09 7.222 38.03 24.62 43.55 38.079 2.15 5.581 3.99 8.207 4.29 5.581 0-10.505-13.19-33.155-23.61-40.049-9.82-6.565-10.43-7.55-5.22-10.833 3.38-1.969 18.4-3.61 33.43-3.61 31.9 0 40.8 3.939 61.35 26.589 28.83 31.514 30.67 83.049 4.6 116.859-18.41 23.64-56.75 36.11-87.42 28.24-8.58-2.3-8.58-2.3-1.53.98 4.29 1.97 10.12 4.92 13.19 6.57 7.97 4.59 40.79 0 58.27-7.88 19.94-8.87 40.8-34.14 46.93-56.46 8.28-31.847 3.37-61.063-15.34-87.981-8.58-12.474-34.96-30.857-48.46-33.483-12.57-2.626-15.02-7.878-11.04-23.635 5.52-22.322 34.97-32.17 52.76-17.07 7.36 6.237 8.28 6.237 14.72 1.641 3.68-2.954 12.27-5.252 18.71-5.252 16.87 0 30.36 15.429 29.44 33.155-.61 9.192.92 14.772 5.52 20.024 19.63 22.323 6.44 55.149-22.08 55.149-7.05 0-11.65-1.641-12.88-5.252-1.54-4.267-2.15-4.267-4.3-.656-4.29 6.893-3.37 8.206 9.21 11.817 17.17 4.596 26.37 1.642 37.41-11.817 8.29-10.177 9.51-13.459 7.98-25.934-.92-8.863-4.3-17.726-8.59-22.65-5.52-6.237-6.75-11.161-6.13-22.651.61-13.13-.31-16.085-9.82-26.261-12.88-13.787-28.52-15.428-44.16-4.924-5.52 3.611-10.13 5.252-10.13 3.939 0-5.58-18.4-13.787-30.67-13.787-10.42 0-14.72 1.97-23.31 11.161-5.82 6.237-10.42 13.459-10.42 16.414 0 2.954-1.23 5.252-3.07 5.252-1.54 0-3.07-1.313-3.07-2.955 0-1.641-6.44-6.237-14.11-10.176-11.35-6.237-17.48-7.222-32.51-5.58-15.33 1.313-20.85.328-35.58-6.566-20.85-10.504-68.39-13.787-86.8-6.237Zm153.36 24.62c9.51 5.252 21.78 19.04 21.78 24.292 0 .657-5.83 1.313-12.89 1.641-7.05.329-15.03 1.313-17.79 2.298-2.76.985-10.12-5.252-19.32-16.413l-14.72-18.055h15.64c9.51 0 20.24 2.626 27.3 6.237ZM51.219 942.455c-15.336 3.611-30.978 16.741-37.112 30.857-2.76 5.909-7.36 11.818-10.428 12.474-3.374.985-2.454 1.641 2.454 1.97 6.134.328 9.201-2.626 13.802-11.49 16.562-32.826 63.795-37.422 86.492-8.863 5.214 6.894 6.44 7.55 6.134 2.626-.92-8.535 17.175-13.13 31.898-8.535 11.654 3.611 30.364 22.979 30.364 31.186 0 2.626 3.374 5.58 7.361 6.565 11.041 2.955 26.683 18.055 31.284 30.525 4.907 12.48 5.521 29.88 1.227 42.02-2.76 7.55-2.454 8.54 2.147 7.55 6.441-1.31 10.735-19.69 8.281-35.45-2.454-16.41-15.029-34.8-29.444-42.35-7.668-3.936-15.029-11.486-19.016-19.037-12.575-23.635-39.565-34.139-61.649-23.307-6.44 3.283-8.894 2.627-14.722-2.954-13.802-13.459-30.364-18.055-49.073-13.787ZM168.999 1064.24c0 2.96-1.227 8.21-2.147 11.49-1.534 4.6-1.227 4.93 1.533 2.3 2.147-2.3 3.374-7.22 2.454-11.49-.613-4.27-1.534-5.25-1.84-2.3ZM20.243 1070.15c2.147 9.19 3.68 11.49 5.52 9.52.614-.65-.613-4.92-3.067-9.52l-4.6-8.2 2.147 8.2Z"/></g><defs><clipPath id="a"><path fill="#fff" d="M0 0h1920v1080H0z"/></clipPath></defs></svg>