<svg viewBox="0 0 364 646" fill="none" preserveAspectRatio="xMidYMid slice" xmlns="http://www.w3.org/2000/svg"><g clip-path="url(#a)" fill="#444"><path d="M3.863 393.999c6.075 5.057 13.254 6.399 20.654 3.922 3.866-1.342 4.087-1.238 6.406 1.651 1.215 1.548 4.308 4.025 6.627 5.469 2.43 1.445 4.418 3.199 4.418 3.922 0 .722-1.878 3.199-4.086 5.469-6.738 6.605-8.063 8.772-8.063 14.035 0 4.024.663 5.572 3.424 8.565 2.098 2.167 5.08 4.024 7.731 4.643 2.43.62 6.185 2.271 8.394 3.612 2.21 1.445 5.412 2.58 7.18 2.58 7.178 0 13.032-5.572 13.032-12.177 0-1.857.663-3.302 1.657-3.715.994-.309 2.54-2.27 3.424-4.334 1.436-3.096 1.436-4.644.331-9.081-.663-2.89-1.657-6.295-2.209-7.533-.552-1.445-.552-3.406.11-4.954 1.657-4.024-1.214-9.7-5.19-10.422-2.872-.516-3.093-.929-2.762-4.644.221-2.167-.11-5.47-.773-7.121-1.104-2.992-.883-3.508 2.761-6.914 2.21-2.064 4.64-5.263 5.523-7.12 3.313-7.533.883-19.71-4.97-24.561-1.215-1.135-2.32-3.095-2.32-4.437 0-1.341-.773-4.128-1.656-6.192-.884-1.96-1.657-5.675-1.657-8.152 0-5.779-1.215-8.668-5.523-12.59-8.835-8.359-23.746-5.882-29.49 4.747l-2.43 4.541-7.62.103c-6.185.206-8.394.722-12.15 3.096-4.086 2.477-4.638 3.302-4.638 6.708v3.818l2.871-3.406c6.517-7.636 18.556-9.7 27.944-4.747l5.08 2.58-3.865-3.096c-2.099-1.754-4.197-3.199-4.639-3.199-1.878 0-.773-4.127 1.878-7.12 4.086-4.438 11.155-6.708 16.788-5.366 7.952 1.96 13.585 8.152 13.585 14.653 0 1.858-.331 1.961-1.657.929-2.32-1.754-8.946-2.993-10.603-1.961-1.104.62-.442.929 1.988.929 7.732 0 15.352 11.352 12.702 19.194-.884 2.89-.884 3.406.22 2.58.995-.825 1.989-.516 3.756 1.239 8.615 8.565 4.97 24.25-6.958 30.442-2.21 1.135-2.21 1.135.22 1.238 2.762 0 3.535 2.58 2.43 8.669-2.43 13.106-20.543 17.956-30.152 7.946-1.988-2.064-1.988-2.167.884-5.779 3.424-4.128 2.319-4.85-1.547-1.032-3.313 3.302-9.94 4.953-15.683 4.128-5.081-.826-11.597-5.676-13.696-10.32l-1.436-3.096-.11 4.231c0 3.715.552 4.851 3.865 7.43Zm30.263 26.315c1.215-1.754 3.093-3.508 4.308-3.818 1.215-.413 2.43-1.548 2.761-2.683.331-1.032 2.209-2.89 4.197-4.128 3.534-2.064 3.645-2.167.663-1.445-1.657.31-2.982.207-2.982-.412 0-.516 2.43-1.239 5.522-1.445 5.854-.516 12.591-4.438 13.806-8.049.994-2.89 4.418-2.58 7.069.619 2.54 3.096 2.982 6.707 1.104 9.907-.883 1.547-.883 1.96 0 1.444.663-.413 1.326-.103 1.326.619.11.723.331 2.477.552 3.922 1.767 11.351 1.877 10.835-1.105 14.138-1.546 1.754-2.871 3.921-2.871 4.85 0 5.882-6.185 11.97-12.15 11.97-3.644 0-8.614-2.889-10.382-5.985-1.215-1.961-1.656-2.27-1.767-1.032 0 3.509-9.057-1.341-11.155-5.882-1.546-3.612-1.105-9.184 1.104-12.59Z"/><path d="M60.97 433.419c3.976.103 7.51-2.271 7.51-5.057l-.11-2.683-1.546 2.58c-.773 1.445-2.872 3.096-4.64 3.818-1.877.722-2.319 1.238-1.214 1.342ZM2.32 370.472c1.216-1.961 3.535-4.747 5.192-6.089 1.657-1.341 2.43-2.064 1.767-1.754-.773.309-3.093-1.238-5.302-3.509-3.092-3.302-3.976-3.715-3.976-2.167 0 1.135 1.547 2.993 3.424 4.334l3.424 2.167-3.424 3.303c-1.877 1.857-3.424 4.231-3.424 5.263 0 1.548.663 1.135 2.32-1.548ZM3.093 28.173c4.086 3.715 10.271 3.818 14.026.31 2.099-2.064 3.424-2.374 7.4-1.96 10.051.928 16.678-7.534 12.37-15.893-1.214-2.167-3.534-4.644-5.411-5.47-2.21-1.031-3.203-2.167-2.982-3.405.552-2.786-1.657-2.064-2.43.826-.442 1.444-2.32 3.508-4.308 4.644-1.877 1.135-3.092 2.063-2.54 2.063s2.65-.928 4.639-2.167c2.872-1.65 4.197-1.857 5.854-.928 6.295 3.095 7.51 10.732 2.43 15.582-4.308 4.025-9.61 4.025-14.69.103l-3.645-2.786 1.988 2.89c1.988 2.786 1.988 3.095.11 4.953-3.865 3.921-10.382 2.27-14.468-3.818C.22 21.259.11 21.259.11 23.323c-.11 1.135 1.326 3.302 2.983 4.85ZM2.871 214.541c.884 1.961 2.21 4.231 2.982 5.057.773.929 1.215 3.818.994 7.533-.442 6.605 1.215 10.32 6.075 13.725 6.737 4.644 18.445 2.58 22.642-4.231 1.325-2.064 3.092-3.405 4.418-3.405 5.743 0 11.928-6.605 11.928-12.9 0-2.992-2.32-7.739-4.75-9.597-1.435-1.135-1.324-1.754.553-5.16 4.529-8.049.11-17.543-9.278-19.916-2.319-.516-5.412-2.064-6.847-3.509-9.83-9.081-26.508-1.445-24.52 11.352.442 3.508.11 4.747-1.546 6.191-1.988 1.651-4.418 7.637-4.418 10.32.11.516.773 2.58 1.767 4.54Zm3.203-12.383c.994-1.651 3.314-4.025 5.302-5.16 3.424-1.96 3.424-2.064.441-1.341-2.871.619-2.982.516-2.982-4.025 0-10.319 12.04-15.582 20.985-8.978 2.32 1.754 2.54 2.167 1.105 3.096-1.215.722-.442 1.032 3.092 1.032 4.087 0 5.523.619 8.615 3.509 2.983 2.786 3.756 4.334 3.756 7.739 0 4.541-1.878 9.391-3.645 9.391-.663 0 .11 1.341 1.767 2.889 5.964 5.779 5.743 13.313-.442 18.163-3.976 3.199-10.492 3.612-15.131 1.032l-2.982-1.651 3.092 2.683c1.657 1.444 3.866 2.683 4.75 2.683 2.43 0 1.877 1.651-1.767 4.437-6.296 4.953-14.248 4.85-19.881-.413-3.755-3.612-5.302-9.287-3.535-13.621 1.105-2.58.884-3.509-1.435-6.708-3.203-4.438-3.645-10.113-1.105-14.757ZM5.19 626.083c.662 3.199 6.295 8.565 9.056 8.668 7.4.413 9.388.103 12.04-2.167 1.877-1.651 2.87-1.858 4.528-1.032 1.215.516 4.418 1.032 7.068 1.032 10.493 0 17.672-8.875 14.91-18.575-.772-2.477-.551-2.58 5.081-2.786 3.204 0 7.4-.826 9.389-1.755 3.424-1.754 9.388-8.359 10.603-12.074.441-1.135 1.767-1.96 3.092-1.96 3.203 0 9.167-3.509 10.824-6.295 1.657-2.89 1.657-10.01.11-11.455-.773-.722-.441-2.167 1.436-4.85 7.732-10.835 4.529-25.386-6.958-32.094-3.866-2.27-4.307-2.992-3.866-5.675 1.436-8.153-4.86-17.647-13.474-20.742-12.591-4.438-27.17 3.508-28.827 15.788l-.552 3.922 1.546-3.818c2.54-6.295 4.749-8.669 9.94-11.042 9.057-4.128 18.003-2.167 24.299 5.263 4.528 5.263 5.19 12.177 1.988 18.162-2.32 4.334-1.326 6.192 1.215 2.27 1.767-2.58 3.203-2.58 6.847.103 6.959 5.16 9.61 16.512 5.633 24.664-1.546 3.096-2.54 4.025-3.755 3.509-5.301-2.064-5.964-1.652-2.32 1.341 3.425 2.786 3.866 3.818 3.866 8.049 0 4.128-.552 5.263-3.644 7.843-2.54 2.064-4.75 2.993-7.51 2.993-2.32 0-3.646.413-3.204 1.032.442.619-.442 2.786-1.767 4.747-3.314 5.159-12.702 9.184-18.887 8.255-7.62-1.135-8.615-1.96-7.29-6.707.995-3.509.774-4.747-.993-7.534-1.105-1.857-3.645-4.127-5.633-4.953-1.878-.825-3.535-2.064-3.535-2.786 0-2.477 2.651-6.501 4.308-6.605.994 0-.773-.619-3.866-1.341-7.179-1.651-12.039-4.954-14.69-9.804-4.86-8.771-3.865-17.027 2.872-23.941 6.075-6.295 17.34-8.565 24.851-4.85 1.215.516 1.988.516 1.988 0 0-1.651-6.516-3.612-12.48-3.715-14.8-.103-25.404 12.899-22.421 27.553 1.104 5.263 8.614 12.693 14.91 14.86 5.302 1.754 5.302 1.754 4.197 5.057-.773 2.373-2.098 3.715-4.418 4.54-1.877.516-4.307 1.858-5.412 2.786-1.325 1.032-4.086 1.755-7.51 1.755-10.051.206-15.794 8.668-11.376 16.924 1.988 3.818 1.988 4.127.11 6.501-2.099 2.683-3.203 7.43-2.32 10.939Zm3.203-9.598c.994-1.96 2.209-3.508 2.76-3.508.443 0-.11-1.651-1.435-3.715-1.988-3.199-2.099-4.128-.994-7.74 1.657-5.16 6.737-8.462 11.818-7.739 2.761.309 4.086-.104 6.075-2.064 1.877-1.858 3.644-2.477 7.068-2.477 5.633 0 9.057 2.167 10.382 6.708 1.326 4.747.442 7.739-2.54 7.739-1.767 0-1.546.413 1.436 1.858 4.087 2.064 7.842 7.533 7.842 11.351 0 11.042-14.358 17.75-23.415 10.733l-3.645-2.787 1.988 2.787c1.767 2.683 1.767 2.889-.442 4.024-5.964 2.89-14.027.413-17.23-5.366-1.877-3.302-1.767-5.573.332-9.804ZM6.96 86.682c4.197 14.138 18.555 22.394 31.146 18.266 4.197-1.445 4.529-1.342 6.296.825 1.767 2.271 1.877 2.684.22 6.295-2.319 5.263-2.319 14.138 0 20.742 2.32 6.605 9.941 13.932 16.789 16.408 10.713 3.819 24.078-.619 30.704-10.113 1.878-2.683 3.645-4.85 3.977-4.85.33-.103 1.435 1.239 2.43 2.993.993 1.651 3.755 4.334 6.185 5.882 3.976 2.683 4.417 3.405 5.08 8.772.884 8.049 4.308 14.447 10.603 19.813 21.759 18.162 57.875 1.857 54.893-24.767-.331-2.889-1.436-6.811-2.43-8.668l-1.767-3.199 4.528-4.644c16.568-16.821 15.574-47.366-1.877-62.33-3.314-2.89-6.517-5.16-7.069-5.16-.663 0-.552-.928.221-2.166.663-1.342.994-5.057.773-8.772-.331-5.263-1.104-7.43-3.866-10.939-6.185-8.049-19.77-12.073-29.71-9.08-6.296 1.96-12.481 5.881-14.579 9.287-.994 1.65-3.866 3.818-6.296 4.747-2.43 1.032-4.749 1.96-5.081 2.167-.331.206-1.214-.929-1.988-2.477-3.644-7.43-15.02-16.82-20.432-16.82-1.436 0-4.198-2.065-6.959-5.057-6.958-7.534-16.015-10.01-24.409-6.708-7.4 2.786-12.37 8.462-14.027 15.892-.442 1.96-2.761 5.573-5.08 7.946-2.43 2.477-4.529 5.779-4.86 7.946-.552 2.786-1.326 3.715-2.982 3.715-5.854 0-16.015 7.74-18.997 14.654-2.43 5.366-3.093 14.034-1.436 19.4Zm4.639-16.098C14.58 61.09 23.637 53.97 33.136 53.557c2.65-.103 3.093-.31 1.325-.62-1.325-.206-2.43-.618-2.43-.928 0-1.96 3.535-7.636 5.744-9.288 1.657-1.238 2.982-3.508 3.424-5.985.994-5.676 5.522-11.558 10.934-14.138 6.406-3.095 15.684-2.476 21.206 1.548 2.21 1.548 3.976 3.2 3.976 3.612 0 .516-1.656 1.239-3.644 1.548-1.878.413-4.529 1.445-5.744 2.373l-2.209 1.652 2.21-.826c4.307-1.445 11.376-1.754 15.241-.62 5.743 1.858 14.58 9.701 17.782 15.893 2.541 4.85 2.651 5.779 1.547 10.32-1.105 4.127-1.988 5.262-5.854 7.43-16.567 8.977-21.98 28.997-12.15 44.27l3.756 5.779-2.43 1.445c-1.325.722-3.976 1.754-5.743 2.27l-3.314.826 2.872.412c1.656.104 4.86-.412 7.069-1.238 2.209-.929 4.528-1.342 5.08-1.032 1.767.929.994 10.01-1.104 14.344-7.732 15.583-28.386 18.575-40.093 5.779-6.848-7.533-8.284-18.885-3.535-27.45l2.21-3.921-2.651-2.683c-2.099-2.167-2.54-3.509-2.21-7.637.222-4.127.111-4.643-1.104-3.095-.662.928-1.325 3.199-1.325 5.056 0 3.715-1.325 4.541-8.063 4.541-9.498 0-19.218-7.12-22.31-16.512-1.988-6.088-1.988-9.906 0-16.098Zm75.546 10.423c5.744-11.352 17.12-18.679 31.368-20.123 4.418-.413 6.737-.93 5.191-1.032-3.756-.413-4.087-.413-11.376.31-7.18.825-7.621.102-4.529-6.09 1.988-4.024 6.958-7.223 13.254-8.564 2.651-.62 3.313-.93 1.767-1.032-4.086-.207-1.104-3.612 5.854-6.914 5.301-2.374 7.069-2.683 12.701-2.167 12.371 1.031 20.765 8.049 21.869 18.265.552 6.089-2.43 12.9-5.191 11.764-.994-.413-3.976-.928-6.737-1.032-4.197-.31-4.418-.206-1.657.516 10.493 2.58 17.23 11.352 15.794 20.742-.663 4.335.994 2.787 2.54-2.27.994-3.405.884-5.056-.662-8.668-.994-2.374-2.541-4.954-3.314-5.573-2.871-2.167-.552-3.199 2.982-1.341 4.418 2.476 9.168 8.152 12.592 15.273 6.958 14.137 3.755 35.911-6.738 46.231l-2.871 2.786-4.75-3.612c-4.97-3.818-12.812-7.327-12.812-5.779 0 .516 1.547 1.445 3.314 2.167 7.289 2.787 15.462 15.067 15.462 23.219 0 4.954-3.644 13.209-7.51 17.234-5.964 6.088-13.364 9.081-22.863 9.081-12.149-.103-22.2-5.573-26.949-14.757-2.872-5.676-3.535-12.693-1.215-12.28 5.412 1.135 13.254 1.341 15.021.413 1.767-.929 1.104-1.135-3.424-1.239-16.678-.103-29.49-15.376-25.403-30.339.994-3.612.994-4.644.11-3.405-3.534 5.469-3.534 5.469-6.074 3.405-1.326-1.135-3.756-4.747-5.633-8.152-4.64-8.669-4.64-18.163-.11-27.037Z"/><path d="M71.351 191.739c.331.722 2.54 2.27 4.97 3.302 2.32 1.135 4.308 2.786 4.308 3.715 0 .826 1.215 2.683 2.76 4.025 6.186 5.882 17.12 1.651 17.12-6.398 0-3.406.332-4.025 2.43-4.128 4.197-.31 8.063-4.953 8.063-9.7 0-3.612-.663-4.747-3.645-7.121-1.877-1.445-3.534-3.302-3.534-4.024 0-.62-1.215-2.374-2.761-3.715-2.983-2.787-10.051-3.612-12.481-1.342-.663.619-3.534 1.135-6.296.929-4.086-.103-5.522.309-7.731 2.476-2.43 2.167-2.872 3.509-2.761 8.05.11 2.889-.11 7.017-.442 8.978-.331 1.96-.331 4.231 0 4.953Zm1.988-7.224c1.215-2.27 1.326-3.508.331-5.882-1.104-2.683-.883-3.612 1.105-5.985 1.877-2.374 3.093-2.89 7.069-2.89 2.65-.103 5.964-.619 7.29-1.341 1.325-.722 3.313-1.238 4.528-1.238 2.65 0 8.173 3.921 7.4 5.159-.332.516.773 1.651 2.54 2.477 3.755 1.754 4.639 3.509 4.639 8.359 0 5.985-7.179 9.494-13.585 6.707-2.21-.928-2.21-.928-.442.207 1.104.722 2.871 1.857 3.755 2.476 1.215.826 1.546 1.961.994 3.922-2.65 9.803-17.23 8.668-17.23-1.342 0-2.476-.331-3.199-.994-2.373-1.436 2.167-5.964 1.032-7.51-1.858-1.767-3.199-1.767-2.992.11-6.398ZM87.806 520.618c1.436 1.445 3.976 2.58 5.523 2.58 1.546 0 2.76.413 2.76 1.032 0 .516.995 1.961 2.21 3.096 2.871 2.683 8.946 2.683 11.486.103 1.436-1.444 2.872-1.857 5.412-1.444 5.191.722 9.057-1.136 11.156-5.367 2.429-4.643.883-10.113-3.535-12.28-2.54-1.238-2.871-1.96-2.54-5.985.331-6.398-3.313-10.113-10.272-10.113-2.761 0-5.191.413-5.522.929-.331.412-1.878.619-3.424.309-6.185-1.032-11.928 3.509-11.818 9.804 0 1.548-.994 4.024-2.099 5.366-2.982 3.509-2.76 8.875.663 11.97Zm1.326-12.073c.994-1.032 1.877-3.303 1.988-5.16.22-2.064 1.435-4.231 3.313-5.676 2.982-2.373 7.952-3.302 6.517-1.238-.332.619.552.413 2.098-.619 4.528-2.683 9.499-2.374 12.591.928 3.203 3.509 3.203 7.74.111 11.558l-2.541 2.993 3.093-1.858c2.982-1.754 3.092-1.754 5.743.723 7.952 7.43-2.319 18.265-11.597 12.28-2.651-1.651-2.651-1.651-1.215 0 1.326 1.548 1.215 2.064-.442 3.818-1.104 1.135-3.203 2.064-4.638 2.064-2.541 0-6.959-3.199-6.959-5.16 0-.619-1.104-1.032-2.54-1.032-7.069 0-10.493-8.462-5.522-13.621ZM116.965 646c.663 0 1.767-1.032 2.43-2.27.773-1.239 2.319-3.199 3.645-4.231 1.325-1.032 1.546-1.548.662-1.135-4.086 1.857-9.167 7.636-6.737 7.636ZM126.684 630.624c2.43-4.541 7.4-7.327 13.474-7.327 4.087 0 5.412.619 9.057 4.025 3.645 3.302 4.308 4.643 4.308 8.255 0 2.374-.773 5.676-1.657 7.327-1.657 2.993-1.657 3.096.552 3.096 1.326 0 2.099-.413 1.767-.929-.331-.516.111-2.27.994-3.818 3.203-5.882 1.657-12.693-4.307-17.853-3.755-3.302-13.143-4.231-18.003-1.754-3.755 1.754-8.063 7.43-8.063 10.526 0 1.341.663.825 1.878-1.548ZM180.914 589.965c7.179 18.678 24.63 26.418 41.75 18.575 6.516-2.889 8.283-1.444 4.418 3.922-5.854 8.049-6.738 19.194-2.32 28.069 1.988 4.231 3.203 5.469 5.081 5.469 2.319 0 2.319-.103.663-1.858-3.535-3.611-6.296-10.938-6.296-16.717 0-6.708 2.982-13.415 8.063-18.369 2.098-2.064 2.761-3.199 1.546-2.683-.994.31-2.651.103-3.645-.619-1.436-1.238-1.325-1.651.994-4.025 3.314-3.405 6.296-7.533 6.296-8.771 0-.516-1.436.929-3.203 3.096-6.738 8.565-12.812 11.764-22.421 11.764-10.824-.103-19.66-5.882-25.072-16.511-3.755-7.534-4.087-20.639-.552-27.966 4.86-9.804 15.573-17.44 24.851-17.44h4.086l.442 5.882c.331 3.302 1.325 7.636 2.43 9.597.994 1.961 1.436 2.683.994 1.548-.331-1.135-.884-5.676-1.215-10.113-.442-7.43-.221-8.565 2.982-14.654 6.958-13.105 22.973-19.916 37.663-15.995 6.737 1.858 7.069 2.27 4.528 7.017-1.215 2.271-2.54 5.986-2.982 8.256-.883 5.572 1.988 14.344 6.185 18.575 2.32 2.477 3.314 4.437 3.314 7.017 0 4.541 2.319 8.669 6.516 12.074 1.767 1.342 2.982 2.786 2.651 3.096-1.325 1.238 1.104 9.184 4.087 13.312l3.203 4.437-2.43 2.374c-1.326 1.341-4.197 3.302-6.296 4.437-3.313 1.548-3.534 1.858-1.436 1.961 1.436 0 2.541.103 2.541.31 0 3.199-4.087 11.248-6.848 13.828-6.848 6.191-14.911 7.946-22.752 4.953-3.645-1.341-3.866-1.341-1.878 0 5.301 3.922 14.69 4.334 21.537 1.135 2.099-.929 3.535-1.135 3.976-.413 1.768 2.684-2.871 16.924-6.185 18.885-1.988 1.135-1.104 2.683 1.326 2.374 1.656-.207 3.534-1.961 5.301-4.954 2.32-3.818 2.761-6.088 2.761-12.59 0-5.882.553-8.358 1.878-9.803 2.651-2.683 4.197-7.017 4.197-11.558 0-2.889.773-4.54 3.314-6.811 2.871-2.58 3.644-2.786 6.074-1.754 4.529 1.961 13.806 1.548 17.782-.722 8.505-4.851 13.144-15.789 10.162-24.045-1.547-4.54-1.547-4.644 1.546-8.049 9.609-10.835 8.836-32.403-1.436-42.516-3.645-3.612-4.087-4.747-4.528-10.629-.332-5.263-.994-7.224-3.093-9.391-4.418-4.334-8.504-5.882-14.689-5.263-4.639.413-6.186 1.135-10.051 4.644-2.43 2.373-6.075 5.469-8.063 6.914-2.209 1.754-3.866 4.024-4.307 6.191-.884 4.438-3.093 6.399-5.302 4.644-.884-.619-1.325-1.857-.994-2.58 1.436-3.611-4.639-12.589-9.609-14.137-.773-.207-.773-1.342.11-3.715.994-2.787.884-4.025-1.104-7.843-3.314-6.295-11.376-8.978-17.672-5.882-1.104.619-3.645.825-5.412.516-6.848-1.239-14.579 5.159-14.579 12.177 0 2.889-.884 5.056-2.761 7.223-5.191 5.779-2.982 14.035 4.528 16.924l3.755 1.445-3.755 5.16c-2.098 2.786-4.418 7.43-5.191 10.216-1.325 4.953-1.436 5.057-4.86 4.541-5.301-.826-14.91 2.27-19.991 6.295-2.43 1.96-6.074 6.398-8.173 10.009-3.092 5.47-3.645 7.637-4.086 15.273-.332 6.811.11 10.113 1.656 14.241Zm37.221-82.246c.994-1.754 2.209-3.096 2.762-3.096.662 0 1.104-1.858 1.104-4.128 0-5.056 4.418-10.01 9.83-11.042 3.424-.619 3.645-.516 2.43 1.548-1.988 3.406-1.436 3.303 2.54-.413 2.872-2.683 4.639-3.508 7.842-3.508 3.203 0 4.97.825 7.842 3.508 5.633 5.263 4.859 12.693-1.547 16.408-1.656.929-2.429 1.755-1.767 1.755.663 0 2.541-.929 4.087-2.167 2.209-1.548 3.424-1.858 4.86-1.032a12.013 12.013 0 0 1 6.516 8.255l.773 3.406-4.86-.826c-9.94-1.857-17.782-1.135-25.513 2.477-8.173 3.715-10.382 4.024-13.917 1.651-4.528-2.993-5.743-7.946-2.982-12.796Zm46.168 24.457c3.424-7.533 9.83-12.383 18.776-14.138l4.639-.928-5.854.309c-5.412.31-5.743.207-5.081-1.857 1.215-3.922 3.756-6.811 6.517-7.43 1.546-.31 2.761-1.239 2.761-1.961 0-2.58 6.185-5.676 11.376-5.676 9.609 0 16.678 7.946 14.469 16.305-.994 3.715-1.215 3.818-5.412 3.509l-4.418-.207 3.313 1.342c4.86 2.167 7.511 5.366 8.284 10.319.773 4.334.773 4.334 1.657 1.239.663-2.271.331-3.922-1.436-6.914-2.982-5.263-.442-5.263 4.197-.104 4.087 4.747 6.627 12.177 6.627 19.814 0 7.017-1.215 11.248-4.97 17.233l-2.872 4.644-4.528-3.715c-2.541-1.961-5.302-3.612-6.185-3.612-.884 0 0 1.032 2.098 2.374 4.639 2.889 8.726 10.113 8.726 15.685-.111 9.804-7.069 17.028-17.23 17.853-8.836.722-15.463-3.405-18.887-11.661-2.54-6.088-1.988-6.914 3.755-6.192 4.418.413 4.86.413 2.541-.619-11.929-4.85-15.684-9.391-15.242-18.265.221-4.128 0-5.057-.884-3.819-1.104 1.342-1.436 1.342-2.872-.309-5.191-5.469-6.958-16.202-3.865-23.219ZM234.262 51.907c1.215 2.167 3.645 4.747 5.412 5.676 2.209 1.135 3.535 2.993 4.308 5.882 2.761 10.113 10.382 15.892 21.758 16.82 9.609.723 17.782-2.785 22.532-9.7 1.767-2.682 3.313-5.675 3.313-6.604 0-.929 1.988-3.302 4.528-5.16 4.86-3.611 7.621-8.462 7.621-13.209s-4.638-11.764-9.388-14.24c-3.424-1.858-4.197-2.89-4.528-6.089-.773-8.565-9.278-15.17-19.218-15.17-2.982.104-6.517.62-7.952 1.342-3.424 1.651-8.615 6.192-9.83 8.668-.884 1.548-.442 1.445 1.436-.516 3.865-4.024 5.964-5.263 10.492-6.295 5.743-1.135 12.26.62 16.567 4.541 3.976 3.509 5.965 9.7 3.645 11.042-.883.516-.331 1.032 1.878 1.445 1.877.412 4.97 2.27 6.958 4.23 2.982 2.89 3.755 4.541 4.087 8.978.552 6.399-1.878 10.94-7.621 14.241-4.197 2.374-13.917 2.787-17.783.826-2.208-1.032-2.319-1.032-.883.516 1.657 1.96 7.842 3.818 12.481 3.818 4.086 0 3.865 1.342-1.105 6.295-7.842 7.946-21.537 8.668-30.594 1.754-4.86-3.818-7.179-8.255-7.29-14.447-.11-2.477-.331-3.509-.662-2.373-.994 3.715-1.988 3.715-5.854 0-2.982-2.89-3.755-4.541-4.197-9.082-.773-8.668 4.307-15.272 12.922-16.82 3.866-.723 5.744-2.477 2.651-2.477-3.093.103-10.603 3.612-13.254 6.295-5.191 5.263-6.185 13.209-2.43 19.813ZM252.153 415.358c3.534 8.462 10.051 14.344 18.887 17.027 5.191 1.548 14.358.929 19.107-1.239 3.977-1.857 3.756-2.063 5.302 5.367 1.988 9.081 9.83 19.4 18.887 24.354 13.143 7.223 30.815 4.334 41.97-6.914 7.4-7.534 7.069-5.057 7.069-44.89-.111-34.261-.221-36.325-2.099-37.976-1.988-1.651-1.988-2.167-.552-5.263 3.645-8.255-.221-22.084-7.29-26.005-2.098-1.135-3.424-2.889-3.865-5.057-1.326-7.12-9.83-12.693-16.899-11.351-2.761.619-2.982.413-2.982-2.477 0-2.476.552-3.199 2.982-3.715 3.866-.722 7.511-5.469 7.511-9.7 0-2.27-.994-4.231-3.203-6.295-1.878-1.651-3.645-3.921-3.977-5.056-.994-2.89-5.853-6.192-9.277-6.192-1.547 0-4.197.722-5.854 1.445-1.878.928-4.528 1.341-6.848.928-3.313-.516-4.418-.103-7.289 2.58-3.424 3.199-4.308 7.43-2.32 10.423.663 1.032.552 2.27-.552 3.612-.884 1.135-1.546 3.199-1.546 4.54 0 2.787 4.638 7.43 7.4 7.43 1.436 0 2.43 1.135 3.092 3.303.884 2.579 2.32 3.921 5.744 5.469 4.417 1.961 4.638 2.27 3.976 5.676-.332 1.96-1.105 3.818-1.767 4.024-2.209.826-9.499 7.533-10.162 9.494-.552 1.445-1.767 1.961-4.859 1.961-8.395 0-20.433 5.263-26.839 11.764-3.866 3.818-8.063 11.145-9.168 16.098-.552 2.374-2.54 4.954-5.853 7.74-8.836 7.224-12.592 19.607-8.726 28.895Zm3.203-17.337c.663-2.167 3.424-6.192 6.075-8.875l4.639-4.747.11 3.096c.111 1.651.773 4.437 1.657 6.192l1.657 3.096-.884-3.612c-3.313-15.067 4.639-29.101 20.433-35.809 5.191-2.27 7.179-2.58 15.242-2.27 5.08.206 9.609.722 9.94 1.135.442.413-.442 2.167-2.098 3.921-1.547 1.755-2.872 4.025-2.872 4.851 0 1.031.884.619 2.43-1.342 3.755-4.437 6.627-6.604 10.051-7.224 1.656-.412 3.313-1.135 3.644-1.651.332-.516-.552-.619-1.988-.309-1.325.309-4.859-.31-7.621-1.239-4.307-1.548-4.97-2.167-4.307-3.921.552-1.135 2.43-3.406 4.197-5.057l3.313-2.889 1.878 2.889c.994 1.651 1.436 2.064.994.929-1.657-4.437-1.767-6.708-.442-10.216 2.43-7.017 10.935-10.526 17.893-7.43 3.203 1.445 7.51 6.191 7.51 8.255 0 .31-2.209.62-4.97.62-4.528 0-11.597 2.27-11.597 3.715 0 .206 1.105 0 2.32-.723 3.755-1.857 13.253-.619 17.34 2.167 4.97 3.509 8.394 10.629 8.284 17.337 0 5.985-1.547 8.462-3.866 6.708-1.546-1.135-8.615-3.509-8.615-2.89 0 .207 1.878 1.342 4.087 2.58 11.486 6.192 15.573 20.02 9.94 33.022-2.651 6.295-4.197 6.811-5.523 2.168-1.435-5.367-2.429-4.335-2.098 2.167.552 7.842-1.325 14.137-6.075 20.639-2.54 3.405-3.092 4.747-1.767 4.127 4.197-2.167 10.272-10.319 10.272-13.931 0-.825.994-2.27 2.319-3.405 2.761-2.374 3.866-1.135 4.97 5.572 3.535 21.981-10.271 41.588-30.373 43.239-3.424.31-8.173 0-10.713-.619-11.045-2.787-20.875-12.59-24.078-23.838-1.436-5.47-1.436-5.779.883-7.74 1.326-1.135 3.203-2.993 3.977-4.128.883-1.135-.111-.619-2.209 1.239-10.493 9.081-27.281 8.565-37.442-1.135-7.29-6.915-9.499-15.377-6.517-24.664Zm47.162-88.954c.662-.31.773-2.786.441-5.573-.552-4.334-.22-5.263 1.988-7.223 2.099-1.858 3.535-2.271 6.848-1.858 2.43.31 5.412-.103 7.29-.929 2.43-1.135 3.866-1.238 6.627-.309 3.645 1.238 6.958 5.056 4.307 5.056-.773.104.221.723 2.209 1.548 6.075 2.477 7.29 9.391 2.32 14.035-1.988 1.857-3.314 2.064-7.511 1.651-4.97-.516-4.97-.516-1.988.929 6.296 3.199 1.988 11.764-5.964 11.764-4.86 0-8.726-3.612-8.726-8.152 0-1.755-.331-2.271-.883-1.342-1.105 1.548-6.296.103-7.179-2.064-.994-2.27-.773-6.914.221-7.533ZM282.085 206.491c3.203 7.843 6.296 12.177 11.928 16.924 5.633 4.747 5.854 5.16 5.965 10.526.331 7.946 2.098 13.312 6.847 19.917 10.051 13.931 27.944 17.956 43.075 9.7 5.854-3.199 7.732-2.27 5.854 2.786-2.43 6.605-.221 15.376 5.302 19.917 2.319 1.961 2.319 1.961 2.319-.103 0-1.135-.994-2.89-2.209-3.922-4.087-3.508-5.633-13.209-2.872-17.956 1.436-2.373 1.215-2.889-1.877-6.501-6.738-7.946-4.75-21.568 3.976-26.727 2.651-1.652 2.872-2.064 1.104-1.652-4.638.929-5.191-8.255-.883-14.137 3.534-4.85 3.534-6.811 0-3.715-3.755 3.302-5.412 8.565-4.529 14.86.553 5.056.442 5.469-3.534 9.494-4.087 4.128-4.087 4.334-3.424 10.835.332 3.612.994 7.327 1.326 8.153 1.104 2.167-6.738 6.81-13.696 8.152-9.388 1.961-18.334-.826-25.403-7.843-5.854-5.676-8.946-12.074-9.609-19.813-.552-6.605-.552-6.605 2.098-5.882 6.738 1.857 10.603 2.58 13.696 2.58 2.43-.104 1.657-.413-2.761-1.445-7.842-1.651-9.499-2.374-15.021-5.779-5.854-3.715-11.929-12.28-14.359-20.02-4.197-14.034 1.215-31.268 12.481-39.317 3.534-2.58 3.866-2.58 5.191-.826.884 1.032 1.326 3.612 1.105 5.986l-.442 4.231 1.988-5.057c2.43-6.088 8.284-12.796 12.812-14.654 1.878-.722 2.761-1.341 1.878-1.444-3.535 0-11.156 4.437-13.475 7.946-2.209 3.302-2.54 3.508-3.645 1.754-.663-1.135-1.215-6.192-1.215-11.248 0-10.733 1.326-13.725 8.946-20.639 10.604-9.701 27.944-10.32 39.32-1.548 7.952 6.192 12.149 19.091 9.499 29.41-.773 2.89-.773 2.89.331.516a96.82 96.82 0 0 1 2.209-4.437c1.546-2.683 0-13.725-2.651-19.607-2.982-6.708-11.486-13.725-18.997-15.789-10.713-2.786-20.543-1.135-29.6 5.16-4.197 2.889-10.382 11.764-11.266 16.305-.883 4.231-2.651 5.056-7.952 3.715-7.511-1.858-10.824-11.765-5.743-17.75 2.098-2.477 2.098-2.786.552-4.953-.994-1.239-1.767-4.128-1.767-6.295 0-5.676 5.191-10.216 11.155-9.907 3.093.207 4.97-.309 6.737-1.857 7.511-6.605 18.556-2.167 18.556 7.43 0 2.373-.553 3.921-1.768 4.334-1.435.516-1.435.722-.22 1.445 2.319 1.444 2.761 1.135 3.976-3.096 1.546-5.779.552-8.875-3.976-12.59-3.424-2.786-4.529-3.199-8.726-2.683-2.982.31-5.964 1.445-7.621 2.889-2.098 1.858-3.755 2.271-7.621 2.064-4.418-.206-5.412.103-8.836 3.303-4.638 4.334-5.191 9.597-1.656 14.86 1.215 1.857 1.767 3.405 1.325 3.405-1.878 0-4.639 6.192-4.639 10.32 0 3.508.663 4.953 3.755 7.842 2.099 1.961 4.529 3.509 5.523 3.509.994 0 1.767.413 1.767 1.032 0 .516-.442 1.032-.994 1.032s-2.098 2.167-3.424 4.747c-2.098 3.818-2.43 5.882-1.877 10.938.441 5.16.11 7.018-2.209 11.971-3.535 7.017-4.639 23.013-2.099 29.204Zm8.284-51.597c1.767-3.199 6.406-7.327 8.173-7.327.221 0 .442 1.961.552 4.334.111 2.374.442 5.057.773 5.985.332.929-1.767 3.406-5.522 6.502l-6.075 4.953v-5.263c0-3.199.884-6.811 2.099-9.184ZM317.098 628.767c1.215 5.16 5.633 10.423 10.382 12.487 1.988.928 3.976 2.476 4.197 3.508.331 1.135.552.826.663-.825.11-2.064-.884-3.096-3.866-4.644-11.045-5.573-12.591-21.465-2.982-29.101 2.319-1.754 2.54-2.167.883-2.064-2.871.31-4.418-5.779-2.871-10.732 1.215-3.922 7.731-10.217 10.492-10.217.884 0 1.878-1.135 2.209-2.476.994-3.715 6.075-8.978 10.272-10.526 4.197-1.651 10.051-1.858 14.137-.413 2.541.929 2.872.826 2.541-.722-.442-2.167-6.627-3.612-11.929-2.786-5.522.825-11.707 5.056-14.248 9.906-1.325 2.58-3.865 5.057-6.406 6.398-7.952 4.231-11.486 13.312-7.841 20.742 1.104 2.168.883 2.993-.994 4.954-4.529 4.644-6.075 10.216-4.639 16.511ZM358.074 589.141c.994 0 2.761.412 3.865.722 1.547.516 1.657.413.773-.516-.773-.722-2.429-1.135-3.865-.826-1.436.207-1.767.516-.773.62ZM360.062 639.188c3.092-.723 3.866-1.239 3.203-1.858-.221-.206-1.657.207-3.203 1.032l-2.761 1.548 2.761-.722Z"/></g><defs><clipPath id="a"><path fill="#fff" transform="rotate(-90 323 323)" d="M0 0h646v363.375H0z"/></clipPath></defs></svg>