<svg viewBox="0 0 200 200" fill="none" xmlns="http://www.w3.org/2000/svg"><path d="M200 0H0v200h200V0Z" fill="#fff"/><path d="M19 13h-6v6h6v-6ZM25 13h-6v6h6v-6ZM31 13h-6v6h6v-6ZM37 13h-6v6h6v-6ZM43 13h-6v6h6v-6ZM49 13h-6v6h6v-6ZM55 13h-6v6h6v-6ZM67 13h-6v6h6v-6ZM73 13h-6v6h6v-6ZM103 13h-6v6h6v-6ZM115 13h-6v6h6v-6ZM121 13h-6v6h6v-6ZM127 13h-6v6h6v-6ZM133 13h-6v6h6v-6ZM139 13h-6v6h6v-6ZM151 13h-6v6h6v-6ZM157 13h-6v6h6v-6ZM163 13h-6v6h6v-6ZM169 13h-6v6h6v-6ZM175 13h-6v6h6v-6ZM181 13h-6v6h6v-6ZM187 13h-6v6h6v-6ZM19 19h-6v6h6v-6ZM55 19h-6v6h6v-6ZM97 19h-6v6h6v-6ZM121 19h-6v6h6v-6ZM127 19h-6v6h6v-6ZM151 19h-6v6h6v-6ZM187 19h-6v6h6v-6ZM19 25h-6v6h6v-6ZM31 25h-6v6h6v-6ZM37 25h-6v6h6v-6ZM43 25h-6v6h6v-6ZM55 25h-6v6h6v-6ZM67 25h-6v6h6v-6ZM85 25h-6v6h6v-6ZM91 25h-6v6h6v-6ZM97 25h-6v6h6v-6ZM103 25h-6v6h6v-6ZM127 25h-6v6h6v-6ZM139 25h-6v6h6v-6ZM151 25h-6v6h6v-6ZM163 25h-6v6h6v-6ZM169 25h-6v6h6v-6ZM175 25h-6v6h6v-6ZM187 25h-6v6h6v-6ZM19 31h-6v6h6v-6ZM31 31h-6v6h6v-6ZM37 31h-6v6h6v-6ZM43 31h-6v6h6v-6ZM55 31h-6v6h6v-6ZM67 31h-6v6h6v-6ZM73 31h-6v6h6v-6ZM85 31h-6v6h6v-6ZM97 31h-6v6h6v-6ZM109 31h-6v6h6v-6ZM115 31h-6v6h6v-6ZM121 31h-6v6h6v-6ZM127 31h-6v6h6v-6ZM133 31h-6v6h6v-6ZM151 31h-6v6h6v-6ZM163 31h-6v6h6v-6ZM169 31h-6v6h6v-6ZM175 31h-6v6h6v-6ZM187 31h-6v6h6v-6ZM19 37h-6v6h6v-6ZM31 37h-6v6h6v-6ZM37 37h-6v6h6v-6ZM43 37h-6v6h6v-6ZM55 37h-6v6h6v-6ZM67 37h-6v6h6v-6ZM73 37h-6v6h6v-6ZM79 37h-6v6h6v-6ZM85 37h-6v6h6v-6ZM97 37h-6v6h6v-6ZM109 37h-6v6h6v-6ZM133 37h-6v6h6v-6ZM151 37h-6v6h6v-6ZM163 37h-6v6h6v-6ZM169 37h-6v6h6v-6ZM175 37h-6v6h6v-6ZM187 37h-6v6h6v-6ZM19 43h-6v6h6v-6ZM55 43h-6v6h6v-6ZM73 43h-6v6h6v-6ZM91 43h-6v6h6v-6ZM97 43h-6v6h6v-6ZM121 43h-6v6h6v-6ZM127 43h-6v6h6v-6ZM133 43h-6v6h6v-6ZM139 43h-6v6h6v-6ZM151 43h-6v6h6v-6ZM187 43h-6v6h6v-6ZM19 49h-6v6h6v-6ZM25 49h-6v6h6v-6ZM31 49h-6v6h6v-6ZM37 49h-6v6h6v-6ZM43 49h-6v6h6v-6ZM49 49h-6v6h6v-6ZM55 49h-6v6h6v-6ZM67 49h-6v6h6v-6ZM79 49h-6v6h6v-6ZM91 49h-6v6h6v-6ZM103 49h-6v6h6v-6ZM115 49h-6v6h6v-6ZM127 49h-6v6h6v-6ZM139 49h-6v6h6v-6ZM151 49h-6v6h6v-6ZM157 49h-6v6h6v-6ZM163 49h-6v6h6v-6ZM169 49h-6v6h6v-6ZM175 49h-6v6h6v-6ZM181 49h-6v6h6v-6ZM187 49h-6v6h6v-6ZM73 55h-6v6h6v-6ZM85 55h-6v6h6v-6ZM109 55h-6v6h6v-6ZM115 55h-6v6h6v-6ZM121 55h-6v6h6v-6ZM127 55h-6v6h6v-6ZM133 55h-6v6h6v-6ZM139 55h-6v6h6v-6ZM19 61h-6v6h6v-6ZM25 61h-6v6h6v-6ZM31 61h-6v6h6v-6ZM37 61h-6v6h6v-6ZM55 61h-6v6h6v-6ZM67 61h-6v6h6v-6ZM97 61h-6v6h6v-6ZM103 61h-6v6h6v-6ZM121 61h-6v6h6v-6ZM127 61h-6v6h6v-6ZM133 61h-6v6h6v-6ZM145 61h-6v6h6v-6ZM163 61h-6v6h6v-6ZM169 61h-6v6h6v-6ZM175 61h-6v6h6v-6ZM187 61h-6v6h6v-6ZM31 67h-6v6h6v-6ZM43 67h-6v6h6v-6ZM49 67h-6v6h6v-6ZM61 67h-6v6h6v-6ZM73 67h-6v6h6v-6ZM103 67h-6v6h6v-6ZM115 67h-6v6h6v-6ZM133 67h-6v6h6v-6ZM139 67h-6v6h6v-6ZM151 67h-6v6h6v-6ZM157 67h-6v6h6v-6ZM163 67h-6v6h6v-6ZM187 67h-6v6h6v-6ZM19 73h-6v6h6v-6ZM25 73h-6v6h6v-6ZM31 73h-6v6h6v-6ZM37 73h-6v6h6v-6ZM43 73h-6v6h6v-6ZM55 73h-6v6h6v-6ZM67 73h-6v6h6v-6ZM97 73h-6v6h6v-6ZM115 73h-6v6h6v-6ZM127 73h-6v6h6v-6ZM139 73h-6v6h6v-6ZM151 73h-6v6h6v-6ZM157 73h-6v6h6v-6ZM163 73h-6v6h6v-6ZM175 73h-6v6h6v-6ZM181 73h-6v6h6v-6ZM25 79h-6v6h6v-6ZM37 79h-6v6h6v-6ZM43 79h-6v6h6v-6ZM61 79h-6v6h6v-6ZM85 79h-6v6h6v-6ZM91 79h-6v6h6v-6ZM97 79h-6v6h6v-6ZM103 79h-6v6h6v-6ZM115 79h-6v6h6v-6ZM127 79h-6v6h6v-6ZM139 79h-6v6h6v-6ZM145 79h-6v6h6v-6ZM151 79h-6v6h6v-6ZM157 79h-6v6h6v-6ZM163 79h-6v6h6v-6ZM187 79h-6v6h6v-6ZM25 85h-6v6h6v-6ZM31 85h-6v6h6v-6ZM37 85h-6v6h6v-6ZM49 85h-6v6h6v-6ZM55 85h-6v6h6v-6ZM73 85h-6v6h6v-6ZM85 85h-6v6h6v-6ZM97 85h-6v6h6v-6ZM103 85h-6v6h6v-6ZM109 85h-6v6h6v-6ZM115 85h-6v6h6v-6ZM121 85h-6v6h6v-6ZM133 85h-6v6h6v-6ZM169 85h-6v6h6v-6ZM175 85h-6v6h6v-6ZM19 91h-6v6h6v-6ZM25 91h-6v6h6v-6ZM37 91h-6v6h6v-6ZM43 91h-6v6h6v-6ZM49 91h-6v6h6v-6ZM67 91h-6v6h6v-6ZM79 91h-6v6h6v-6ZM85 91h-6v6h6v-6ZM103 91h-6v6h6v-6ZM115 91h-6v6h6v-6ZM121 91h-6v6h6v-6ZM133 91h-6v6h6v-6ZM139 91h-6v6h6v-6ZM151 91h-6v6h6v-6ZM157 91h-6v6h6v-6ZM175 91h-6v6h6v-6ZM181 91h-6v6h6v-6ZM187 91h-6v6h6v-6ZM19 97h-6v6h6v-6ZM31 97h-6v6h6v-6ZM43 97h-6v6h6v-6ZM49 97h-6v6h6v-6ZM55 97h-6v6h6v-6ZM73 97h-6v6h6v-6ZM79 97h-6v6h6v-6ZM91 97h-6v6h6v-6ZM103 97h-6v6h6v-6ZM115 97h-6v6h6v-6ZM133 97h-6v6h6v-6ZM139 97h-6v6h6v-6ZM145 97h-6v6h6v-6ZM157 97h-6v6h6v-6ZM163 97h-6v6h6v-6ZM175 97h-6v6h6v-6ZM181 97h-6v6h6v-6ZM187 97h-6v6h6v-6ZM19 103h-6v6h6v-6ZM25 103h-6v6h6v-6ZM37 103h-6v6h6v-6ZM43 103h-6v6h6v-6ZM67 103h-6v6h6v-6ZM91 103h-6v6h6v-6ZM103 103h-6v6h6v-6ZM109 103h-6v6h6v-6ZM115 103h-6v6h6v-6ZM139 103h-6v6h6v-6ZM151 103h-6v6h6v-6ZM157 103h-6v6h6v-6ZM163 103h-6v6h6v-6ZM181 103h-6v6h6v-6ZM19 109h-6v6h6v-6ZM31 109h-6v6h6v-6ZM37 109h-6v6h6v-6ZM43 109h-6v6h6v-6ZM55 109h-6v6h6v-6ZM79 109h-6v6h6v-6ZM85 109h-6v6h6v-6ZM127 109h-6v6h6v-6ZM139 109h-6v6h6v-6ZM145 109h-6v6h6v-6ZM163 109h-6v6h6v-6ZM169 109h-6v6h6v-6ZM181 109h-6v6h6v-6ZM25 115h-6v6h6v-6ZM31 115h-6v6h6v-6ZM43 115h-6v6h6v-6ZM61 115h-6v6h6v-6ZM67 115h-6v6h6v-6ZM73 115h-6v6h6v-6ZM91 115h-6v6h6v-6ZM103 115h-6v6h6v-6ZM109 115h-6v6h6v-6ZM127 115h-6v6h6v-6ZM139 115h-6v6h6v-6ZM145 115h-6v6h6v-6ZM157 115h-6v6h6v-6ZM169 115h-6v6h6v-6ZM175 115h-6v6h6v-6ZM181 115h-6v6h6v-6ZM19 121h-6v6h6v-6ZM37 121h-6v6h6v-6ZM55 121h-6v6h6v-6ZM67 121h-6v6h6v-6ZM73 121h-6v6h6v-6ZM79 121h-6v6h6v-6ZM85 121h-6v6h6v-6ZM91 121h-6v6h6v-6ZM109 121h-6v6h6v-6ZM115 121h-6v6h6v-6ZM157 121h-6v6h6v-6ZM175 121h-6v6h6v-6ZM31 127h-6v6h6v-6ZM37 127h-6v6h6v-6ZM43 127h-6v6h6v-6ZM49 127h-6v6h6v-6ZM91 127h-6v6h6v-6ZM103 127h-6v6h6v-6ZM115 127h-6v6h6v-6ZM121 127h-6v6h6v-6ZM133 127h-6v6h6v-6ZM139 127h-6v6h6v-6ZM145 127h-6v6h6v-6ZM175 127h-6v6h6v-6ZM25 133h-6v6h6v-6ZM37 133h-6v6h6v-6ZM55 133h-6v6h6v-6ZM61 133h-6v6h6v-6ZM67 133h-6v6h6v-6ZM73 133h-6v6h6v-6ZM79 133h-6v6h6v-6ZM85 133h-6v6h6v-6ZM91 133h-6v6h6v-6ZM103 133h-6v6h6v-6ZM109 133h-6v6h6v-6ZM121 133h-6v6h6v-6ZM127 133h-6v6h6v-6ZM133 133h-6v6h6v-6ZM139 133h-6v6h6v-6ZM145 133h-6v6h6v-6ZM151 133h-6v6h6v-6ZM157 133h-6v6h6v-6ZM163 133h-6v6h6v-6ZM169 133h-6v6h6v-6ZM175 133h-6v6h6v-6ZM67 139h-6v6h6v-6ZM73 139h-6v6h6v-6ZM79 139h-6v6h6v-6ZM91 139h-6v6h6v-6ZM127 139h-6v6h6v-6ZM139 139h-6v6h6v-6ZM163 139h-6v6h6v-6ZM169 139h-6v6h6v-6ZM175 139h-6v6h6v-6ZM181 139h-6v6h6v-6ZM187 139h-6v6h6v-6ZM19 145h-6v6h6v-6ZM25 145h-6v6h6v-6ZM31 145h-6v6h6v-6ZM37 145h-6v6h6v-6ZM43 145h-6v6h6v-6ZM49 145h-6v6h6v-6ZM55 145h-6v6h6v-6ZM73 145h-6v6h6v-6ZM79 145h-6v6h6v-6ZM85 145h-6v6h6v-6ZM91 145h-6v6h6v-6ZM97 145h-6v6h6v-6ZM103 145h-6v6h6v-6ZM133 145h-6v6h6v-6ZM139 145h-6v6h6v-6ZM151 145h-6v6h6v-6ZM163 145h-6v6h6v-6ZM169 145h-6v6h6v-6ZM181 145h-6v6h6v-6ZM19 151h-6v6h6v-6ZM55 151h-6v6h6v-6ZM73 151h-6v6h6v-6ZM97 151h-6v6h6v-6ZM103 151h-6v6h6v-6ZM109 151h-6v6h6v-6ZM127 151h-6v6h6v-6ZM139 151h-6v6h6v-6ZM163 151h-6v6h6v-6ZM169 151h-6v6h6v-6ZM181 151h-6v6h6v-6ZM19 157h-6v6h6v-6ZM31 157h-6v6h6v-6ZM37 157h-6v6h6v-6ZM43 157h-6v6h6v-6ZM55 157h-6v6h6v-6ZM79 157h-6v6h6v-6ZM91 157h-6v6h6v-6ZM103 157h-6v6h6v-6ZM109 157h-6v6h6v-6ZM115 157h-6v6h6v-6ZM121 157h-6v6h6v-6ZM139 157h-6v6h6v-6ZM145 157h-6v6h6v-6ZM151 157h-6v6h6v-6ZM157 157h-6v6h6v-6ZM163 157h-6v6h6v-6ZM175 157h-6v6h6v-6ZM181 157h-6v6h6v-6ZM187 157h-6v6h6v-6ZM19 163h-6v6h6v-6ZM31 163h-6v6h6v-6ZM37 163h-6v6h6v-6ZM43 163h-6v6h6v-6ZM55 163h-6v6h6v-6ZM67 163h-6v6h6v-6ZM85 163h-6v6h6v-6ZM91 163h-6v6h6v-6ZM109 163h-6v6h6v-6ZM115 163h-6v6h6v-6ZM133 163h-6v6h6v-6ZM139 163h-6v6h6v-6ZM145 163h-6v6h6v-6ZM163 163h-6v6h6v-6ZM169 163h-6v6h6v-6ZM187 163h-6v6h6v-6ZM19 169h-6v6h6v-6ZM31 169h-6v6h6v-6ZM37 169h-6v6h6v-6ZM43 169h-6v6h6v-6ZM55 169h-6v6h6v-6ZM67 169h-6v6h6v-6ZM79 169h-6v6h6v-6ZM85 169h-6v6h6v-6ZM97 169h-6v6h6v-6ZM145 169h-6v6h6v-6ZM157 169h-6v6h6v-6ZM175 169h-6v6h6v-6ZM187 169h-6v6h6v-6ZM19 175h-6v6h6v-6ZM55 175h-6v6h6v-6ZM67 175h-6v6h6v-6ZM85 175h-6v6h6v-6ZM103 175h-6v6h6v-6ZM115 175h-6v6h6v-6ZM127 175h-6v6h6v-6ZM133 175h-6v6h6v-6ZM139 175h-6v6h6v-6ZM157 175h-6v6h6v-6ZM169 175h-6v6h6v-6ZM181 175h-6v6h6v-6ZM19 181h-6v6h6v-6ZM25 181h-6v6h6v-6ZM31 181h-6v6h6v-6ZM37 181h-6v6h6v-6ZM43 181h-6v6h6v-6ZM49 181h-6v6h6v-6ZM55 181h-6v6h6v-6ZM67 181h-6v6h6v-6ZM103 181h-6v6h6v-6ZM109 181h-6v6h6v-6ZM115 181h-6v6h6v-6ZM133 181h-6v6h6v-6ZM139 181h-6v6h6v-6ZM169 181h-6v6h6v-6ZM181 181h-6v6h6v-6Z" fill="#000"/></svg>