<svg xmlns="http://www.w3.org/2000/svg" width="100%" height="100%" viewBox="0 0 529 529" fill="none"><g clip-path="url(#A)"><path d="M273.496 448.632c20.424 42.233 111.961-54.663 126.902-66.654l94.149-75.65c11.789-9.469 35.759-22.541 34.397-41.085-1.34-18.15-17.88-27.652-30.343-37.65l-99.745-80.166-68.231-54.82c-6.913-5.551-20.041-21.392-29.724-22.507-45.768-5.292-32.561 56.363-31.345 89.532-14.198 15.684-186.002-21.606-208.779-24.804-10.921-1.531-43.899-11.664-52.794 1.138-12.227 17.598-6.778 45.768-6.778 65.562v123.67c0 20.526-5.461 48.415 8.062 66.305 9.75 12.892 35.151 4.966 47.57 3.22l130.089-18.262 81.921-11.495c-.495.056-1.002 71.979 4.65 83.666zm49.113-31.773l-5.664 4.549c-36.051 28.969-33.417 2.702-31.266-27.022.563.461 1.069 1.036 1.644 1.396l33.664 20.458c.485.281 1.081.394 1.622.619zm115.248-94.746c.496.372 1.093.541 1.633.833l-6.294 5.056c-.383-.27-.597-.631-1.047-.867l-33.631-18.454-201.257-132.892 10.234 1.441 18.837 8.951c69.03 40.781 137.226 82.913 202.642 129.334l8.883 6.598zM313.736 129.841l34.803 12.34c5.866 2.083 14.895 6.44 20.142 9.773 12.059 7.667 24.14 15.639 36.153 23.756l19.906 15.988-85.614-45.644-26.189-14.468c-5.427-2.984-5.067-3.783.799-1.745zm-28.643 12.734c.777.698 1.531 1.463 2.376 1.948l218.056 123.58c.124.068.259.09.383.158-1.329 1.902-3.265 3.929-5.99 6.125l-45.397 36.468c-.439-.45-.721-.957-1.272-1.362l-24.151-17.452c-52.051-38.304-105.183-75.222-160.916-107.086 6.969-.878 12.858-4.436 16.934-13.804.698-1.598.844-3.388.653-5.212 0-.046.011-.068.011-.113 0-3.254-.529-12.441-.687-23.25zM82.485 159.689l191.417 101.276 61.092 34.971 52.648 30.546 22.676 13.657 4.255 2.837-20.975 16.855c-.417-.349-.653-.777-1.16-1.092L63.581 157.054l18.904 2.635zm265.671 195.796l-121.363-71.844-135.042-85.536c-5.269-3.299-5.281-3.322.023-.068l256.562 157.156c5.292 3.276 5.213 3.4-.18.292zM20.863 155.793c.237-.383.45-.833.698-1.171l34.588 21.505c5.292 3.276 5.281 3.299-.056.101l-35.23-20.435zm38.709 89.454l-40.184-20.041c-.901-.439-1.7-.518-2.545-.676l-.867-14.738c.732.788 1.452 1.644 2.241 2.263l42.289 31.661c4.999 3.715 4.605 4.357-.934 1.531zm-40.859 53.042c-.507-.327-.946-.349-1.43-.574v-50.047c.698.518 1.351 1.137 2.105 1.497 64.785 31.413 128.107 65.9 190.933 101.423l-84.488 11.867c-36.187-20.751-72.048-41.896-107.12-64.166zm46.962 72.61l-7.003.98c-5.754.81-11.327 2.094-16.438 3.062l-23.509-14.896c-.484-.304-.901-.394-1.362-.63-.011-.507-.067-.935-.067-1.453v-14.603c.608.473 1.171 1.059 1.79 1.408l46.59 26.132zm220.837-.146c-.574-16.979-5.213-30.118-22.845-27.641l-18.848 2.645c-77.643-49.225-153.203-101.76-226.59-157.087-.968-.732-1.846-1.07-2.725-1.374.068-3.918.236-7.712.54-11.327.98.867 1.993 1.712 3.074 2.331 84.534 46.703 163.922 103.19 246.801 152.64l93.451 54.517c.484.27 1.081.36 1.599.574l-20.064 16.124c-.394-.304-.619-.687-1.092-.958l-52.333-30.095c-.349-.214-.63-.203-.968-.349z" fill="#444"/></g><defs><clipPath id="A"><path fill="#fff" transform="matrix(0 -1 1 0 0 529)" d="M0 0h529v529H0z"/></clipPath></defs></svg>