<svg xmlns="http://www.w3.org/2000/svg" width="100%" height="100%" viewBox="0 0 188 149" fill="none"><style><![CDATA[.B{fill:#444}.C{fill-rule:evenodd}.D{fill:#f0f0f0}]]></style><path d="M134.927 55.429c3.772 4.033 48.539-9.463 48.539-9.463S141.653 63.37 140.791 71.57s37.267 32.935 37.267 32.935-39.113-24.051-44.249-18.848 13.376 35.65 13.376 35.65-21.261-28.321-28.877-24.983-.126 51.705-.126 51.705-14.431-45.632-20.568-45.836-12.547 34.111-12.547 34.111-1.078-29.176-6.572-31.713-44.156 41.027-44.156 41.027 28.83-45.184 25.945-50.509-54.373 5.921-54.373 5.921 51.815-18.05 52.628-24.114S15.95 43.714 15.95 43.714s52.507 19.748 56.396 14.435-11.513-29.473-11.513-29.473S83.765 49.851 89.7 46.175s-.206-44.117-.206-44.117 15.649 45.047 23.759 45.247S152.147.004 152.147.004s-20.993 51.392-17.221 55.425h.001z" class="B"/><path d="M133.575 55.425c3.773 4.033 48.54-9.463 48.54-9.463s-41.814 17.404-42.675 25.604 37.267 32.935 37.267 32.935-39.114-24.051-44.249-18.848 13.376 35.65 13.376 35.65-21.261-28.321-28.878-24.983-.126 51.705-.126 51.705-14.43-45.632-20.567-45.836S83.716 136.3 83.716 136.3s-1.078-29.176-6.572-31.713-44.156 41.027-44.156 41.027 28.83-45.184 25.945-50.509-54.373 5.921-54.373 5.921 51.815-18.05 52.628-24.114S14.599 43.71 14.599 43.71s52.508 19.748 56.396 14.435-11.513-29.473-11.513-29.473 22.932 21.175 28.866 17.499-.206-44.117-.206-44.117 15.65 45.047 23.76 45.247S150.795 0 150.795 0s-20.993 51.392-17.22 55.425h0z" fill="#df7d7d"/><path d="M120.64 36.091l-1.478.059c-1.498.103-2.952.33-4.351.645a33.46 33.46 0 0 0-4.009 1.178 37.88 37.88 0 0 0-4.033 1.728 38.3 38.3 0 0 0-3.479 1.965l-2.664 1.859-1.203-1.156c-1.042-.912-2.258-1.763-3.642-2.457a16.86 16.86 0 0 0-4.27-1.472c-1.534-.305-3.161-.397-4.802-.195l-.191.025a14.06 14.06 0 0 0-3.151.825c-.997.387-1.932.877-2.787 1.443-.976.645-1.849 1.389-2.602 2.192a13.95 13.95 0 0 0-1.898 2.548l-.381.709-1.129-1.053a20.65 20.65 0 0 0-3.778-2.595 20.07 20.07 0 0 0-2.316-1.053 19.27 19.27 0 0 0-2.577-.781 19.35 19.35 0 0 0-3.25-.452 19.17 19.17 0 0 0-3.438.124c-1.076.137-2.16.371-3.228.712a16.93 16.93 0 0 0-3.126 1.352l-.232.134c-.958.559-1.847 1.211-2.651 1.935a16.17 16.17 0 0 0-2.15 2.36c-.698.938-1.279 1.937-1.733 2.965a14.27 14.27 0 0 0-.978 3.134c-.164.875-.239 1.745-.239 2.592a14.42 14.42 0 0 0 .212 2.461 14.44 14.44 0 0 0 .684 2.543 13.98 13.98 0 0 0 1.035 2.199c.486.833 1.032 1.564 1.591 2.197.363.411.731.78 1.097 1.112-.314.191-.755.484-1.283.909-.544.437-1.178 1.013-1.829 1.757a14.92 14.92 0 0 0-1.912 2.75 14.96 14.96 0 0 0-.766 1.658 15.29 15.29 0 0 0-.596 1.876c-.163.659-.288 1.349-.364 2.064s-.104 1.456-.074 2.212c.05 1.251.261 2.543.65 3.822s.955 2.543 1.705 3.727l.056.087a15.28 15.28 0 0 0 2.703 3.153c1.012.899 2.112 1.637 3.242 2.207 1.231.622 2.499 1.045 3.726 1.285a13.19 13.19 0 0 0 3.289.23l-.065.595-.098 2.177c.009 1.398.143 2.927.486 4.532.171.803.392 1.625.674 2.454a20.87 20.87 0 0 0 1.033 2.5 21.98 21.98 0 0 0 2.298 3.684c.915 1.19 1.981 2.331 3.182 3.381 1.083.948 2.276 1.824 3.566 2.602a25.43 25.43 0 0 0 4.139 2.009c1.926.728 3.979 1.24 6.099 1.523l2.683.236c1.55.065 3.081.01 4.576-.147a32.35 32.35 0 0 0 4.356-.761c1.588-.388 3.117-.886 4.549-1.493a24.29 24.29 0 0 0 3.986-2.131 20.84 20.84 0 0 0 2.001-1.511 19.49 19.49 0 0 0 1.725-1.664 17.99 17.99 0 0 0 1.616-2.043l.457.501c.711.752 1.578 1.563 2.62 2.367a22.88 22.88 0 0 0 3.298 2.119c1.247.658 2.644 1.246 4.176 1.69a22.29 22.29 0 0 0 4.8.84 21.76 21.76 0 0 0 5.278-.299 21.19 21.19 0 0 0 4.759-1.46c1.558-.686 3.066-1.578 4.455-2.674l.063-.048a20.1 20.1 0 0 0 3.588-3.706c1.01-1.355 1.826-2.808 2.434-4.3a19.06 19.06 0 0 0 1.293-5.128 18.52 18.52 0 0 0-.112-4.88l-.099-.563c1.029-.459 2.066-.999 3.092-1.628 1.055-.646 2.097-1.385 3.106-2.219s1.983-1.766 2.898-2.792c.834-.936 1.616-1.951 2.326-3.042s1.347-2.256 1.888-3.485c.623-1.416 1.118-2.92 1.443-4.48.211-1.012.345-2.029.403-3.044.066-1.149.031-2.289-.092-3.405s-.334-2.207-.62-3.26a21.69 21.69 0 0 0-1.072-3.037c-.424-.968-.912-1.888-1.451-2.751-.646-1.036-1.364-1.991-2.126-2.862s-1.57-1.66-2.401-2.367-1.685-1.333-2.541-1.881a23.3 23.3 0 0 0-2.56-1.423 23.5 23.5 0 0 0-2.631-1.06c-.85-.285-1.667-.505-2.439-.675l-.388-.083c-.016-.416-.054-.846-.117-1.283-.091-.621-.23-1.258-.425-1.903a13.92 13.92 0 0 0-.755-1.948 14.46 14.46 0 0 0-1.107-1.925c-.428-.63-.917-1.244-1.464-1.826-.92-.979-2.001-1.871-3.217-2.636a18.26 18.26 0 0 0-4.005-1.876c-1.72-.567-3.563-.899-5.457-1l-1.497-.032h0zm.009.538l1.463.032c1.851.098 3.648.417 5.322.964a18.01 18.01 0 0 1 3.898 1.807c1.185.736 2.239 1.593 3.136 2.535.534.56 1.012 1.151 1.433 1.757a14.42 14.42 0 0 1 1.094 1.854c.307.626.558 1.255.756 1.878a12.82 12.82 0 0 1 .44 1.839l.129 1.152-1.414-.218-1.846-.155-1.478-.015-1.082.056-.662.069c-.149.021-.226.038-.225.047s.078.012.228.011l.664-.015h1.077l1.466.065 1.823.202 1.466.26.361.079.309.072c.759.182 1.562.412 2.395.705a23.64 23.64 0 0 1 2.576 1.08c.826.406 1.664.879 2.499 1.426a23.35 23.35 0 0 1 2.476 1.87c.809.7 1.595 1.478 2.336 2.337s1.438 1.796 2.063 2.812a21.14 21.14 0 0 1 1.404 2.694c.411.947.761 1.941 1.037 2.97.552 2.058.811 4.26.682 6.497-.057.987-.191 1.98-.397 2.966-.317 1.521-.797 2.99-1.404 4.374-.527 1.203-1.147 2.343-1.839 3.413a25.2 25.2 0 0 1-2.269 2.99 26.34 26.34 0 0 1-2.831 2.751 26.82 26.82 0 0 1-3.037 2.197 26.77 26.77 0 0 1-2.938 1.584c-.265-1.207-.645-2.333-1.095-3.359a18.61 18.61 0 0 0-1.969-3.438 18.42 18.42 0 0 0-2.358-2.678 17.37 17.37 0 0 0-2.083-1.67c-.603-.41-1.094-.687-1.431-.863s-.521-.253-.529-.239.16.119.48.321l1.373.932a18.9 18.9 0 0 1 2.004 1.712c.735.723 1.519 1.611 2.266 2.683a18.72 18.72 0 0 1 1.879 3.4c.439 1.037.805 2.171 1.052 3.386l.084.442.072.449a18.27 18.27 0 0 1 .073 4.755 18.74 18.74 0 0 1-1.286 4.989c-.596 1.449-1.395 2.86-2.381 4.177s-2.162 2.539-3.498 3.602l-.06.049c-1.352 1.066-2.82 1.935-4.338 2.608s-3.083 1.149-4.637 1.438a21.52 21.52 0 0 1-5.154.321 22.3 22.3 0 0 1-4.708-.786 22.24 22.24 0 0 1-4.114-1.613c-1.234-.63-2.325-1.329-3.275-2.036a23.34 23.34 0 0 1-2.636-2.281l-.505-.526.801-1.35a16.65 16.65 0 0 0 1.031-2.394c.269-.785.467-1.552.611-2.286s.235-1.434.286-2.093.063-1.275.049-1.843c-.018-.743-.078-1.403-.153-1.972l-.25-1.431-.22-.87c-.058-.194-.096-.293-.106-.291s.009.107.043.306l.16.878.19 1.429c.056.566.096 1.22.096 1.954l-.089 1.814a18.21 18.21 0 0 1-.318 2.054c-.154.719-.359 1.467-.633 2.233a16.51 16.51 0 0 1-1.04 2.326l-.741 1.228-.137.202c-.484.704-1.036 1.397-1.658 2.064-.52.557-1.088 1.097-1.7 1.613s-1.27 1.006-1.967 1.464c-1.197.786-2.51 1.477-3.919 2.065a29.93 29.93 0 0 1-4.477 1.451 32.43 32.43 0 0 1-4.29.736 31.08 31.08 0 0 1-4.498.138l-2.634-.232a27.28 27.28 0 0 1-5.983-1.488 25.11 25.11 0 0 1-4.058-1.959c-1.266-.758-2.437-1.613-3.502-2.536-1.18-1.024-2.229-2.135-3.133-3.294s-1.663-2.369-2.276-3.59c-.408-.812-.749-1.629-1.033-2.439a21.49 21.49 0 0 1-.687-2.399 22.27 22.27 0 0 1-.536-4.451l.062-2.148.059-.64a12.32 12.32 0 0 0 1.767-.277 12.51 12.51 0 0 0 1.599-.486 12.5 12.5 0 0 0 1.332-.593 12.1 12.1 0 0 0 1.06-.618l.798-.571.549-.465.317-.311c.068-.074.098-.117.091-.124s-.05.02-.131.079l-.353.264a14.62 14.62 0 0 1-1.393.934c-.625.368-1.419.767-2.382 1.099-.482.166-1.005.315-1.567.432-.516.107-1.065.185-1.641.225l-.287.016c-1.021.047-2.118-.031-3.252-.269-1.183-.248-2.404-.67-3.588-1.28a14.96 14.96 0 0 1-3.119-2.152c-.974-.872-1.863-1.895-2.604-3.049l-.054-.084c-.723-1.142-1.273-2.361-1.653-3.595a15 15 0 0 1-.648-3.689 14.84 14.84 0 0 1 .052-2.14 15.26 15.26 0 0 1 .329-2.006c.15-.641.337-1.254.551-1.831a14.99 14.99 0 0 1 .717-1.626c.552-1.075 1.183-1.982 1.799-2.73s1.216-1.337 1.73-1.794l1.23-.998.499.427a13.95 13.95 0 0 0 1.752 1.216 13.03 13.03 0 0 0 1.408.716l.916.349c.211.068.323.093.328.081s-.099-.063-.301-.153l-.878-.413-1.357-.766c-.517-.328-1.09-.738-1.685-1.248l-.438-.395-.061-.056a14.35 14.35 0 0 1-1.114-1.172 13.87 13.87 0 0 1-1.512-2.167c-.37-.657-.7-1.376-.974-2.15s-.492-1.603-.633-2.474a14.2 14.2 0 0 1-.183-2.385c.009-.819.086-1.659.25-2.501a13.84 13.84 0 0 1 .962-3.019 15.07 15.07 0 0 1 1.686-2.857c.608-.812 1.306-1.579 2.085-2.278a15.64 15.64 0 0 1 2.563-1.87l.225-.129a16.45 16.45 0 0 1 3.025-1.312 17.87 17.87 0 0 1 3.134-.701 18.81 18.81 0 0 1 3.344-.136 19.12 19.12 0 0 1 3.168.422c1.755.385 3.366 1.007 4.794 1.749a20.74 20.74 0 0 1 3.738 2.493l1.213 1.099.339.339 1.266 1.423a20.85 20.85 0 0 1 1.74 2.493l.912 1.697.222.45c.051.101.08.153.089.149s0-.061-.038-.17l-.173-.475c-.164-.413-.426-1.014-.83-1.755a19.25 19.25 0 0 0-1.685-2.575c-.392-.507-.839-1.035-1.344-1.567l.447-.816c.504-.847 1.126-1.673 1.859-2.443s1.58-1.482 2.525-2.1c.828-.541 1.731-1.01 2.693-1.381a13.64 13.64 0 0 1 3.034-.789l.185-.024c1.579-.197 3.149-.111 4.634.178s2.885.783 4.147 1.403c1.348.663 2.54 1.478 3.568 2.353l1.157 1.077.257.265 1.191 1.389a18.54 18.54 0 0 1 1.807 2.834 18.55 18.55 0 0 1 1.013 2.341l.482 1.549.116.41c.028.092.047.138.056.136s.009-.052 0-.148l-.06-.422c-.064-.369-.18-.911-.386-1.592s-.503-1.503-.941-2.414-1.016-1.912-1.774-2.931c-.347-.468-.733-.941-1.159-1.408l2.631-1.775c1.06-.656 2.215-1.301 3.46-1.907s2.579-1.172 3.994-1.673a33.82 33.82 0 0 1 3.956-1.141 28.58 28.58 0 0 1 4.274-.621l1.446-.056-.001-.003z" class="B C"/><path d="M80.175 118.634c-6.456-.702-11.897-3.354-16.112-7.853-3.897-4.159-5.843-9.152-5.824-14.948.009-1.45.06-2.175.171-2.243.09-.056.495-.145.899-.197.842-.109 2.144-.493 3.146-.926.801-.347 2.596-1.482 2.758-1.744.061-.099-.194.031-.568.288-.912.627-2.812 1.503-3.956 1.823-1.459.408-5.14.37-6.633-.069-5.222-1.535-9.081-5.514-10.459-10.785-.37-1.415-.509-4.359-.276-5.841.578-3.678 2.494-7.112 5.228-9.371l.987-.816 1.093.785c1.005.721 2.579 1.615 2.846 1.615.062 0-.405-.292-1.036-.649-3.608-2.039-6.177-5.705-6.9-9.846-.306-1.752-.203-4.333.234-5.86.719-2.514 2.461-5.39 4.259-7.034 2.312-2.113 4.866-3.409 8.074-4.098 1.49-.32 5.292-.369 6.814-.088 5.678 1.048 10.92 4.685 13.845 9.605.34.572.642 1.04.67 1.04s-.12-.339-.33-.753c-.497-.982-1.578-2.565-2.407-3.526-.363-.421-.66-.814-.66-.874s.267-.523.593-1.028c2.177-3.376 5.54-5.624 9.549-6.381 1.586-.3 4.182-.206 5.874.213 5.496 1.358 10.024 5.379 12.248 10.878.645 1.594.747 1.607.21.028-.652-1.917-1.752-3.87-3.049-5.412-.352-.418-.616-.782-.587-.809.536-.498 4.196-2.674 5.935-3.528 3.42-1.68 6.153-2.602 9.612-3.244 2.219-.412 6.926-.375 8.966.071 5.197 1.134 9.605 4.372 11.615 8.532.606 1.255 1.296 3.587 1.296 4.385v.485l-.609-.089c-.336-.049-1.32-.118-2.188-.155l-1.578-.065 1.418.137c10.946 1.057 19.508 8.816 20.966 19 1.069 7.47-2.202 15.198-8.742 20.655-1.98 1.652-5.761 3.891-5.887 3.485a146.78 146.78 0 0 1-.368-1.258c-1.072-3.704-3.887-7.579-6.971-9.598-.615-.402-.642-.41-.209-.057 2.716 2.212 4.42 4.275 5.783 7.002.57 1.139 1.284 3.279 1.557 4.663.274 1.393.238 4.972-.066 6.504a19.17 19.17 0 0 1-5.673 10.314c-2.876 2.737-6.233 4.455-10.273 5.256-5.374 1.066-11.407-.152-16.173-3.266-1.068-.698-3.358-2.554-3.963-3.213l-.338-.368.874-1.768c1.438-2.907 2.071-6.117 1.792-9.084l-.135-1.435-.014 2.08c-.036 5.387-1.734 9.382-5.515 12.983-1.649 1.57-3.093 2.554-5.363 3.653-5.015 2.429-10.81 3.417-16.451 2.803h0zm27.234-22.201c-.04-.099-.072-.018-.072.179s.032.278.072.179a.55.55 0 0 0 0-.359h0z" class="D"/><path d="M21.821 11.843l-.754.321-.524.272a9.39 9.39 0 0 0-1.975 1.478 9.34 9.34 0 0 0-1.437 1.805c-.45.739-.769 1.496-.985 2.222a10.03 10.03 0 0 0-.383 2.056c-.051.633-.037 1.205.009 1.693a8.8 8.8 0 0 0 .192 1.211l.172.609.04.101-.191.109a4.28 4.28 0 0 0-.804.637 4.73 4.73 0 0 0-.773 1.035 5.35 5.35 0 0 0-.528 1.389 6.26 6.26 0 0 0-.155 1.312c-.009.454.032.922.118 1.39 0 .016.009.033.009.049.113.611.3 1.195.547 1.723a6.12 6.12 0 0 0 .899 1.399 5.51 5.51 0 0 0 1.38 1.145c.463.271.903.439 1.274.54a3.98 3.98 0 0 0 .88.145h.177l.051.223a5.76 5.76 0 0 0 .286.841c.127.295.287.602.487.91a6.26 6.26 0 0 0 .719.915 6.16 6.16 0 0 0 .97.827 6.26 6.26 0 0 0 1.5.754 6.38 6.38 0 0 0 1.753.341c.312.016.622.009.926-.023.805-.08 1.559-.318 2.215-.651a6.24 6.24 0 0 0 1.66-1.222c.458-.475.793-.979 1.034-1.45a5.79 5.79 0 0 0 .474-1.276 4.35 4.35 0 0 0 .124-.86v-.045l.314.036c.416.041.85.055 1.299.042a14.57 14.57 0 0 0 1.384-.112c.754-.094 1.545-.24 2.332-.496l.41-.143c.465-.175.909-.393 1.316-.646s.779-.542 1.104-.864a5.6 5.6 0 0 0 1.063-1.478c.256-.516.415-1.038.496-1.53a5.22 5.22 0 0 0 .027-1.49c-.055-.436-.157-.803-.264-1.093s-.218-.502-.303-.641c.053-.043.114-.074.175-.109.456-.26.903-.584 1.321-.969s.809-.832 1.151-1.335c.305-.448.57-.941.782-1.471s.37-1.096.455-1.686a7.55 7.55 0 0 0-.174-2.948l-.126-.435a7.71 7.71 0 0 0-.712-1.581 7.39 7.39 0 0 0-1.016-1.34c-.415-.432-.875-.802-1.355-1.108s-.982-.55-1.488-.734c-.577-.212-1.159-.347-1.723-.414a7.33 7.33 0 0 0-1.624-.014c-.448.048-.871.135-1.261.248a7.39 7.39 0 0 0-1.073.405 7.18 7.18 0 0 0-1.548.98c-.388.323-.655.614-.821.821-.021-.01-.04-.03-.062-.049-.429-.39-.956-.792-1.589-1.153-.598-.341-1.288-.643-2.057-.86a9.33 9.33 0 0 0-2.507-.35c-.662 0-1.346.07-2.03.221-.428.095-.856.22-1.278.378l-.006-.005zm.445.467c.318-.11.639-.202.96-.275a9.08 9.08 0 0 1 1.907-.228 9.12 9.12 0 0 1 2.368.286 9.24 9.24 0 0 1 1.976.755 9.46 9.46 0 0 1 1.573 1.031l.091.076c-.014.028-.019.047-.014.051s.024-.009.049-.023a10.38 10.38 0 0 1 .925.877l.606.694c.137.162.215.246.234.234s-.022-.119-.126-.308-.274-.459-.523-.782c-.218-.282-.498-.607-.851-.944.194-.175.48-.43.878-.712s.91-.591 1.541-.851c.316-.13.662-.248 1.035-.341a7.04 7.04 0 0 1 1.193-.193c.483-.037.993-.023 1.519.054s1.067.214 1.601.42c.468.181.931.415 1.373.704a6.92 6.92 0 0 1 1.24 1.037c.349.369.662.787.929 1.242s.489.947.655 1.464l.115.402c.235.907.29 1.839.169 2.718a6.93 6.93 0 0 1-.403 1.56c-.191.493-.433.954-.71 1.375a7.36 7.36 0 0 1-1.05 1.264 6.97 6.97 0 0 1-1.209.931c-.514.312-1.042.538-1.552.698s-1.002.254-1.457.302a7.83 7.83 0 0 1-1.356.025c-.397-.027-.735-.082-1.009-.134l-.626-.139c-.143-.033-.221-.045-.228-.03s.06.059.194.123.339.148.613.232.617.168 1.027.224.885.084 1.413.054a7.51 7.51 0 0 0 1.549-.254 7.31 7.31 0 0 0 1.376-.532l.183.669c.066.287.128.641.147 1.052s0 .878-.111 1.374c-.096.447-.262.916-.511 1.377a5.3 5.3 0 0 1-.998 1.313 5.78 5.78 0 0 1-1.017.773 7.55 7.55 0 0 1-1.222.587l-.383.134c-.739.241-1.495.386-2.225.49l-1.329.134a10.8 10.8 0 0 1-1.236 0c-.719-.047-1.372-.18-1.939-.346a9.89 9.89 0 0 1-1.436-.545l-.889-.459c-.205-.111-.321-.167-.337-.145s.066.12.246.275.458.365.838.592a8.17 8.17 0 0 0 1.448.68c.466.166.996.309 1.578.399-.009.016-.009.027-.014.044l-.249.801c-.123.337-.297.736-.552 1.163s-.593.877-1.032 1.295c-.426.407-.952.782-1.559 1.072s-1.295.498-2.024.566c-.275.026-.557.031-.84.017-.556-.028-1.096-.133-1.598-.3s-.966-.393-1.378-.662c-.339-.221-.643-.47-.911-.733a6.22 6.22 0 0 1-.699-.814 6.31 6.31 0 0 1-.5-.821c-.136-.268-.244-.526-.328-.767-.179-.51-.261-.937-.314-1.232l-.064-.34c-.017-.078-.032-.12-.048-.12s-.033.043-.047.122a2.35 2.35 0 0 0-.026.352c0 .154.009.344.03.565l.061.405-.123-.038-.806-.281c-.336-.138-.731-.332-1.141-.612s-.835-.645-1.208-1.111c-.3-.373-.566-.811-.783-1.299s-.382-1.027-.489-1.593c0-.015-.009-.031-.009-.046-.077-.433-.118-.863-.118-1.28a6.02 6.02 0 0 1 .117-1.197c.095-.465.244-.895.43-1.274s.407-.706.641-.979c.226-.263.462-.476.683-.647a5.38 5.38 0 0 1 .602-.401l.408-.225c.095-.053.143-.089.137-.109s-.067-.024-.177-.009a2.54 2.54 0 0 0-.468.126c-.128.046-.274.11-.43.19 0-.026-.009-.054-.009-.087l-.073-.62-.08-1.194c-.009-.476.009-1.028.085-1.634a10.35 10.35 0 0 1 .439-1.953c.227-.685.545-1.395.983-2.081a9.11 9.11 0 0 1 1.378-1.678c.543-.521 1.168-.991 1.862-1.377l.491-.254c.31-.148.626-.277.944-.387l.007-.009z" class="B C"/><path d="M26.259 38.613c-1.234.244-2.581.064-3.769-.502-1.659-.792-2.827-2.256-3.292-4.127l-.205-.863c-.055-.283-.095.298-.052.759.02.219.027.418.016.442-.034.072-.758-.19-1.345-.487-.958-.485-1.659-1.092-2.22-1.922-.251-.372-.335-.556-.626-1.375-.365-1.028-.441-1.399-.464-2.257-.054-1.993.805-3.68 2.347-4.614.664-.402.663-.401.353-.34-.152.03-.384.107-.516.171s-.247.096-.256.07a12.64 12.64 0 0 1-.085-.731c-.426-4.26 1.162-7.731 4.478-9.782.658-.407 2.308-1.007 3.114-1.132 2.535-.394 4.951.203 7.047 1.741.518.38 1.249 1.075 1.742 1.656.189.223.343.377.342.342 0-.18-.618-1.002-1.393-1.863-.102-.113 1.115-1.01 1.905-1.403 2.015-1.005 4.303-1.017 6.345-.034 1.459.703 2.465 1.669 3.228 3.101 1.057 1.985 1.072 4.452.04 6.46a6.82 6.82 0 0 1-1.35 1.857c-.891.886-1.462 1.245-2.64 1.659-.904.317-1.455.422-2.34.447-.46.012-1.49-.092-1.951-.198-.53-.122-.554-.124-.392-.03.288.165 1.167.399 1.737.463 1.217.136 2.161.02 3.381-.416l.855-.306.098.383c.682 2.677-.335 5.038-2.74 6.361-1.223.673-3.574 1.182-5.464 1.183-1.485 0-3.036-.396-4.484-1.15-.378-.196-.678-.33-.667-.296.046.139.905.713 1.54 1.029.666.332 1.517.629 2.114.739.165.031.321.072.346.092.07.057-.26 1.014-.545 1.581-.869 1.726-2.421 2.932-4.232 3.291v-.001z" class="D"/><g class="B"><path d="M30.88 39.139l1.025-1.103 33.813 20.887L30.88 39.139zm8.118-1.776l27.429 20.769-25.852-21.675-1.576.906zm4.059-8.471L44.121 27l23.488 30.266-24.552-28.374z"/><path d="M181.277 140.281l.096-.182a8.51 8.51 0 0 0 .632-1.653c.147-.552.233-1.099.264-1.625.037-.645-.009-1.257-.101-1.818s-.24-1.071-.409-1.523a8.15 8.15 0 0 0-.61-1.285c-.212-.358-.422-.647-.603-.871.311.095.655.18 1.015.232a5.86 5.86 0 0 0 1.234.041 5.59 5.59 0 0 0 1.285-.25c.415-.134.822-.321 1.207-.558s.751-.523 1.08-.855c.499-.503.895-1.087 1.166-1.706.178-.406.301-.823.376-1.238a5.73 5.73 0 0 0 .087-1.229c-.013-.4-.069-.784-.158-1.147s-.21-.706-.356-1.02c-.153-.327-.332-.621-.523-.884s-.396-.495-.602-.697a5.43 5.43 0 0 0-.611-.519 5.14 5.14 0 0 0-.571-.362 4.26 4.26 0 0 0-.865-.361c-.104-.03-.185-.046-.24-.054.014-.014.04-.029.067-.048a5.02 5.02 0 0 0 .556-.438c.229-.206.498-.476.777-.821a7.8 7.8 0 0 0 .829-1.266c.24-.458.459-.982.621-1.568a7.68 7.68 0 0 0 .28-1.923 7.57 7.57 0 0 0-.139-1.573 7.84 7.84 0 0 0-.497-1.614c-.206-.48-.465-.952-.78-1.4s-.685-.87-1.11-1.25a7.32 7.32 0 0 0-1.791-1.17 7.6 7.6 0 0 0-1.204-.44c-.57-.156-1.15-.242-1.722-.263s-1.134.023-1.673.129a7.25 7.25 0 0 0-1.672.547c-.517.24-.991.531-1.414.853-.499.381-.928.805-1.287 1.246s-.645.897-.868 1.346a7.27 7.27 0 0 0-.606 1.748l-.098.607-.094-.186c-.12-.221-.283-.483-.504-.771s-.501-.596-.849-.902c-.316-.278-.689-.552-1.122-.796s-.927-.456-1.472-.603c-.445-.12-.923-.196-1.421-.217s-1.018.015-1.543.114a6.86 6.86 0 0 0-1.399.425c-.46.196-.91.448-1.331.759-.649.481-1.223 1.099-1.672 1.815l-.26.456c-.24.457-.426.935-.555 1.419s-.202.975-.219 1.459c-.019.527.029 1.041.13 1.531s.253.955.443 1.386a6.82 6.82 0 0 0 .788 1.344 6.44 6.44 0 0 0 .975 1.033c.196.166.396.314.59.449-.2-.042-.449-.086-.751-.118a8.64 8.64 0 0 0-1.591-.018c-.621.049-1.327.17-2.077.414a9.2 9.2 0 0 0-2.146 1.023 9.3 9.3 0 0 0-2.042 1.795c-.514.608-.971 1.308-1.333 2.085a9.38 9.38 0 0 0-.766 2.528 9.43 9.43 0 0 0 .035 3.034c.123.697.322 1.371.589 2.005.295.701.673 1.349 1.107 1.933s.924 1.104 1.445 1.557c.591.514 1.221.942 1.862 1.285a9.81 9.81 0 0 0 1.931.785c.552.158 1.091.26 1.607.32a10.2 10.2 0 0 0 1.468.062c.92-.028 1.71-.174 2.34-.347s1.102-.373 1.414-.523l.349-.187c.216.464.489.967.849 1.468.297.414.652.825 1.07 1.213s.899.752 1.435 1.07c.461.274.964.515 1.503.706a8.24 8.24 0 0 0 1.713.408 8.28 8.28 0 0 0 1.684.037c.571-.045 1.148-.149 1.715-.314a8.66 8.66 0 0 0 .842-.294 8.38 8.38 0 0 0 2.176-1.298c.459-.381.866-.806 1.22-1.256a8.53 8.53 0 0 0 .804-1.23l.001.004zm-.366-.42a8.26 8.26 0 0 1-.858 1.316c-.335.418-.72.812-1.151 1.165-.597.49-1.285.9-2.033 1.205l-.789.277c-.531.155-1.07.255-1.604.301a7.86 7.86 0 0 1-1.574-.024 7.87 7.87 0 0 1-1.608-.364c-.509-.172-.988-.389-1.428-.639a8.28 8.28 0 0 1-1.376-.982c-.405-.356-.756-.736-1.051-1.119-.45-.585-.775-1.176-1.013-1.717a8.8 8.8 0 0 1-.492-1.44l-.189-.953c-.038-.22-.058-.337-.078-.336s-.038.119-.038.346.017.562.087.988.192.941.411 1.516l.123.301h-.009l-.371.124c-.324.109-.801.264-1.425.396s-1.394.239-2.283.233c-.444 0-.918-.033-1.411-.104s-1.008-.181-1.531-.344c-.604-.188-1.219-.448-1.824-.785s-1.197-.753-1.752-1.247c-.489-.435-.949-.931-1.355-1.486a8.81 8.81 0 0 1-1.032-1.826 8.87 8.87 0 0 1-.549-1.886c-.168-.962-.177-1.932-.041-2.855.125-.845.37-1.652.704-2.389s.757-1.405 1.234-1.987a9.06 9.06 0 0 1 1.909-1.739 9.11 9.11 0 0 1 2.02-1.035c.711-.257 1.386-.399 1.984-.475a9.93 9.93 0 0 1 1.544-.073l.982.07h.028l.406.26c.871.54 1.599.921 2.109 1.164l.593.263c.138.053.214.073.222.058s-.053-.067-.176-.148l-.546-.343-2.005-1.295-.576-.412-.582-.478c-.312-.283-.611-.614-.881-.992s-.51-.803-.703-1.266c-.169-.403-.301-.838-.387-1.292s-.125-.926-.103-1.408c.019-.443.089-.892.21-1.337s.295-.884.516-1.304l.242-.418c.413-.658.935-1.227 1.525-1.67.382-.287.794-.523 1.217-.708s.854-.321 1.286-.41a6.51 6.51 0 0 1 1.428-.134 6.2 6.2 0 0 1 1.325.167c.511.122.976.304 1.392.517s.781.458 1.095.706a7.01 7.01 0 0 1 .862.811c.233.259.413.499.553.698l.224.336-.025.526a5.54 5.54 0 0 0 .06.869c.031.197.064.298.083.296s.022-.106.027-.302l.042-.853.028-.251s.009-.013 0-.025a7.92 7.92 0 0 1 .203-1.042c.134-.505.339-1.067.651-1.641.226-.416.511-.838.861-1.243s.764-.795 1.239-1.143c.404-.294.852-.557 1.338-.774a6.85 6.85 0 0 1 1.56-.486 6.79 6.79 0 0 1 1.55-.106 7.26 7.26 0 0 1 1.599.252 7.19 7.19 0 0 1 1.115.411c.612.283 1.172.647 1.658 1.077a6.86 6.86 0 0 1 1.036 1.151 7.43 7.43 0 0 1 .741 1.295 7.58 7.58 0 0 1 .488 1.502c.106.501.156.996.159 1.472.01.647-.078 1.26-.214 1.82a8.02 8.02 0 0 1-.534 1.515c-.23.49-.487.909-.734 1.258a8.58 8.58 0 0 1-.691.852l-.482.497c-.112.112-.168.175-.158.188s.035 0 .083-.029c.038.03.125.075.257.144.186.097.458.238.78.456s.692.515 1.054.914a5.52 5.52 0 0 1 .527.678 5.21 5.21 0 0 1 .448.836c.124.292.226.608.297.942a5.46 5.46 0 0 1 .117 1.054c.009.365-.026.74-.1 1.116a5.16 5.16 0 0 1-.353 1.116 5.24 5.24 0 0 1-1.061 1.535 5.41 5.41 0 0 1-.975.777 5.18 5.18 0 0 1-1.084.514c-.384.128-.774.207-1.159.243s-.765.028-1.128-.014-.71-.12-1.033-.224-.625-.234-.899-.383c-.509-.277-.925-.614-1.256-.947s-.577-.663-.761-.944-.306-.517-.391-.677-.134-.243-.154-.236-.01.105.038.283.14.438.299.75a5.26 5.26 0 0 0 .718 1.056c.328.376.755.762 1.294 1.086.235.14.49.267.763.377l.154.229c.154.237.335.533.517.892a8.69 8.69 0 0 1 .522 1.268 8.49 8.49 0 0 1 .334 1.472c.072.538.095 1.117.044 1.725-.041.495-.132 1.01-.281 1.527a8.21 8.21 0 0 1-.621 1.545l.003.006z" class="C"/></g><path d="M153.912 126.52c.837-1.353 2.02-2.462 3.418-3.204 1.167-.621 2.551-1.008 3.855-1.079.439-.024 1.213-.009 1.626.031l.252.024.642.394c.657.402 2.187 1.198 2.5 1.3.141.046.153.045.091-.013-.038-.036-.404-.275-.813-.53l-2.838-1.95c-1.652-1.448-2.466-3.646-2.136-5.767a6.01 6.01 0 0 1 .794-2.184 5.88 5.88 0 0 1 1.714-1.913c1.109-.81 2.501-1.235 3.929-1.197.459.012 1.165.123 1.584.249 1.333.401 2.614 1.335 3.485 2.542l.311.43-.015.279c-.028.504.049 1.357.119 1.336.013 0 .029-.21.036-.458.072-2.501 1.126-4.571 3.035-5.961 2.232-1.626 5.096-1.811 7.563-.49 1.558.834 2.731 2.279 3.311 4.076.761 2.363.292 4.945-1.275 7.025-.204.27-.446.548-.778.892l-.321.335c-.034.035.036.084.488.334 1.363.755 2.265 1.793 2.728 3.14.502 1.46.278 3.276-.558 4.529-1.346 2.016-3.671 2.854-6.025 2.172-.486-.141-1.425-.656-1.823-1-.565-.488-1.011-1.044-1.43-1.782l-.234-.372c-.042.013.091.462.217.729.343.726.776 1.307 1.353 1.818.251.222.416.333.946.636l.641.367.281.475c1.338 2.26 1.612 4.698.796 7.081-.205.599-.826 1.733-1.233 2.252-1.011 1.287-2.305 2.19-3.873 2.702a8.1 8.1 0 0 1-4.375.157c-.706-.178-.967-.286-1.855-.762l-1.133-.683c-.974-.783-1.676-1.621-2.225-2.655-.427-.805-.734-1.724-.918-2.743l-.109-.493c-.045.013-.009.747.056 1.191.069.462.33 1.429.474 1.76l.071.161-.369.13c-.203.071-.63.197-.949.278-2.235.571-4.481.445-6.473-.365-2.9-1.178-5.044-3.652-5.681-6.553a8.95 8.95 0 0 1 1.123-6.672v.001z" class="D"/><g class="B"><path d="M163.31 107.551l-.794 1.179-34.61-14.519 35.404 13.34zm-7.313 2.846L127.36 95.051l27.3 16.424 1.337-1.078zm-2.542 8.503l-.715 1.921-26.355-24.786 27.07 22.865z"/><path d="M176.683 17.929l-.33-.457c-.413-.517-.885-.934-1.358-1.257a6.07 6.07 0 0 0-1.382-.705 5.71 5.71 0 0 0-.868-.233 4.86 4.86 0 0 0-.67-.078c-.129-.009-.235 0-.322 0 0-.047-.009-.095-.01-.142-.035-.368-.105-.751-.214-1.139a6.6 6.6 0 0 0-.452-1.171c-.195-.388-.435-.769-.723-1.129a6.48 6.48 0 0 0-1.064-1.048 6.65 6.65 0 0 0-1.333-.81c-.55-.251-1.125-.421-1.699-.509a6.54 6.54 0 0 0-2.539.116c-.785.193-1.486.517-2.068.909a6.33 6.33 0 0 0-.809.652l-.288.295a3.05 3.05 0 0 0-.252-.161 4.82 4.82 0 0 0-.52-.257c-.21-.09-.458-.181-.743-.258-.298-.08-.637-.143-1.009-.176s-.781-.035-1.213.011a6.45 6.45 0 0 0-1.351.297 6.28 6.28 0 0 0-1.384.662 6.48 6.48 0 0 0-1.788 1.719c-.502.712-.885 1.555-1.07 2.471l-.05.273c-.135.866-.087 1.734.101 2.537a6.63 6.63 0 0 0 .937 2.168c.289.433.619.814.969 1.141s.719.603 1.089.829.741.403 1.098.54a6.36 6.36 0 0 0 1.022.297l.116.023-.102.201c-.132.284-.297.713-.423 1.276-.066.297-.122.632-.152.998a8.31 8.31 0 0 0-.009 1.186 7.96 7.96 0 0 0 .208 1.326 7.87 7.87 0 0 0 .481 1.392 7.99 7.99 0 0 0 1.414 2.112c.588.631 1.259 1.146 1.954 1.531a7.72 7.72 0 0 0 1.705.691 7.9 7.9 0 0 0 1.603.263c.526.031 1.004.009 1.422-.046s.773-.135 1.059-.219.501-.17.644-.237l.056-.029c.11.288.25.587.43.887.189.315.421.63.705.926.446.463 1.018.868 1.687 1.156s1.436.459 2.236.452c.558-.009 1.127-.092 1.684-.262s1.102-.419 1.611-.746a6.58 6.58 0 0 0 .689-.51c.585-.496 1.066-1.075 1.447-1.687a7.81 7.81 0 0 0 .848-1.895 8.65 8.65 0 0 0 .35-2.268c.017-.714-.052-1.372-.159-1.952a9.59 9.59 0 0 0-.348-1.349c-.13-.388-.266-.713-.389-.971a5.48 5.48 0 0 0-.313-.578c-.064-.102-.11-.16-.134-.175.17-.256.333-.546.477-.869.204-.455.367-.976.459-1.542a6.28 6.28 0 0 0 .028-1.806 6.26 6.26 0 0 0-.235-1.067 6.34 6.34 0 0 0-.76-1.6l.004.002zm-.455.295a6.16 6.16 0 0 1 .682 1.471 5.99 5.99 0 0 1 .219.974c.08.572.075 1.135.009 1.658s-.2 1.009-.367 1.439a6.43 6.43 0 0 1-.594 1.163 7.2 7.2 0 0 1-.606.808l-.441.486c-.103.113-.156.179-.141.198s.093-.011.227-.092a3.83 3.83 0 0 0 .542-.408c.22-.195.472-.453.723-.781l.218-.304c0 .035.022.1.055.197l.217.609.297.977a11.08 11.08 0 0 1 .259 1.324 10.06 10.06 0 0 1 .079 1.875c-.038.679-.152 1.403-.386 2.135a7.55 7.55 0 0 1-.819 1.757c-.359.565-.807 1.097-1.346 1.549a6.24 6.24 0 0 1-.632.464 6.08 6.08 0 0 1-1.473.69c-.507.158-1.021.242-1.526.251a5.24 5.24 0 0 1-2.039-.375c-.615-.247-1.144-.6-1.562-1.008-.268-.261-.493-.541-.681-.825a5.61 5.61 0 0 1-.459-.849c-.17-.39-.281-.76-.356-1.089a6.95 6.95 0 0 1-.137-.855l-.041-.547c-.009-.126-.017-.192-.034-.194s-.039.063-.062.188-.046.314-.053.56a4.66 4.66 0 0 0 .055.897 5.78 5.78 0 0 0 .28 1.111c-.019 0-.037.009-.06.009l-.657.121c-.284.046-.632.092-1.034.112s-.861.015-1.358-.039a8.21 8.21 0 0 1-1.499-.309 7.66 7.66 0 0 1-1.58-.683c-.641-.369-1.261-.855-1.81-1.444-.561-.604-1.008-1.274-1.334-1.958a7.74 7.74 0 0 1-.481-1.292 8.03 8.03 0 0 1-.238-1.24 8.31 8.31 0 0 1-.052-1.124 8.65 8.65 0 0 1 .078-.961 10.46 10.46 0 0 1 .263-1.274l.062-.24a6.17 6.17 0 0 0 .763.074 4.95 4.95 0 0 0 .751-.024 3.37 3.37 0 0 0 .463-.076c.103-.026.155-.049.153-.064s-.057-.022-.162-.026-.261 0-.46-.011l-.725-.057c-.282-.035-.602-.091-.95-.183-.3-.079-.62-.186-.951-.331s-.671-.327-1.01-.552-.674-.494-.991-.807a6.24 6.24 0 0 1-.873-1.075 6.3 6.3 0 0 1-.832-2.009 6.28 6.28 0 0 1-.082-2.328l.044-.25c.167-.836.515-1.611.969-2.271s1.015-1.204 1.618-1.609c.409-.275.837-.487 1.263-.645s.848-.261 1.25-.321.786-.079 1.139-.068.674.051.962.107c.277.053.522.118.732.184l.532.185.248.097-.267.316a6.1 6.1 0 0 0-.774 1.282 4.74 4.74 0 0 0-.304.902c-.047.214-.053.333-.03.339s.072-.101.159-.296l.408-.828a6.86 6.86 0 0 1 .825-1.163 6.31 6.31 0 0 1 1.399-1.193 6.25 6.25 0 0 1 1.937-.79c.729-.163 1.529-.205 2.334-.074a6.1 6.1 0 0 1 1.555.472c.442.202.854.453 1.225.738a6.11 6.11 0 0 1 .986.952c.268.325.494.671.681 1.025s.334.716.446 1.074.188.71.233 1.052.061.673.053.984c-.014.508-.087.967-.184 1.364s-.216.732-.325 1.001l-.272.615c-.065.141-.095.219-.079.23s.08-.046.179-.17.231-.316.375-.58.299-.6.43-1.008.239-.889.28-1.43a6.51 6.51 0 0 0 .009-.768l.286.064.626.163c.24.073.509.168.796.296a6.43 6.43 0 0 1 1.249.733 6.25 6.25 0 0 1 1.214 1.201l.295.423-.003.002z" class="C"/></g><path d="M157.254 29.974c-.831-1.444-1.186-3.266-.966-4.963.054-.417.223-1.273.293-1.484l.056-.168.321.031c.488.048.846.045 1.261-.011.515-.069.619-.109.311-.121-1.614-.062-2.55-.296-3.638-.911-1.041-.588-1.919-1.468-2.452-2.456-1.109-2.058-1.045-4.409.172-6.328 1.02-1.607 2.62-2.593 4.558-2.807.698-.078 1.679 0 2.308.187.395.116 1.009.336 1.002.358 0 .01-.1.135-.216.276a7.06 7.06 0 0 0-.856 1.44c-.16.394-.307.907-.297 1.03.009.084.011.083.08-.064l.182-.395c.179-.399.634-1.138.915-1.484.433-.534.645-.741 1.174-1.144 1.484-1.132 3.555-1.531 5.347-1.03 2.442.683 4.188 2.725 4.499 5.265.148 1.206-.06 2.39-.646 3.682-.099.219-.163.394-.141.388.074-.019.408-.517.585-.872a6.12 6.12 0 0 0 .649-2.646l.009-.378c.009-.075 1.14.247 1.663.473 1.286.556 2.419 1.59 3.035 2.768 1.118 2.136.954 4.534-.449 6.566-.177.257-.513.66-.866 1.041-.233.251-.127.228.272-.06s.702-.582 1.038-1.01l.236-.273c.039.009.444 1.228.572 1.726.411 1.585.467 3.108.169 4.522-.201.95-.472 1.654-.934 2.426-.91 1.518-2.215 2.523-3.821 2.942-1.241.323-2.604.18-3.707-.39-1.605-.83-2.558-2.361-2.782-4.468l-.078-.655c-.025-.039-.069.227-.09.545-.036.553.067 1.344.251 1.928.037.116.057.218.044.227-.053.035-.753.154-1.177.201-1.86.207-3.641-.167-5.146-1.081-1.155-.702-2.043-1.617-2.738-2.824l-.002.001z" class="D"/><g class="B"><path d="M151.123 23.453l.992 1.019-21.296 30.906 20.304-31.924zm1.289 7.738l-20.883 24.89 21.663-23.36-.78-1.53zm7.801 4.231l1.734 1.093-29.656 20.725 27.922-21.817z"/><path d="M.405 117.655a9.23 9.23 0 0 0 .605 1.474c.271.528.585 1.015.928 1.454s.715.831 1.102 1.174a8.79 8.79 0 0 0 1.226.902c.412.252.82.457 1.215.622.79.331 1.519.503 2.123.588.542.077.982.085 1.3.072a8.1 8.1 0 0 0-.872 1.178c-.509.837-.902 1.824-1.077 2.905a8.09 8.09 0 0 0 .016 2.639 8.2 8.2 0 0 0 .925 2.627l.223.372a8.15 8.15 0 0 0 2.067 2.198c.793.579 1.664.995 2.543 1.247a8.07 8.07 0 0 0 2.858.28 8.13 8.13 0 0 0 1.479-.26c-.017.209-.028.492-.009.859s.079.819.209 1.335a7.68 7.68 0 0 0 .649 1.702c.305.582.718 1.183 1.252 1.755s1.191 1.114 1.966 1.563a9.17 9.17 0 0 0 2.071.876c.753.215 1.564.345 2.405.366a10.25 10.25 0 0 0 2.269-.204 11.15 11.15 0 0 0 2.275-.723c1.386-.609 2.705-1.508 3.831-2.658l.718-.799a12.76 12.76 0 0 0 2.071-3.536c.48-1.247.743-2.532.79-3.786a11.01 11.01 0 0 0-.164-2.331c-.133-.746-.337-1.457-.598-2.119-.301-.768-.679-1.47-1.104-2.095a9.93 9.93 0 0 0-1.389-1.637c-.395-.373-.803-.693-1.206-.968-.279-.19-.556-.355-.827-.503l.092-.088a6.54 6.54 0 0 0 .678-.817 8.82 8.82 0 0 0 .832-1.454 9.23 9.23 0 0 0 .668-2.106c.145-.764.204-1.614.132-2.513s-.274-1.845-.645-2.776a9.59 9.59 0 0 0-.861-1.66c-.347-.536-.755-1.049-1.219-1.522-.373-.38-.773-.723-1.192-1.028a9.62 9.62 0 0 0-2.484-1.302c-.649-.227-1.3-.377-1.934-.459-.024-.245-.075-.591-.173-1.027-.102-.456-.257-1.008-.492-1.627a12.95 12.95 0 0 0-.97-2.019 12.56 12.56 0 0 0-1.762-2.318c-.729-.757-1.606-1.471-2.635-2.047-.998-.558-2.139-.978-3.352-1.173-.927-.15-1.856-.162-2.744-.042-1.137.157-2.191.531-3.104 1.029s-1.687 1.119-2.307 1.778c-.665.706-1.152 1.452-1.503 2.146a8.91 8.91 0 0 0-.699 1.872 7.02 7.02 0 0 0-.202 1.255l-1.004.383c-.543.239-1.093.544-1.625.923a8.91 8.91 0 0 0-1.513 1.363 9.01 9.01 0 0 0-1.421 2.197 9.27 9.27 0 0 0-.765 2.667 8.99 8.99 0 0 0-.057 1.685 8.93 8.93 0 0 0 .322 1.886l.067.225v.001zm.612-.189l-.06-.208c-.153-.561-.254-1.149-.288-1.752a8.47 8.47 0 0 1 .057-1.562c.113-.875.359-1.716.704-2.484a8.6 8.6 0 0 1 1.297-2.059 8.6 8.6 0 0 1 1.388-1.299 9.01 9.01 0 0 1 1.504-.908c.505-.242 1.006-.423 1.485-.555s.938-.216 1.364-.263c.495-.055.946-.063 1.339-.051l1.004.081.63.087c.145.019.222.024.227.009s-.062-.057-.199-.112-.344-.125-.619-.194-.616-.138-1.022-.183a8.3 8.3 0 0 0-1.395-.038 8.57 8.57 0 0 0-1.447.208l-.407.104.319-1.129c.171-.505.418-1.106.786-1.751s.859-1.333 1.506-1.978a9.1 9.1 0 0 1 2.209-1.617c.864-.45 1.848-.784 2.903-.919a8.83 8.83 0 0 1 2.555.049 9.96 9.96 0 0 1 3.147 1.084c.974.53 1.817 1.193 2.527 1.899s1.287 1.452 1.75 2.171c.432.671.767 1.32 1.029 1.907s.449 1.11.59 1.545l.279.936-.422-.039a9.17 9.17 0 0 0-2.026.09c-.628.097-1.203.249-1.714.43-.554.195-1.036.423-1.439.65a8.22 8.22 0 0 0-.986.649c-.256.198-.441.366-.56.487s-.172.197-.158.213.095-.025.237-.114l.616-.386 1.013-.538a10.22 10.22 0 0 1 1.415-.538c.497-.147 1.049-.269 1.647-.338s1.241-.088 1.911-.027a9.33 9.33 0 0 1 2.355.532 9.31 9.31 0 0 1 2.31 1.237c.389.286.76.607 1.108.961.865.882 1.526 1.91 1.96 2.962.357.864.564 1.746.652 2.589s.057 1.646-.053 2.374c-.115.766-.314 1.449-.539 2.033a10.52 10.52 0 0 1-.698 1.457l-.553.878-.081.125-.256-.132c-.77-.38-1.48-.605-2.065-.742s-1.051-.188-1.366-.205-.481 0-.482.019.162.053.468.112l1.314.319a10.49 10.49 0 0 1 1.961.824 9.9 9.9 0 0 1 1.118.709 9.58 9.58 0 0 1 1.124.958c.457.456.892.988 1.282 1.591s.734 1.277 1.008 2.01c.236.633.421 1.31.538 2.019s.164 1.449.128 2.203c-.054 1.184-.312 2.397-.773 3.577s-1.126 2.324-1.973 3.351l-.681.757c-1.066 1.091-2.311 1.95-3.618 2.534-.702.314-1.423.548-2.142.702a9.66 9.66 0 0 1-2.132.216c-.79-.01-1.555-.121-2.268-.31s-1.375-.458-1.968-.785c-.739-.406-1.372-.903-1.894-1.429s-.932-1.08-1.244-1.622c-.325-.563-.546-1.111-.699-1.601s-.237-.922-.29-1.276l-.092-.819c0-.02 0-.027-.009-.044.308-.088.601-.193.877-.309.766-.323 1.4-.735 1.909-1.152s.893-.838 1.176-1.201.467-.672.578-.886.153-.338.132-.349-.1.086-.247.273l-.667.79c-.304.326-.7.702-1.207 1.071s-1.124.731-1.854 1.007c-.683.258-1.465.44-2.309.486s-1.752-.042-2.649-.314a7.63 7.63 0 0 1-2.333-1.179c-.728-.541-1.384-1.228-1.893-2.032l-.204-.339c-.428-.763-.712-1.589-.858-2.415a7.63 7.63 0 0 1-.038-2.435c.147-.997.495-1.918.951-2.708s1.02-1.451 1.616-1.969a7.64 7.64 0 0 1 .961-.712c.322-.202.643-.37.951-.509a8.34 8.34 0 0 1 1.651-.548c.47-.105.847-.15 1.103-.181s.392-.049.393-.074-.135-.056-.397-.07-.653-.016-1.147.052-1.094.2-1.755.459c-.33.129-.676.289-1.026.488s-.705.434-1.053.716a7.94 7.94 0 0 0-.767.714c-.016 0-.026 0-.042-.009-.316-.033-.777-.086-1.351-.214a9.42 9.42 0 0 1-1.998-.683c-.737-.349-1.523-.842-2.252-1.525a8.55 8.55 0 0 1-1.006-1.125c-.312-.418-.596-.876-.842-1.374-.215-.435-.401-.899-.546-1.384l.005-.001z" class="C"/></g><path d="M33.938 116.29c.251 1.147.283 2.208.102 3.401-.177 1.174-.474 2.011-1.167 3.292l-.685 1.162c-.038.01-.262-.075-.499-.192-.853-.419-2.335-.807-3.227-.844-.19-.009-.342 0-.337.01s.195.06.423.101c1.667.299 3.471 1.128 4.746 2.181 1.639 1.353 2.73 3.099 3.298 5.28.84 3.224.184 6.512-1.88 9.424-2.047 2.889-5.338 4.743-8.661 4.878-1.81.074-3.71-.434-5.149-1.378-1.319-.866-2.269-1.928-2.931-3.28-.328-.67-.718-2.064-.787-2.815l-.038-.411.582-.216c1.291-.48 2.352-1.233 3.257-2.311.33-.394.868-1.239.808-1.272-.017-.009-.211.202-.43.468-.753.914-1.633 1.65-2.594 2.17-.731.395-1.924.769-2.757.863-3.203.362-6.36-1.36-7.747-4.227-1.019-2.106-1.026-4.547-.019-6.619.771-1.586 1.848-2.709 3.396-3.542.845-.455 2.228-.851 3.392-.972l.157-.016-.178-.041c-.282-.063-1.141-.009-1.832.12-1.339.246-2.838 1.03-3.847 2.011l-.294.286-.781-.136c-1.384-.24-2.5-.653-3.561-1.319-2.945-1.846-4.517-5.379-3.911-8.795.571-3.222 2.725-5.707 5.859-6.761 1.515-.509 2.589-.587 4.647-.338.139.016.249.017.244 0-.02-.067-.933-.314-1.438-.388-.895-.132-2.336-.08-2.962.107a2.51 2.51 0 0 1-.388.075l-.195.019.112-.399c.761-2.714 2.363-4.777 4.712-6.067.591-.325 2.438-.892 3.114-.956 1.17-.111 2.596.054 3.829.444a13.31 13.31 0 0 1 3.118 1.664c1.56 1.233 2.781 2.77 3.698 4.656.277.569 1.1 2.763 1.063 2.832-.012.022-.34.03-.729.017-1.863-.062-3.831.476-5.371 1.469-.456.295-1.189.904-1.127.937.017.009.277-.13.576-.311 1.957-1.184 3.84-1.672 5.97-1.546 2.278.135 4.648 1.27 6.169 2.956 1.177 1.304 1.887 2.67 2.249 4.327l.001.003z" class="D"/><path d="M37.544 122.557l-.764-1.496 34.838-27.448-34.073 28.944zm1.248-9.186l32.27-20.801-32.616 18.802.347 1.999zm-7.327-7.497l-1.576-1.84L70.606 91l-39.141 14.874z" class="B"/><g filter="url(#A)"><path d="M55.275 77.952c0 1.312-.272 2.528-.816 3.648s-1.28 2.144-2.208 3.072c-.928.896-2.016 1.696-3.264 2.4a25.14 25.14 0 0 1-3.888 1.728c-1.344.448-2.736.8-4.176 1.056-1.408.224-2.768.336-4.08.336-1.184 0-2.288-.096-3.312-.288 1.536-5.6 2.752-11.232 3.648-16.896l2.64-17.184a79.12 79.12 0 0 1 5.184-.912 35.05 35.05 0 0 1 5.568-.432 12.16 12.16 0 0 1 2.544.288 6.7 6.7 0 0 1 2.448 1.056c.736.512 1.344 1.184 1.824 2.016.512.832.768 1.888.768 3.168 0 1.216-.208 2.352-.624 3.408-.384 1.056-.896 2.016-1.536 2.88a10.91 10.91 0 0 1-2.112 2.256c-.8.608-1.616 1.072-2.448 1.392.416.224.848.544 1.296.96a8.3 8.3 0 0 1 1.248 1.488c.384.544.688 1.2.912 1.968.256.768.384 1.632.384 2.592zM44.283 72.96a50.05 50.05 0 0 1-.384 2.064l-.288 1.68a53.77 53.77 0 0 1-.336 1.728l-.336 2.064c.608-.064 1.296-.176 2.064-.336s1.504-.4 2.208-.72c.704-.352 1.296-.8 1.776-1.344.48-.576.72-1.264.72-2.064 0-.576-.16-1.056-.48-1.44-.288-.384-.672-.704-1.152-.96-.448-.256-.944-.432-1.488-.528a6.72 6.72 0 0 0-1.536-.192h-.432a1.41 1.41 0 0 0-.336.048zm2.16-11.616l-.24 1.248a37.03 37.03 0 0 1-.24 1.536c-.096.512-.208 1.024-.336 1.536l-.24 1.344a16.98 16.98 0 0 0 2.112-.528c.704-.224 1.328-.464 1.872-.72.576-.288 1.024-.592 1.344-.912.352-.32.528-.672.528-1.056 0-.48-.144-.864-.432-1.152-.288-.32-.672-.576-1.152-.768-.448-.192-.928-.32-1.44-.384-.48-.096-.912-.144-1.296-.144h-.48zM73.214 89.04l-2.64.432-2.592.432.384-3.12a76.17 76.17 0 0 0 .24-2.688l.24-2.304H64.67l-1.92 6.912-2.496.336-2.688.288-3.024.384 3.792-12.576 1.584-5.424 1.68-5.616 1.632-5.424 1.344-4.752 6.624-.576c2.272-.224 4.48-.528 6.624-.912l-.336 3.84-.288 4.944-.288 5.616-.288 5.76-.528 14.064a44.37 44.37 0 0 1-2.88.384zm-7.392-12.048h.672a11.66 11.66 0 0 1 1.056-.048c.384-.032.736-.048 1.056-.048.32-.032.544-.064.672-.096 0-.192.016-.512.048-.96a20.76 20.76 0 0 0 .144-1.584l.192-1.968.192-2.064.48-5.28.288-4.176-.72.048-1.104 4.128-2.976 12.048zM77.996 90.24l2.736-13.392 1.008-5.76 1.056-5.856.864-5.568c.256-1.792.448-3.408.576-4.848.416.032.768.048 1.056.048H86.3h1.632l1.92-.096 2.064-.096 1.2 6.48 1.056 5.616 1.008 4.896.432-2.208.528-2.688c.192-.928.368-1.856.528-2.784l.576-2.832 1.392-6.432 5.856-.72-2.88 13.92-1.152 5.76-1.008 5.568c-.32 1.76-.592 3.408-.816 4.944l-.528 3.792c-.096 0-.48.08-1.152.24l-2.256.48-2.544.576c-.832.192-1.456.368-1.872.528l-.624-7.296-.336-3.024a72.74 72.74 0 0 0-.336-3.024l-.384-2.688c-.128-.832-.256-1.552-.384-2.16a53.41 53.41 0 0 1-.384 2.112l-.48 2.544-.48 2.832c-.16.96-.336 1.888-.528 2.784l-1.344 6.72-7.008 1.632zm49.015-18.528c-.224 3.264-.864 6.112-1.92 8.544-1.056 2.4-2.336 4.416-3.84 6.048-1.472 1.632-3.072 2.848-4.8 3.648-1.696.8-3.312 1.2-4.848 1.2a7.91 7.91 0 0 1-3.408-.768c-1.056-.512-1.984-1.28-2.784-2.304-.768-1.056-1.376-2.368-1.824-3.936s-.672-3.408-.672-5.52c0-4.128.592-7.728 1.776-10.8s2.672-5.632 4.464-7.68c1.824-2.048 3.76-3.568 5.808-4.56 2.08-.992 4.016-1.488 5.808-1.488 1.28 0 2.384.224 3.312.672.96.448 1.744 1.056 2.352 1.824.608.736 1.04 1.616 1.296 2.64.288.992.432 2.048.432 3.168l-6.576 1.248c-.288-1.28-.672-2.192-1.152-2.736s-1.024-.816-1.632-.816c-.8 0-1.68.576-2.64 1.728-.96 1.12-1.856 2.576-2.688 4.368s-1.536 3.76-2.112 5.904-.896 4.256-.96 6.336c0 1.984.288 3.408.864 4.272.608.832 1.376 1.248 2.304 1.248.64 0 1.296-.16 1.968-.48.704-.32 1.328-.768 1.872-1.344.544-.608.992-1.296 1.344-2.064.384-.8.592-1.664.624-2.592l-5.136.768.912-4.752 4.416-.576a113.37 113.37 0 0 0 3.84-.576l3.6-.624zm8.977 6.912a40.45 40.45 0 0 0-2.784.096l-2.784.192 2.88-11.76 2.976-11.76c.608-.096 1.296-.192 2.064-.288a61.78 61.78 0 0 0 2.4-.336l2.304-.336c.768-.096 1.408-.192 1.92-.288a195.8 195.8 0 0 0-4.752 12.192l-4.224 12.288zm.48 7.536c0 .608-.144 1.216-.432 1.824-.256.608-.64 1.152-1.152 1.632-.512.448-1.152.8-1.92 1.056-.768.288-1.648.432-2.64.432-.672 0-1.28-.128-1.824-.384s-.992-.592-1.344-1.008c-.32-.448-.576-.944-.768-1.488s-.288-1.088-.288-1.632c0-.608.096-1.184.288-1.728a4.05 4.05 0 0 1 .864-1.488c.416-.448.912-.816 1.488-1.104.608-.288 1.328-.432 2.16-.432 1.856 0 3.248.448 4.176 1.344.928.864 1.392 1.856 1.392 2.976zm13.569-7.536a40.45 40.45 0 0 0-2.784.096l-2.784.192 2.88-11.76 2.976-11.76c.608-.096 1.296-.192 2.064-.288a61.78 61.78 0 0 0 2.4-.336l2.304-.336c.768-.096 1.408-.192 1.92-.288a195.8 195.8 0 0 0-4.752 12.192l-4.224 12.288zm.48 7.536c0 .608-.144 1.216-.432 1.824-.256.608-.64 1.152-1.152 1.632-.512.448-1.152.8-1.92 1.056-.768.288-1.648.432-2.64.432-.672 0-1.28-.128-1.824-.384s-.992-.592-1.344-1.008c-.32-.448-.576-.944-.768-1.488s-.288-1.088-.288-1.632c0-.608.096-1.184.288-1.728a4.05 4.05 0 0 1 .864-1.488c.416-.448.912-.816 1.488-1.104.608-.288 1.328-.432 2.16-.432 1.856 0 3.248.448 4.176 1.344.928.864 1.392 1.856 1.392 2.976zm13.57-7.536a40.45 40.45 0 0 0-2.784.096l-2.784.192 2.88-11.76 2.976-11.76c.608-.096 1.296-.192 2.064-.288a61.78 61.78 0 0 0 2.4-.336l2.304-.336c.768-.096 1.408-.192 1.92-.288a195.8 195.8 0 0 0-4.752 12.192l-4.224 12.288zm.48 7.536c0 .608-.144 1.216-.432 1.824-.256.608-.64 1.152-1.152 1.632-.512.448-1.152.8-1.92 1.056-.768.288-1.648.432-2.64.432-.672 0-1.28-.128-1.824-.384s-.992-.592-1.344-1.008c-.32-.448-.576-.944-.768-1.488s-.288-1.088-.288-1.632c0-.608.096-1.184.288-1.728a4.05 4.05 0 0 1 .864-1.488c.416-.448.912-.816 1.488-1.104.608-.288 1.328-.432 2.16-.432 1.856 0 3.248.448 4.176 1.344.928.864 1.392 1.856 1.392 2.976z" fill="#fbda00"/><path d="M54.459 81.6l.9.437h0l-.9-.437zm-2.208 3.072l.695.719.006-.006.006-.006-.707-.707zm-3.264 2.4l.484.875.008-.004-.491-.871zM45.099 88.8l.316.949.013-.005-.329-.944zm-4.176 1.056l.157.988.009-.001.009-.002-.175-.985zm-7.392.048l-.964-.264-.287 1.047 1.067.2.184-.983zm3.648-16.896l-.987-.161-.001.005.988.156zm2.64-17.184l-.207-.978-.683.145-.1.691.99.143zm5.184-.912l.141.99.009-.001.009-.001-.159-.987zm8.112-.144l-.21.978h0l.21-.978zm2.448 1.056l-.571.821h0l.571-.821zm1.824 2.016l-.866.5.007.012.007.012.852-.524zm.144 6.576l-.931-.367-.005.012-.005.012.94.342zm-1.536 2.88l-.804-.595-.007.01-.007.01.818.576zm-2.112 2.256l.605.796.01-.008.01-.008-.625-.781zm-2.448 1.392l-.359-.933-2.032.781 1.917 1.032.474-.88zm1.296.96l-.681.733h0l.681-.733zm1.248 1.488l-.832.555.007.011.008.011.817-.577zm.912 1.968l-.96.28.005.018.006.018.949-.316zm-10.608-2.4l-.243-.97-.636.159-.108.647.986.164zm-.384 2.064l-.979-.206-.004.021-.003.021.986.164zm-.288 1.68l-.985-.174h0l.985.174zm-.336 1.728l-.979-.206-.004.021-.003.021.986.164zm-.336 2.064l-.987-.158-.206 1.289 1.298-.137-.105-.995zm2.064-.336l-.204-.979h0l.204.979zm2.208-.72l.414.91.017-.008.017-.008-.447-.894zm1.776-1.344l.75.662.009-.011.009-.011-.768-.64zm.24-3.504l-.8.6.015.021.016.02.768-.64zm-1.152-.96l-.496.868.013.007.013.007.471-.882zm-1.488-.528l-.229.973.027.007.028.005.174-.985zm-.144-11.76v-1h-.835l-.149.821.984.179zm-.24 1.248l-.981-.196-.006.032-.004.032.991.132zm-.24 1.536l.983.184.002-.01-.985-.174zm-.336 1.536l-.97-.243-.007.029-.005.029.983.184zm-.24 1.344l-.986-.164-.234 1.403 1.399-.254-.179-.984zm2.112-.528l.303.953h0l-.303-.953zm1.872-.72l.426.905.011-.005.011-.005-.447-.894zm1.344-.912l-.673-.74-.018.016-.017.017.707.707zm.096-2.208l-.743.669.018.02.019.019.707-.707zm-1.152-.768l-.394.919.011.005.011.005.371-.928zm-1.44-.384l-.196.981.036.007.036.005.124-.992zm6.056 16.464c0 1.169-.241 2.235-.716 3.211l1.799.874c.614-1.264.916-2.63.916-4.085h-2zm-.716 3.211c-.493 1.014-1.162 1.948-2.016 2.802l1.414 1.414c1.002-1.002 1.805-2.117 2.4-3.342l-1.799-.874zm-2.003 2.79c-.861.831-1.879 1.582-3.061 2.248l.983 1.742c1.314-.741 2.472-1.591 3.467-2.552l-1.389-1.439zm-3.053 2.244a24.14 24.14 0 0 1-3.734 1.659l.659 1.888c1.427-.498 2.775-1.096 4.042-1.797l-.967-1.75zm-3.721 1.654c-1.296.432-2.641.772-4.035 1.02l.35 1.969c1.486-.264 2.926-.628 4.317-1.092l-.633-1.897zm-4.017 1.017c-1.36.217-2.668.324-3.923.324v2c1.369 0 2.782-.117 4.237-.348l-.314-1.975zm-3.923.324c-1.13 0-2.172-.092-3.128-.271l-.369 1.966c1.092.205 2.259.305 3.496.305v-2zm-2.348.977c1.546-5.635 2.77-11.303 3.671-17.004l-1.975-.312c-.89 5.627-2.098 11.223-3.625 16.788l1.929.529zm3.671-17l2.643-17.202-1.98-.286-2.637 17.166 1.974.322zm1.86-16.367c1.641-.347 3.347-.647 5.118-.9l-.283-1.98c-1.812.259-3.562.567-5.249.923l.414 1.957zm5.136-.903a34.05 34.05 0 0 1 5.409-.419v-2c-1.97 0-3.879.148-5.727.445l.317 1.975zm5.409-.419c.72 0 1.498.087 2.334.266l.419-1.956c-.955-.205-1.874-.31-2.754-.31v2zm2.334.266a5.7 5.7 0 0 1 2.087.899l1.142-1.642a7.7 7.7 0 0 0-2.809-1.213l-.419 1.956zm2.087.899c.607.422 1.117.981 1.529 1.695l1.732-.999c-.548-.95-1.254-1.735-2.119-2.337l-1.142 1.642zm1.543 1.719c.389.633.62 1.493.62 2.644h2c0-1.409-.282-2.661-.916-3.692l-1.703 1.048zm.62 2.644c0 1.1-.188 2.11-.555 3.041l1.861.733c.465-1.181.694-2.442.694-3.774h-2zm-.564 3.066a10.29 10.29 0 0 1-1.4 2.627l1.607 1.19c.7-.945 1.257-1.991 1.672-3.133l-1.88-.683zm-1.414 2.646c-.555.789-1.195 1.471-1.919 2.051l1.249 1.562a11.91 11.91 0 0 0 2.305-2.461l-1.636-1.151zm-1.899 2.035c-.734.558-1.468.973-2.202 1.255l.718 1.867c.931-.358 1.828-.871 2.694-1.529l-1.21-1.592zm-2.317 3.069c.323.174.687.438 1.09.812l1.361-1.466c-.493-.458-.993-.834-1.502-1.108l-.948 1.761zm1.09.812c.384.356.75.791 1.096 1.31l1.664-1.109c-.422-.633-.887-1.19-1.4-1.666l-1.361 1.466zm1.111 1.332c.309.438.57.989.769 1.671l1.92-.56c-.249-.853-.596-1.614-1.055-2.265l-1.634 1.153zm.78 1.707c.216.649.333 1.404.333 2.276h2c0-1.048-.14-2.021-.435-2.908l-1.897.632zm-10.646-2.881a49.14 49.14 0 0 1-.376 2.022l1.957.412a50.96 50.96 0 0 0 .392-2.106l-1.973-.329zm-.384 2.064l-.286 1.671 1.97.348.29-1.689-1.973-.329zm-.286 1.671a52.88 52.88 0 0 1-.33 1.696l1.957.412c.13-.617.244-1.204.342-1.76l-1.97-.348zm-.338 1.737l-.337 2.07 1.975.316.335-2.058-1.973-.329zm.755 3.223a22.03 22.03 0 0 0 2.163-.352l-.408-1.958c-.744.155-1.398.261-1.965.32l.209 1.989zm2.163-.352a11.49 11.49 0 0 0 2.418-.789l-.828-1.821c-.636.289-1.301.506-1.998.651l.408 1.958zm2.451-.805c.809-.404 1.507-.929 2.079-1.577l-1.5-1.323c-.388.44-.874.812-1.473 1.111l.895 1.789zm2.097-1.598c.64-.768.952-1.687.952-2.704h-2c0 .583-.169 1.04-.488 1.424l1.537 1.28zm.952-2.704c0-.772-.22-1.49-.712-2.08l-1.536 1.28c.148.177.248.42.248.8h2zm-.68-2.04c-.387-.516-.89-.927-1.482-1.242l-.941 1.765a2.43 2.43 0 0 1 .823.678l1.6-1.2zm-1.456-1.228c-.555-.317-1.161-.53-1.81-.645l-.348 1.97a3.58 3.58 0 0 1 1.166.411l.992-1.736zm-1.755-.633c-.607-.143-1.197-.219-1.765-.219v2c.392 0 .826.052 1.307.165l.458-1.947zm-1.765-.219h-.021-.02-.02-.021-.021-.02-.02-.02-.021-.021-.02-.02-.021-.02-.02-.02-.021-.02-.02-.021-.02l-.002 2h.02.021.02.02.021.02.02.02.02.02.02.02.021.02.02.02.021.02.02.02.021l.005-2zm-.432 0c-.202 0-.398.033-.579.078l.485 1.94a.82.82 0 0 1 .079-.016c.017-.002.021-.002.015-.002v-2zm.84-10.747l-.237 1.231 1.961.392.243-1.265-1.968-.358zm-.247 1.295a35.99 35.99 0 0 1-.233 1.494l1.969.348c.098-.556.18-1.082.247-1.578l-1.983-.264zm-.232 1.484c-.092.492-.2.985-.323 1.478l1.94.485c.133-.531.249-1.062.349-1.594l-1.966-.369zm-.336 1.536l-.244 1.364 1.973.329.236-1.324-1.966-.369zm.922 2.512c.747-.136 1.493-.322 2.236-.559l-.606-1.906c-.665.211-1.327.377-1.988.497l.358 1.968zm2.236-.559c.737-.234 1.403-.49 1.995-.768l-.852-1.81c-.496.234-1.078.458-1.749.672l.606 1.906zm2.016-.779c.635-.317 1.183-.679 1.604-1.099l-1.414-1.414c-.219.219-.567.466-1.084.725l.895 1.789zm1.569-1.066c.507-.461.855-1.065.855-1.796h-2c0 .037-.004.137-.201.316l1.345 1.48zm.855-1.796c0-.694-.216-1.35-.725-1.859l-1.414 1.414c.067.067.139.179.139.445h2zm-.689-1.821c-.409-.454-.93-.79-1.524-1.027l-.743 1.857c.366.146.613.323.78.508l1.486-1.338zm-1.501-1.018a6.31 6.31 0 0 0-1.71-.457l-.248 1.985c.424.053.813.158 1.17.311l.788-1.838zm-1.638-.446c-.528-.106-1.027-.163-1.492-.163v2a5.69 5.69 0 0 1 1.1.125l.392-1.961zm-1.492-.163h-.48v2h.48v-2zM73.214 89.04l-.099-.995-.029.003-.029.005.158.987zm-2.64.432l-.164-.986h0l.164.986zm-2.592.432l-.993-.12-.161 1.326 1.318-.22-.164-.986zm.384-3.12l.992.124.001-.009.001-.009-.994-.106zm.24-2.688l-.994-.106-.002.018-.001.018.997.071zm.24-2.304l.995.099.11-1.099h-1.105v1zm-4.176 0v-1h-.76l-.203.732.964.268zm-1.92 6.912l.135.991.652-.089.176-.634-.964-.268zm-2.496.336l.099.995.016-.002.016-.002-.132-.991zm-2.688.288l-.115-.993-.009.001.124.992zm-3.024.384l-.958-.288-.444 1.477 1.53-.197-.128-.992zm3.792-12.576l.957.289.002-.005-.959-.284zm1.584-5.424l-.956-.292-.002.007-.002.008.961.277zm1.68-5.616l-.956-.292-.003.011.96.281zm1.632-5.424l.959.284h0l-.959-.284zm1.344-4.752l-.073-.997-.71.052-.183.687.966.258zm6.624-.576l-.098-.995h-.001l.099.995zm6.624-.912l.996.093.123-1.309-1.295.232.176.984zm-.336 3.84l-.996-.083-.001.01-.001.01.998.064zm-.288 4.944l.999.053h0l-.999-.053zm-.288 5.616l.999.049h0l-.999-.049zm-.288 5.76l-.999-.051v.007.007l.999.036zm-.528 14.064l.164.986.803-.134.031-.814-.999-.039zM65.822 76.992l-.971-.24-.306 1.24h1.277v-1zm.672 0v1h.045l.045-.004-.091-.996zm1.056-.048v1h.042l.041-.004-.083-.996zm1.056-.048v1h.05l.05-.005-.1-.995zm.672-.096l.242.97.758-.189V76.8h-1zm.048-.96l-.991-.132-.004.03-.002.031.997.071zm.144-1.584l-.995-.105-.003.025-.001.025.998.055zm.192-1.968l-.996-.09h0l.996.09zm.192-2.064l.996.095v-.008l.001-.008-.997-.078zm.48-5.28l.995.101.002-.016.001-.016-.998-.069zm.288-4.176l.998.069.079-1.143-1.143.076.067.998zm-.72.048l-.067-.998-.715.048-.185.692.966.258zm-1.104 4.128l-.966-.258-.002.009-.002.009.971.24zm4.258 23.109l-2.646.433.329 1.973 2.634-.431-.316-1.975zm-2.646.433l-2.592.432.329 1.973 2.592-.432-.329-1.973zm-1.435 1.539l.384-3.116-1.985-.248-.384 3.124 1.985.241zm.386-3.134a77.18 77.18 0 0 0 .243-2.723l-1.995-.142c-.063.884-.142 1.768-.237 2.653l1.989.213zm.24-2.688l.241-2.311-1.99-.199-.239 2.297 1.989.213zm-.754-3.41H64.67v2h4.176v-2zm-5.14.732l-1.92 6.912 1.927.535 1.92-6.912-1.927-.535zm-1.092 6.189l-2.493.336.264 1.982 2.499-.336-.27-1.982zm-2.46.332l-2.703.29.229 1.987 2.673-.286-.199-1.99zm-2.712.291l-3.028.385.256 1.984 3.02-.383-.248-1.985zM55.5 90l3.792-12.575-1.914-.579-3.792 12.577L55.5 90zm3.793-12.58l1.586-5.431-1.922-.554-1.582 5.417 1.918.568zm1.582-5.416l1.683-5.626-1.919-.563-1.677 5.605 1.913.584zm1.68-5.616l1.634-5.432-1.918-.568-1.63 5.416 1.913.584zm1.634-5.432l1.351-4.778-1.932-.515c-.381 1.43-.827 3.005-1.337 4.726l1.918.568zm.459-4.039l6.65-.578-.199-1.99-6.598.574.147 1.995zm6.649-.578a85.71 85.71 0 0 0 6.702-.923l-.353-1.969a83.72 83.72 0 0 1-6.546.901l.196 1.99zm5.53-2l-.337 3.85 1.993.166.335-3.83-1.991-.187zm-.338 3.87l-.289 4.954 1.997.107.287-4.934-1.996-.127zm-.289 4.954l-.288 5.62 1.998.098.288-5.612-1.997-.107zm-.288 5.62l-.288 5.758 1.997.102.288-5.762-1.998-.098zm-.288 5.773l-.528 14.061 1.998.077.528-14.066-1.999-.072zm.307 13.114c-.939.156-1.877.282-2.815.375l.199 1.99a45.34 45.34 0 0 0 2.945-.393l-.329-1.973zm-10.108-9.678h.02.021.02.021.021.021.02.02.021.02.021.02.021.021.02.021.02.02.021.021.02.021.021.021.02.02.021.021.021.022.022.02l.009-2h-.02-.02-.022-.021-.021-.021-.02-.02-.022-.021-.021-.02-.02-.021-.021-.02-.021-.021-.02-.021-.02-.021-.021-.021-.02-.021-.02-.02-.02-.02-.021-.02l-.011 2zm.763-.004a10.65 10.65 0 0 1 .965-.044v-2c-.382 0-.765.017-1.147.052l.181 1.992zm1.048-.047c.362-.03.686-.044.973-.044v-2a13.77 13.77 0 0 0-1.139.052l.166 1.993zm1.073-.049c.319-.032.609-.069.815-.121l-.485-1.94c-.05.012-.208.039-.529.071l.199 1.99zm1.573-1.091c0-.153.013-.442.045-.889l-1.995-.142c-.032.449-.05.8-.05 1.031h2zm.039-.828c.068-.51.118-1.064.151-1.661l-1.997-.111a19.76 19.76 0 0 1-.137 1.507l1.982.264zm.147-1.612l.193-1.982-1.992-.181-.191 1.954 1.989.209zm.193-1.982l.192-2.06-1.991-.19-.192 2.068 1.992.181zm.193-2.076l.478-5.257-1.99-.202-.482 5.303 1.994.156zm.481-5.289l.288-4.176-1.995-.138-.288 4.176 1.995.138zm-.776-5.243l-.72.048.133 1.996.72-.048-.133-1.996zm-1.619.787l-1.104 4.128 1.932.517 1.104-4.128-1.932-.517zm-1.109 4.147l-2.976 12.048 1.942.48 2.976-12.048-1.942-.48zM77.996 90.24l-.979-.204-.319 1.533 1.525-.355-.227-.974zm2.736-13.392l.981.196.003-.013.002-.013-.986-.17zm1.008-5.76l-.982-.19-.001.008-.001.008.985.175zm1.056-5.856l.986.164.001-.003-.987-.162zm.864-5.568l.99.144v-.002l-.99-.141zm.576-4.848l.077-.997-.985-.076-.087.984.996.089zm3.696.048v1h.025l.025-.001-.05-.999zm1.92-.096l-.05-.999h0l.05.999zm2.064-.096l.981-.196-.168-.84-.856.037.043.999zm1.2 6.48l-.986.167.002.011.002.011.982-.19zm1.056 5.616l-.984.18.001.008.002.008.981-.196zm1.008 4.896l-.978.21 1.958-.013-.981-.196zm.432-2.208l.982.189.001-.007-.983-.182zm.528-2.688l-.979-.203h0l.979.203zm.528-2.784l-.981-.196-.003.013-.002.013.985.17zm.576-2.832l-.978-.211-.002.008.979.203zm1.392-6.432l-.122-.992-.704.087-.151.693.977.212zm5.856-.72l.976.217.307-1.382-1.405.173.122.992zm-2.88 13.92l.98.199.002-.013-.982-.186zm-1.152 5.76l-.982-.193-.002.013.984.18zm-1.008 5.568l.984.179v-.003l-.984-.176zm-.816 4.944l.989.147v-.003l-.99-.144zm-.528 3.792v1h.883l.11-.876-.992-.124zm-1.152.24l.196.981.018-.004.018-.004-.232-.973zm-2.256.48l-.217-.976-.008.002.225.974zm-2.544.576l-.217-.976-.008.002.225.974zm-1.872.528l-.997.075.101 1.341 1.256-.483-.359-.933zm-.624-7.296l-.995.096v.001l.995-.097zm-.336-3.024l-.996.091.002.017.002.017.992-.124zm-.336-3.024l.991-.132h0l-.991.132zm-.384-2.688l.988-.152h0l-.988.152zm-.384-2.16l.979-.206-1.966.05.988.156zm-.864 4.656l-.984-.176h0l.984.176zm-.48 2.832l.986.164.001-.005-.987-.159zm-.528 2.784l-.978-.21-.002.01-.002.01.982.191zm-1.344 6.72l.227.974.624-.145.129-.627-.98-.201zm-6.029 1.836l2.738-13.4-1.961-.392-2.734 13.384 1.958.408zm2.743-13.426l1.007-5.755-1.969-.349-1.009 5.765 1.971.34zm1.004-5.74l1.061-5.882-1.973-.329-1.051 5.83 1.964.38zm1.061-5.884l.867-5.586-1.979-.288-.861 5.55 1.974.324zm.867-5.588c.258-1.805.452-3.439.582-4.901l-1.992-.177c-.126 1.419-.316 3.017-.57 4.795l1.98.283zm-.491-3.992a15.14 15.14 0 0 0 1.133.051v-2a13.12 13.12 0 0 1-.979-.045l-.153 1.994zm1.133.051h.02.02.021.021.021.021.021.021.022.022.02.02.02.02.021.021.021.021.021.021.021.022.022.022.02.022.02.02.02.02.021.021.021.021.021.021.021.021.022.022.022.022.022.022.022.022.02l.018-2h-.02-.02-.022-.022-.022-.022-.022-.022-.022-.022-.021-.021-.021H86h-.021-.021-.021-.021-.02-.02-.02-.02-.022-.022-.022-.022-.022-.021-.021-.021-.021-.021-.021-.021-.02-.02-.02-.02-.022-.022-.021-.021-.021-.021-.021-.021-.02l-.017 2zm1.008 0h.021.021.021.022.022.022.022.022.022.022.022.023.023.023.02.02.02.02.02.021.021.021.021.021.021.021.021.022.022.022.022.022.022.022.022.022.023.023.023.023.023.023.023.023.02.02.02.02.02.02.02.021.021.021.021.021.021.021.021.021.021.021.022.021.022.022.022.022.022.022.022.022.022.022.022l.015-2h-.022-.022-.022-.022-.022-.022-.022-.022-.022-.022-.022-.022-.022-.021-.021-.021-.021-.021-.021-.021-.021-.021-.021-.021-.021-.02-.02-.02-.02-.02-.02-.023-.023-.023-.023-.023-.023-.023-.023-.022-.022-.022-.022-.022-.022-.022-.022-.022-.022-.021-.021-.021-.021-.021-.021-.021-.021-.02-.02-.02-.02-.02-.023-.023-.023-.022-.022-.022-.022-.022-.022-.022-.022-.021-.021l-.013 2zm1.682-.001l.022-.001.023-.001.022-.001.023-.001.022-.001.023-.001.022-.001.023-.001.022-.001.022-.001.023-.001.022-.001.023-.001.022-.001.023-.001.022-.001.022-.001.023-.001.022-.001.023-.001.022-.001.023-.001.022-.001.023-.001.022-.001.022-.001.023-.001.022-.001.023-.001.022-.001.023-.001.022-.001.023-.001.022-.001.022-.001.023-.001.022-.001.023-.001.022-.001.023-.001.022-.001.022-.001.023-.001.022-.001.023-.001.022-.001.023-.001.022-.001.023-.001.022-.001.022-.001.023-.001.022-.001.023-.001.022-.001.023-.001.022-.001.023-.001.022-.001.022-.001.023-.001.022-.001.023-.001.022-.001.023-.001.022-.001.022-.001.023-.001.022-.001.023-.001.022-.001.023-.001.022-.001.023-.001.022-.001.022-.001.023-.001.022-.001.023-.001.022-.001.023-.001.022-.001.023-.001.022-.001.022-.001-.092-1.998-.022.001-.023.001-.022.001-.023.001-.022.001-.022.001-.023.001-.022.001-.023.001-.022.001-.023.001-.022.001-.022.001-.023.001-.022.001-.023.001-.022.001-.023.001-.022.001-.023.001-.022.001-.022.001-.023.001-.022.001-.023.001-.022.001-.023.001-.022.001-.023.001-.022.001-.022.001-.023.001-.022.001-.023.001-.022.001-.023.001-.022.001-.022.001-.023.001-.022.001-.023.001-.022.001-.023.001-.022.001-.023.001-.022.001-.022.001-.023.001-.022.001-.023.001-.022.001-.023.001-.022.001-.023.001-.022.001-.022.001-.023.001-.022.001-.023.001-.022.001-.023.001-.022.001-.022.001-.023.001-.022.001-.023.001-.022.001-.023.001-.022.001-.023.001-.022.001-.022.001-.023.001-.022.001-.023.001-.022.001-.023.001-.022.001-.023.001-.022.001-.022.001-.023.001-.022.001-.023.001-.022.001.092 1.998zm1.92-.096l2.058-.096-.087-1.998-2.071.096.1 1.998zm1.033-.899l1.195 6.451 1.972-.334c-.354-2.091-.756-4.26-1.205-6.509l-1.961.392zm1.199 6.473l1.054 5.607 1.967-.361-1.058-5.625-1.964.379zm1.057 5.623l1.011 4.909 1.956-.419-1.005-4.883-1.961.392zm2.969 4.896l.433-2.215-1.964-.378-.431 2.201 1.961.392zm.435-2.222l.524-2.667-1.959-.405-.532 2.709 1.967.364zm.524-2.667a86.24 86.24 0 0 0 .534-2.817l-1.971-.34a84.3 84.3 0 0 1-.522 2.751l1.959.405zm.529-2.791l.575-2.825-1.959-.405-.577 2.839 1.961.392zm.573-2.817l1.392-6.43-1.954-.425-1.392 6.434 1.955.421zm.537-5.65l5.856-.72-.244-1.985-5.856.72.244 1.985zm4.757-1.929l-2.886 13.95 1.965.373a457.51 457.51 0 0 1 2.874-13.89l-1.953-.434zm-2.883 13.938l-1.154 5.766 1.963.386 1.151-5.754-1.96-.399zM99.476 73.5l-1.009 5.572 1.969.352 1.007-5.564-1.967-.361zm-1.008 5.569a144.47 144.47 0 0 0-.822 4.979l1.979.289c.222-1.523.492-3.159.81-4.909l-1.967-.358zm-.821 4.976l-.531 3.815 1.985.248.525-3.769-1.978-.295zm.461 2.939c-.117 0-.234.019-.29.029-.079.013-.171.031-.273.052a31.59 31.59 0 0 0-.82.186l.463 1.946.764-.174.194-.038c.063-.011.03-.001-.038-.001v-2zm-1.348.259l-2.277.484.434 1.952 2.235-.476-.392-1.961zm-2.285.486l-2.536.574.434 1.952 2.552-.578-.45-1.949zm-2.544.576c-.844.195-1.523.383-2.006.569l.718 1.867c.349-.134.918-.298 1.738-.487l-.45-1.949zm-.65 1.428l-.626-7.318-1.991.194.622 7.274 1.994-.15zm-.626-7.317l-.339-3.052-1.985.248.333 2.996 1.991-.193zm-.335-3.018a73.67 73.67 0 0 0-.341-3.066l-1.983.264c.126.945.237 1.939.331 2.982l1.992-.181zm-.341-3.066l-.387-2.708-1.977.304.381 2.668 1.983-.264zm-.387-2.708a41.72 41.72 0 0 0-.394-2.214l-1.957.412c.123.585.248 1.286.374 2.106l1.977-.304zm-2.36-2.164c-.093.591-.219 1.281-.377 2.072l1.961.392a54.38 54.38 0 0 0 .391-2.152l-1.976-.312zm-.377 2.072l-.484 2.564 1.969.352.476-2.524-1.961-.392zm-.484 2.564l-.483 2.849 1.974.318.477-2.815-1.969-.352zm-.482 2.843a60.69 60.69 0 0 1-.519 2.739l1.956.419a62.6 62.6 0 0 0 .537-2.829l-1.973-.329zm-.523 2.758l-1.342 6.709 1.959.403 1.346-6.731-1.963-.381zm-.589 5.937l-7.008 1.632.454 1.948 7.008-1.632-.454-1.948zm42.234-15.922l.997.069.089-1.29-1.271.238.185.983zm-1.92 8.544l.915.403.002-.004-.917-.398zm-3.84 6.048l-.736-.678-.007.008.743.67zm-4.8 3.648l-.42-.907-.007.003.427.904zm-8.256.432l-.437.9.011.005.426-.905zm-2.784-2.304l-.809.588.01.014.011.013.788-.616zm-1.824-3.936l.961-.275h0l-.961.275zm1.104-16.32l.933.36h0l-.933-.36zm4.464-7.68l-.747-.665-.006.007.753.658zm5.808-4.56l-.431-.903-.005.003.436.9zm9.12-.816l-.435.901.012.006.423-.906zm2.352 1.824l-.784.621.006.008.007.008.771-.637zm1.296 2.64l-.97.242.004.018.005.018.961-.279zm.432 3.168l.186.983.814-.154V62.4h-1zm-6.576 1.248l-.976.219.212.943.95-.18-.186-.982zm-1.152-2.736l-.75.662h0l.75-.662zm-4.272.912l.759.651.009-.011-.768-.64zm-2.688 4.368l.907.421h0l-.907-.421zm-3.072 12.24l-1-.031v.015.015h1zm.864 4.272l-.832.555.012.018.012.017.808-.59zm4.272.768l-.414-.91-.008.004-.008.004.43.903zm1.872-1.344l.727.687.009-.01.009-.01-.745-.667zm1.344-2.064l-.902-.433-.004.008-.003.008.909.417zm.624-2.592l.999.035.042-1.201-1.189.178.148.989zm-5.136.768l-.982-.188-.266 1.386 1.396-.209-.148-.989zm.912-4.752l-.127-.992-.719.092-.136.712.982.189zm4.416-.576l-.131-.992h-.001l.132.991zm3.84-.576l-.161-.987-.004.001.165.986zm2.602-.692c-.218 3.176-.838 5.908-1.84 8.214l1.835.797c1.111-2.558 1.77-5.522 2-8.874l-1.995-.137zm-1.838 8.21c-1.019 2.317-2.243 4.235-3.66 5.773l1.471 1.355c1.591-1.726 2.928-3.84 4.02-6.323l-1.831-.805zm-3.667 5.781c-1.395 1.547-2.889 2.675-4.477 3.41l.84 1.815c1.868-.865 3.574-2.169 5.122-3.886l-1.485-1.34zm-4.484 3.413c-1.591.751-3.062 1.104-4.421 1.104v2c1.712 0 3.474-.446 5.274-1.296l-.853-1.809zm-4.421 1.104c-1.035 0-2.026-.222-2.982-.673l-.852 1.81a8.91 8.91 0 0 0 3.834.863v-2zm-2.972-.668c-.904-.439-1.716-1.103-2.432-2.02l-1.576 1.231c.884 1.131 1.928 2.003 3.135 2.588l.873-1.8zm-2.412-1.992c-.684-.941-1.247-2.14-1.671-3.623l-1.923.549c.473 1.654 1.125 3.079 1.977 4.249l1.617-1.176zm-1.671-3.623c-.416-1.457-.633-3.2-.633-5.245h-2c0 2.179.23 4.116.71 5.795l1.923-.549zm-.633-5.245c0-4.035.579-7.508 1.709-10.44l-1.866-.719c-1.238 3.212-1.843 6.939-1.843 11.16h2zm1.709-10.44c1.15-2.985 2.583-5.438 4.283-7.381l-1.505-1.317c-1.883 2.153-3.427 4.82-4.644 7.979l1.866.719zm4.278-7.374c1.754-1.97 3.588-3.401 5.497-4.325l-.872-1.8c-2.188 1.06-4.225 2.669-6.119 4.795l1.494 1.33zm5.491-4.322c1.983-.946 3.771-1.391 5.378-1.391v-2c-1.977 0-4.061.547-6.239 1.585l.861 1.805zm5.378-1.391c1.165 0 2.113.204 2.877.573l.87-1.801c-1.093-.527-2.352-.771-3.747-.771v2zm2.889.578c.831.388 1.487.902 1.991 1.538l1.568-1.241c-.712-.9-1.624-1.601-2.713-2.109l-.846 1.812zm2.004 1.555c.503.609.873 1.351 1.097 2.246l1.94-.485c-.288-1.153-.783-2.172-1.495-3.034l-1.542 1.274zm1.106 2.282c.26.894.393 1.856.393 2.889h2c0-1.206-.155-2.357-.472-3.447l-1.921.558zm1.206 1.907l-6.576 1.248.373 1.965 6.576-1.248-.373-1.965zm-5.414 2.011c-.299-1.331-.729-2.443-1.377-3.178l-1.5 1.323c.311.353.65 1.065.926 2.294l1.951-.439zm-1.377-3.178c-.63-.714-1.432-1.154-2.382-1.154v2c.265 0 .552.103.882.478l1.5-1.323zm-2.382-1.154c-1.273 0-2.412.892-3.408 2.088l1.536 1.28c.923-1.108 1.545-1.368 1.872-1.368v-2zm-3.4 2.077c-1.035 1.208-1.977 2.749-2.835 4.598l1.814.842c.805-1.735 1.656-3.107 2.54-4.138l-1.519-1.302zm-2.835 4.598c-.859 1.85-1.582 3.873-2.171 6.066l1.932.519c.562-2.095 1.248-4.008 2.053-5.742l-1.814-.842zm-2.171 6.066c-.595 2.214-.927 4.403-.994 6.565l1.999.062a26.64 26.64 0 0 1 .927-6.107l-1.932-.519zm-.994 6.596c0 2.029.285 3.706 1.032 4.827l1.664-1.109c-.405-.608-.696-1.779-.696-3.717h-2zm1.056 4.862c.773 1.057 1.826 1.658 3.112 1.658v-2c-.57 0-1.053-.231-1.497-.838l-1.615 1.18zm3.112 1.658c.811 0 1.613-.204 2.398-.577l-.86-1.806c-.56.266-1.069.383-1.538.383v2zm2.382-.57c.824-.375 1.554-.9 2.185-1.568l-1.454-1.373a4.94 4.94 0 0 1-1.559 1.12l.828 1.821zm2.203-1.588a9.19 9.19 0 0 0 1.508-2.314l-1.818-.833c-.312.68-.706 1.283-1.18 1.814l1.49 1.334zm1.5-2.298c.447-.93.686-1.931.722-2.99l-1.999-.069c-.027.796-.204 1.524-.526 2.194l1.803.865zm-.425-4.014l-5.136.768.296 1.978 5.136-.768-.296-1.978zm-4.006 1.945l.912-4.752-1.964-.377-.912 4.752 1.964.377zm.056-3.949l4.422-.577-.264-1.982-4.411.575.253 1.984zm4.42-.576a114.24 114.24 0 0 0 3.874-.581l-.329-1.973c-1.334.222-2.602.413-3.806.571l.261 1.983zm3.87-.581l3.624-.628-.369-1.966-3.576.62.321 1.974zm12.417 5.301v1h.715l.231-.677-.946-.323zm-2.784.096l.069.998-.069-.998zm-2.784.192l-.97-.244-.337 1.337 1.376-.095-.069-.998zm2.88-11.76l-.971-.239-.002.007.973.231zm2.976-11.76l-.156-.988-.647.102-.165.634.968.252zm2.064-.288l-.119-.993-.005.001.124.992zm2.4-.336l.158.987h0l-.158-.987zm2.304-.336l-.124-.992h-.005l.129.992zm1.92-.288l.919.394.738-1.722-1.841.345.184.983zm-4.752 12.192l-.944-.332-.001.004.945.327zm-4.176 21.648l-.904-.428-.009.02-.009.02.922.388zm-1.152 1.632l.658.753.013-.011.013-.012-.684-.73zm-1.92 1.056l-.316-.949-.018.006-.017.006.351.936zm-4.464.048l.426-.905h0l-.426.905zm-1.344-1.008l-.814.581.024.033.026.031.764-.646zm-.768-1.488l-.943.333h0l.943-.333zm0-3.36l.943.333.003-.008.003-.008-.949-.316zm.864-1.488l-.733-.681-.002.002.735.678zm1.488-1.104l-.428-.904-.01.004-.009.005.447.894zm6.336.912l-.695.719.007.006.006.006.682-.732zm.912-5.56c-.951 0-1.902.033-2.853.098l.138 1.995a39.46 39.46 0 0 1 2.715-.094v-2zm-2.853.098l-2.784.192.138 1.995 2.784-.192-.138-1.995zm-1.745 1.434l2.883-11.773-1.946-.463-2.877 11.747 1.94.489zm2.881-11.766l2.973-11.747-1.936-.504-2.979 11.773 1.942.478zm2.161-11.011a64.11 64.11 0 0 1 2.032-.284l-.248-1.985-2.096.293.312 1.976zm2.027-.283a62.82 62.82 0 0 0 2.439-.341l-.316-1.975c-.787.126-1.574.236-2.361.331l.238 1.986zm2.439-.341l2.275-.332-.258-1.983c-.747.097-1.524.211-2.333.34l.316 1.975zm2.27-.331c.779-.098 1.441-.196 1.98-.297l-.368-1.966a31.78 31.78 0 0 1-1.86.279l.248 1.985zm.877-1.674c-1.737 4.052-3.329 8.137-4.777 12.254l1.887.663a195.3 195.3 0 0 1 4.728-12.13l-1.838-.788zm-4.778 12.258l-4.226 12.293 1.893.646 4.223-12.283-1.89-.655zm-3.799 20.151c0 .445-.104.907-.336 1.396l1.808.856c.344-.727.528-1.481.528-2.252h-2zm-.354 1.436c-.198.471-.498.9-.914 1.291l1.368 1.459c.607-.57 1.076-1.228 1.39-1.973l-1.844-.776zm-.889 1.267c-.395.346-.912.638-1.577.86l.632 1.897c.871-.29 1.633-.702 2.262-1.252l-1.317-1.505zm-1.612.872c-.635.238-1.393.368-2.289.368v2c1.087 0 2.09-.158 2.991-.496l-.702-1.873zm-2.289.368c-.542 0-1.002-.103-1.398-.289l-.852 1.81c.692.326 1.448.479 2.25.479v-2zm-1.398-.289c-.428-.201-.757-.454-1.007-.749l-1.527 1.292c.454.536 1.022.956 1.682 1.267l.852-1.81zm-.956-.684c-.263-.368-.477-.78-.639-1.24l-1.886.666c.222.628.52 1.209.897 1.736l1.628-1.162zm-.639-1.24c-.157-.444-.231-.875-.231-1.299h-2a5.86 5.86 0 0 0 .345 1.965l1.886-.666zm-.231-1.299a4.16 4.16 0 0 1 .231-1.395l-1.886-.666c-.232.657-.345 1.346-.345 2.061h2zm.237-1.412c.15-.451.369-.822.65-1.126l-1.47-1.357c-.487.528-.844 1.15-1.078 1.85l1.898.632zm.648-1.124c.33-.356.728-.653 1.202-.89l-.894-1.789a6.15 6.15 0 0 0-1.774 1.318l1.466 1.361zm1.183-.881c.446-.211 1.014-.336 1.732-.336v-2c-.946 0-1.819.164-2.588.528l.856 1.807zm1.732-.336c1.71 0 2.808.413 3.481 1.063l1.389-1.439c-1.182-1.142-2.869-1.625-4.87-1.625v2zm3.494 1.076c.755.702 1.074 1.44 1.074 2.244h2c0-1.436-.609-2.682-1.711-3.708l-1.363 1.464zm15.643-5.292v1h.716l.231-.677-.947-.323zm-2.784.096l.069.998-.069-.998zm-2.784.192l-.969-.244-.337 1.337 1.375-.095-.069-.998zm2.88-11.76l-.971-.239-.002.007.973.231zm2.976-11.76l-.156-.988-.647.102-.165.634.968.252zm2.064-.288l-.119-.993-.005.001.124.992zm2.4-.336l.158.987h0l-.158-.987zm2.304-.336l-.124-.992h-.005l.129.992zm1.92-.288l.919.394.738-1.722-1.841.345.184.983zm-4.752 12.192l-.943-.332-.002.004.945.327zm-4.176 21.648l-.903-.428-.01.02-.008.02.921.388zm-1.152 1.632l.659.753.013-.011.012-.012-.684-.73zm-1.92 1.056l-.316-.949-.018.006-.017.006.351.936zm-4.464.048l.426-.905h0l-.426.905zm-1.344-1.008l-.813.581.023.033.027.031.763-.646zm-.768-1.488l-.943.333h0l.943-.333zm0-3.36l.943.333.003-.008.003-.008-.949-.316zm.864-1.488l-.733-.681-.002.002.735.678zm1.488-1.104l-.428-.904-.009.004-.01.005.447.894zm6.336.912l-.694.719.006.006.007.006.681-.732zm.912-5.56c-.951 0-1.902.033-2.853.098l.138 1.995a39.46 39.46 0 0 1 2.715-.094v-2zm-2.853.098l-2.784.192.138 1.995 2.784-.192-.138-1.995zm-1.745 1.434l2.883-11.773-1.946-.463-2.876 11.747 1.939.489zm2.881-11.766l2.973-11.747-1.936-.504-2.979 11.773 1.942.478zm2.161-11.011a64.11 64.11 0 0 1 2.032-.284l-.248-1.985-2.096.293.312 1.976zm2.027-.283a62.82 62.82 0 0 0 2.439-.341l-.316-1.975c-.787.126-1.574.236-2.361.331l.238 1.986zm2.439-.341l2.276-.332-.259-1.983c-.746.097-1.524.211-2.333.34l.316 1.975zm2.27-.331c.78-.098 1.442-.196 1.981-.297l-.369-1.966a31.65 31.65 0 0 1-1.86.279l.248 1.985zm.877-1.674a196.3 196.3 0 0 0-4.776 12.254l1.887.663a194.66 194.66 0 0 1 4.727-12.13l-1.838-.788zm-4.778 12.258l-4.225 12.293 1.893.646 4.222-12.283-1.89-.655zm-3.799 20.151c0 .445-.104.907-.335 1.396l1.807.856a5.22 5.22 0 0 0 .528-2.252h-2zm-.353 1.436c-.199.471-.498.9-.915 1.291l1.368 1.459a5.75 5.75 0 0 0 1.39-1.973l-1.843-.776zm-.889 1.267c-.395.346-.912.638-1.578.86l.632 1.897c.871-.29 1.634-.702 2.263-1.252l-1.317-1.505zm-1.613.872c-.635.238-1.392.368-2.289.368v2c1.088 0 2.09-.158 2.991-.496l-.702-1.873zm-2.289.368c-.542 0-1.002-.103-1.398-.289l-.852 1.81c.693.326 1.448.479 2.25.479v-2zm-1.398-.289c-.428-.201-.756-.454-1.006-.749l-1.527 1.292c.454.536 1.021.956 1.681 1.267l.852-1.81zm-.956-.684c-.263-.368-.476-.78-.639-1.24l-1.886.666c.222.628.52 1.209.898 1.736l1.627-1.162zm-.639-1.24a3.89 3.89 0 0 1-.231-1.299h-2c0 .664.118 1.32.345 1.965l1.886-.666zm-.231-1.299a4.16 4.16 0 0 1 .231-1.395l-1.886-.666a6.17 6.17 0 0 0-.345 2.061h2zm.237-1.412c.15-.451.369-.822.65-1.126l-1.47-1.357a5.04 5.04 0 0 0-1.077 1.85l1.897.632zm.648-1.124c.33-.356.728-.653 1.202-.89l-.894-1.789c-.677.339-1.272.778-1.774 1.318l1.466 1.361zm1.183-.881c.447-.211 1.014-.336 1.732-.336v-2c-.946 0-1.818.164-2.588.528l.856 1.807zm1.732-.336c1.711 0 2.808.413 3.482 1.063l1.389-1.439c-1.183-1.142-2.869-1.625-4.871-1.625v2zm3.495 1.076c.754.702 1.073 1.44 1.073 2.244h2c0-1.436-.609-2.682-1.71-3.708l-1.363 1.464zm15.643-5.292v1h.715l.231-.677-.946-.323zm-2.784.096l.068.998-.068-.998zm-2.784.192l-.97-.244-.337 1.337 1.375-.095-.068-.998zm2.88-11.76l-.971-.239-.002.007.973.231zm2.976-11.76l-.156-.988-.647.102-.165.634.968.252zm2.064-.288l-.12-.993-.004.001.124.992zm2.4-.336l.158.987h0l-.158-.987zm2.304-.336l-.124-.992h-.006l.13.992zm1.92-.288l.919.394.738-1.722-1.842.345.185.983zm-4.752 12.192l-.944-.332-.001.004.945.327zm-4.176 21.648l-.904-.428-.01.02-.008.02.922.388zm-1.152 1.632l.658.753.013-.011.013-.012-.684-.73zm-1.92 1.056l-.317-.949-.017.006-.017.006.351.936zm-4.464.048l.425-.905h0l-.425.905zm-1.344-1.008l-.814.581.024.033.026.031.764-.646zm-.768-1.488l-.943.333h0l.943-.333zm0-3.36l.943.333.003-.008.002-.008-.948-.316zm.864-1.488l-.733-.681-.002.002.735.678zm1.488-1.104l-.428-.904-.01.004-.01.005.448.894zm6.336.912l-.695.719.007.006.006.006.682-.732zm.912-5.56c-.951 0-1.902.033-2.853.098l.137 1.995a39.51 39.51 0 0 1 2.716-.094v-2zm-2.853.098l-2.784.192.137 1.995 2.784-.192-.137-1.995zm-1.746 1.434l2.884-11.773-1.946-.463-2.877 11.747 1.939.489zm2.882-11.766l2.972-11.747-1.935-.504-2.979 11.773 1.942.478zm2.161-11.011a64.11 64.11 0 0 1 2.032-.284l-.248-1.985-2.096.293.312 1.976zm2.027-.283a62.82 62.82 0 0 0 2.439-.341l-.316-1.975c-.788.126-1.575.236-2.362.331l.239 1.986zm2.439-.341l2.275-.332-.259-1.983a81.47 81.47 0 0 0-2.332.34l.316 1.975zm2.27-.331c.779-.098 1.441-.196 1.98-.297l-.369-1.966a31.73 31.73 0 0 1-1.859.279l.248 1.985zm.876-1.674a197.55 197.55 0 0 0-4.776 12.254l1.887.663c1.433-4.075 3.008-8.118 4.728-12.13l-1.839-.788zm-4.777 12.258l-4.226 12.293 1.893.646 4.223-12.283-1.89-.655zm-3.799 20.151c0 .445-.105.907-.336 1.396l1.807.856c.345-.727.529-1.481.529-2.252h-2zm-.354 1.436c-.198.471-.498.9-.914 1.291l1.368 1.459a5.76 5.76 0 0 0 1.389-1.973l-1.843-.776zm-.889 1.267c-.395.346-.912.638-1.578.86l.633 1.897c.87-.29 1.633-.702 2.262-1.252l-1.317-1.505zm-1.612.872c-.635.238-1.393.368-2.289.368v2c1.087 0 2.09-.158 2.991-.496l-.702-1.873zm-2.289.368c-.543 0-1.003-.103-1.399-.289l-.851 1.81c.692.326 1.448.479 2.25.479v-2zm-1.399-.289c-.427-.201-.756-.454-1.006-.749l-1.527 1.292c.454.536 1.022.956 1.682 1.267l.851-1.81zm-.956-.684a4.94 4.94 0 0 1-.638-1.24l-1.886.666a6.93 6.93 0 0 0 .897 1.736l1.627-1.162zm-.638-1.24c-.157-.444-.231-.875-.231-1.299h-2a5.86 5.86 0 0 0 .345 1.965l1.886-.666zm-.231-1.299c0-.501.078-.964.231-1.395l-1.886-.666c-.232.657-.345 1.346-.345 2.061h2zm.236-1.412c.151-.451.369-.822.65-1.126l-1.469-1.357c-.487.528-.845 1.15-1.078 1.85l1.897.632zm.648-1.124a4.16 4.16 0 0 1 1.203-.89l-.895-1.789a6.16 6.16 0 0 0-1.773 1.318l1.465 1.361zm1.184-.881c.446-.211 1.013-.336 1.732-.336v-2c-.946 0-1.819.164-2.588.528l.856 1.807zm1.732-.336c1.71 0 2.808.413 3.481 1.063l1.389-1.439c-1.182-1.142-2.869-1.625-4.87-1.625v2zm3.494 1.076c.755.702 1.074 1.44 1.074 2.244h2c0-1.436-.609-2.682-1.711-3.708l-1.363 1.464z" class="B"/></g><defs><filter id="A" x="30.279" y="52.816" width="144.441" height="41.336" filterUnits="userSpaceOnUse" color-interpolation-filters="sRGB"><feFlood flood-opacity="0" result="A"/><feColorMatrix in="SourceAlpha" values="0 0 0 0 0 0 0 0 0 0 0 0 0 0 0 0 0 0 127 0" result="B"/><feOffset dx="-2" dy="2"/><feComposite in2="B" operator="out"/><feColorMatrix values="0 0 0 0 0.266667 0 0 0 0 0.266667 0 0 0 0 0.266667 0 0 0 1 0"/><feBlend in2="A"/><feBlend in="SourceGraphic"/></filter></defs></svg>