<svg xmlns="http://www.w3.org/2000/svg" width="100%" height="100%" viewBox="0 0 188 149" fill="none"><path fill="#444" d="M135 55c4 4 48-9 48-9s-41 17-42 26c-1 8 37 33 37 33s-39-25-44-19c-5 5 13 35 13 35s-21-28-29-25c-7 4 0 52 0 52s-14-46-20-46c-7 0-13 34-13 34s-1-29-7-31c-5-3-44 41-44 41s29-46 26-51-54 6-54 6 52-18 53-24c0-6-43-33-43-33s52 19 56 14-11-29-11-29 23 21 29 17-1-44-1-44 16 45 24 45c8 1 39-47 39-47s-21 51-17 55Z"/><path fill="#DF7D7D" d="M134 55c3 4 48-9 48-9s-42 17-43 26c0 8 38 33 38 33s-39-25-45-19c-5 5 14 35 14 35s-21-28-29-25c-8 4 0 52 0 52s-15-46-21-46-12 34-12 34-1-29-7-31c-5-3-44 41-44 41s29-46 26-51-54 6-54 6 51-18 52-24-42-33-42-33 52 19 56 14-12-29-12-29 23 21 29 17 0-44 0-44 16 45 24 45c8 1 39-47 39-47s-21 51-17 55Z"/><path fill="#444" fill-rule="evenodd" d="M121 36a29 29 0 0 0-10 2 38 38 0 0 0-10 6 18 18 0 0 0-5-4 17 17 0 0 0-9-2 14 14 0 0 0-6 3 15 15 0 0 0-5 5 21 21 0 0 0-13-6 19 19 0 0 0-10 2 16 16 0 0 0-8 11 14 14 0 0 0 3 12l1 1a12 12 0 0 0-3 3 15 15 0 0 0-3 14l2 4a15 15 0 0 0 10 6l3 1a22 22 0 0 0 11 22 25 25 0 0 0 13 3 31 31 0 0 0 17-4 21 21 0 0 0 6-5 20 20 0 0 0 3 2 23 23 0 0 0 12 5 22 22 0 0 0 15-4 20 20 0 0 0 7-14 19 19 0 0 0 0-5 27 27 0 0 0 13-13 23 23 0 0 0 2-11 21 21 0 0 0-8-14 23 23 0 0 0-10-5 12 12 0 0 0-2-6 14 14 0 0 0-2-3 16 16 0 0 0-7-5 21 21 0 0 0-7-1Zm0 1h1a21 21 0 0 1 9 2 16 16 0 0 1 6 7 14 14 0 0 1 1 4 24 24 0 0 0-6 0h1a19 19 0 0 1 2 0 25 25 0 0 1 3 1h1a24 24 0 0 1 12 7 22 22 0 0 1 5 9 21 21 0 0 1-3 17 25 25 0 0 1-8 8l-3 2a18 18 0 0 0-8-12 14 14 0 0 0-2-1l1 1a21 21 0 0 1 3 2 19 19 0 0 1 5 10l1 1a18 18 0 0 1-4 14 20 20 0 0 1-13 7 22 22 0 0 1-14-2 23 23 0 0 1-6-5 16 16 0 0 0 3-10 18 18 0 0 0-1-4v1a22 22 0 0 1 0 7 18 18 0 0 1-2 6 18 18 0 0 1-6 5 24 24 0 0 1-8 4 32 32 0 0 1-12 1 27 27 0 0 1-10-4 25 25 0 0 1-9-9 21 21 0 0 1-2-10 22 22 0 0 1 0-2 12 12 0 0 0 8-4h-1a15 15 0 0 1-3 3 13 13 0 0 1-4 0 13 13 0 0 1-7-1 15 15 0 0 1-5-6h-1a15 15 0 0 1 3-19l2-1a14 14 0 0 0 4 3l-1-1a15 15 0 0 1-3-2 14 14 0 0 1-4-8 14 14 0 0 1 4-13l3-2a16 16 0 0 1 6-2 19 19 0 0 1 12 2 21 21 0 0 1 5 3v1a21 21 0 0 1 4 5v1-1a16 16 0 0 0-3-4l-1-2a13 13 0 0 1 5-5 14 14 0 0 1 6-2h4a17 17 0 0 1 9 5h1a18 18 0 0 1 4 8v1-1a14 14 0 0 0-1-4 18 18 0 0 0-3-4 40 40 0 0 1 14-7 29 29 0 0 1 6 0Z" clip-rule="evenodd"/><path fill="#F0F0F0" d="M80 119c-6-1-12-4-16-8a21 21 0 0 1-6-17l1-1 3-1 3-1-4 2h-7a15 15 0 0 1-5-26l1-1 1 1 2 1h-1a14 14 0 0 1-6-16c0-3 2-5 4-7l8-4h7a21 21 0 0 1 14 10 21 21 0 0 0-3-5l1-1a14 14 0 0 1 15-6c6 1 10 5 12 11 1 2 1 2 1 0l-4-5v-1l6-4 9-3h9c6 1 10 4 12 9l1 4h-4 1c11 1 20 9 21 19 1 8-2 15-8 21l-6 3-1-1a18 18 0 0 0-7-9 20 20 0 0 1 7 11v7c0 4-2 7-5 10s-6 4-11 5a22 22 0 0 1-20-6v-1l1-1 2-9v-2 2c-1 6-2 10-6 13l-5 4c-5 2-11 3-17 3Zm27-23v1-1Z"/><path fill="#444" fill-rule="evenodd" d="M22 12a9 9 0 0 0-6 12 4 4 0 0 0-1 0l-1 1a5 5 0 0 0 0 3v2a7 7 0 0 0 1 3 6 6 0 0 0 3 1h1a7 7 0 0 0 0 2 6 6 0 0 0 4 3 6 6 0 0 0 5 0 6 6 0 0 0 3-3 6 6 0 0 0 0-2 10 10 0 0 0 3 0 13 13 0 0 0 3-1 8 8 0 0 0 2-1 6 6 0 0 0 2-3 5 5 0 0 0 0-3l-1-1h1a7 7 0 0 0 2-2 8 8 0 0 0 1-3 8 8 0 0 0-10-8 7 7 0 0 0-3 2 9 9 0 0 0-6-3 9 9 0 0 0-3 1Zm0 0a9 9 0 0 1 9 2l1 1 1 1v-1h-1l-1-1a9 9 0 0 1 3-2 7 7 0 0 1 4 0 7 7 0 0 1 4 2 7 7 0 0 1 2 3 7 7 0 0 1-7 9 8 8 0 0 1-2 0h-1 1a7 7 0 0 0 2 0 8 8 0 0 0 3-1v1a6 6 0 0 1 0 2 5 5 0 0 1-2 4 8 8 0 0 1-2 1 13 13 0 0 1-6 0l-2-1h-1l1 1a8 8 0 0 0 3 1v1a7 7 0 0 1-2 2 6 6 0 0 1-6 1 6 6 0 0 1-4-3v-2a6 6 0 0 0 0 1h-1a6 6 0 0 1-2-2l-1-1-1-2a7 7 0 0 1 0-2 5 5 0 0 1 1-2 5 5 0 0 1 2-1v-1l-1 1v-1a13 13 0 0 1 0-3 10 10 0 0 1 2-4 9 9 0 0 1 4-4Z" clip-rule="evenodd"/><path fill="#F0F0F0" d="M26 39a6 6 0 0 1-7-5v-1 1h-1l-3-2v-1l-1-3c0-2 1-3 3-4v-1h-1v1-1c0-4 1-8 5-10l3-1a9 9 0 0 1 9 3v1l-2-2 2-2h7l3 3a7 7 0 0 1-1 9l-3 1-2 1a11 11 0 0 1-3 0h5l1-1v1c1 2 0 5-2 6l-6 1-4-1h-1l2 1a9 9 0 0 0 2 1l-1 1c0 2-2 3-4 4Z"/><path fill="#444" d="m31 39 1-1 34 21-35-20Zm8-2 27 21-25-22-2 1Zm4-8 1-2 24 30-25-28Z"/><path fill="#444" fill-rule="evenodd" d="M181 140a9 9 0 0 0 1-5 8 8 0 0 0-1-4 6 6 0 0 0 3 0 6 6 0 0 0 2-1 6 6 0 0 0 1-6 5 5 0 0 0-3-3l1-1a7 7 0 0 0 1-2 8 8 0 0 0 1-5 8 8 0 0 0-2-4 7 7 0 0 0-5-2 7 7 0 0 0-6 3 7 7 0 0 0-2 3 5 5 0 0 0 0-1 6 6 0 0 0-7-2 7 7 0 0 0-2 1 7 7 0 0 0 0 11 7 7 0 0 0-3 0 9 9 0 0 0-6 3 9 9 0 0 0 1 13 10 10 0 0 0 10 2 8 8 0 0 0 1 0 8 8 0 0 0 5 4 8 8 0 0 0 6 0 8 8 0 0 0 4-4Zm0 0a8 8 0 0 1-2 2 8 8 0 0 1-6 2 8 8 0 0 1-5-2 8 8 0 0 1-2-4v-1 1a8 8 0 0 0 0 2 12 12 0 0 1-4 0 10 10 0 0 1-8-4 9 9 0 0 1-1-6 9 9 0 0 1 9-8h1a20 20 0 0 0 3 2l-2-2a17 17 0 0 1-1-1 6 6 0 0 1-2-3 6 6 0 0 1 0-5 6 6 0 0 1 10-1 7 7 0 0 1 1 1v1a7 7 0 0 0 0 1l1-1a8 8 0 0 1 0-3 7 7 0 0 1 4-3 7 7 0 0 1 6 0 7 7 0 0 1 3 4 8 8 0 0 1-1 8l-1 1h1a6 6 0 0 1 2 3 5 5 0 0 1-1 6 5 5 0 0 1-2 1 5 5 0 0 1-3 0 5 5 0 0 1-3-1v-1l-1-1v1a5 5 0 0 0 2 2h1a10 10 0 0 1 2 4 8 8 0 0 1-1 5Z" clip-rule="evenodd"/><path fill="#F0F0F0" d="M154 127a9 9 0 0 1 7-5h2l1 1a24 24 0 0 0 2 1l-1-1-2-2c-2-1-3-3-2-5v-2l2-2a6 6 0 0 1 6-1l3 2v2c1-3 2-5 4-6a7 7 0 0 1 10 3 8 8 0 0 1-2 8 254 254 0 0 0 0 1l3 3v5a5 5 0 0 1-8 1l-2-2 2 2 1 1 1 1a8 8 0 0 1-1 9 8 8 0 0 1-10 2l-1-1a8 8 0 0 1-3-5v3h-8c-2-1-5-4-5-7-1-2 0-4 1-6Z"/><path fill="#444" d="M163 108v1l-35-15 35 14Zm-7 2-29-15 28 16 1-1Zm-3 9v2l-27-25 27 23Z"/><path fill="#444" fill-rule="evenodd" d="M177 18a6 6 0 0 0-2-2 6 6 0 0 0-3-1 7 7 0 0 0-11-4h-1a5 5 0 0 0-1 0 6 6 0 0 0-2-1 6 6 0 0 0-5 11 7 7 0 0 0 4 2h1l-1 1a6 6 0 0 0 0 2 8 8 0 0 0 1 4 8 8 0 0 0 6 4 8 8 0 0 0 3 0 6 6 0 0 0 2 2l1 1a6 6 0 0 0 4 0 6 6 0 0 0 2-1 7 7 0 0 0 3-4 9 9 0 0 0 0-4 10 10 0 0 0-1-3 6 6 0 0 0 1-3 6 6 0 0 0-1-4Zm-1 0a6 6 0 0 1 0 7v1h-1 1a6 6 0 0 0 1-1v1a13 13 0 0 1 1 2 10 10 0 0 1-1 4 8 8 0 0 1-2 3 6 6 0 0 1-2 1 5 5 0 0 1-4 0 5 5 0 0 1-2-2 6 6 0 0 1-1-2v-1 3a9 9 0 0 1-3 0 8 8 0 0 1-3-1 8 8 0 0 1-4-8l1-1v-1a6 6 0 0 0 2 0h-1a9 9 0 0 1-2 0 6 6 0 0 1-4-5v-2a6 6 0 0 1 8-5 6 6 0 0 0-1 2v1l1-1a7 7 0 0 1 2-2 6 6 0 0 1 7 0 6 6 0 0 1 2 5 6 6 0 0 1 0 2v1h-1 1a6 6 0 0 0 1-3v-1a9 9 0 0 1 1 1 6 6 0 0 1 3 2Z" clip-rule="evenodd"/><path fill="#F0F0F0" d="M157 30a8 8 0 0 1 0-6v-1h2l-4-1-3-2a6 6 0 0 1 8-9v1l-1 1v1l1-2 1-1c2-1 4-2 6-1s4 3 4 5v4s-1 0 0 0v-1l1-2v-1a6 6 0 0 1 4 4c2 2 1 4 0 6l-1 1 1-1h1v9l-4 2h-4c-2-1-3-2-3-4v-1 1a6 6 0 0 0 0 2h-1l-5-1-3-3Z"/><path fill="#444" d="m151 23 1 1-21 31 20-32Zm1 8-20 25 21-23-1-2Zm8 4 2 2-30 20 28-22Z"/><path fill="#444" fill-rule="evenodd" d="M0 118a9 9 0 0 0 4 5 9 9 0 0 0 5 1 8 8 0 0 0 8 13 6 6 0 0 0 0 2 8 8 0 0 0 2 4 9 9 0 0 0 4 2 10 10 0 0 0 5 0h2a12 12 0 0 0 7-7 12 12 0 0 0 0-6 11 11 0 0 0-3-6 10 10 0 0 0-2-2l1-1a9 9 0 0 0 2-3 9 9 0 0 0-4-10 10 10 0 0 0-5-2v-1a12 12 0 0 0-1-3 13 13 0 0 0-5-5 10 10 0 0 0-6-1 9 9 0 0 0-8 8 9 9 0 0 0-4 3 9 9 0 0 0-2 8v1Zm1-1a10 10 0 0 1 0-1 8 8 0 0 1 0-5 9 9 0 0 1 7-5 9 9 0 0 1 3 0l1 1-1-1a7 7 0 0 0-3 0 9 9 0 0 0-1 0v-1a10 10 0 0 1 2-4 9 9 0 0 1 5-2h3a10 10 0 0 1 6 3 13 13 0 0 1 3 6 9 9 0 0 0-4 1 9 9 0 0 0-3 2l1-1a11 11 0 0 1 2-1 10 10 0 0 1 6 1 9 9 0 0 1 5 13l-1 1a10 10 0 0 0-4-1 12 12 0 0 1 4 1 10 10 0 0 1 5 8 11 11 0 0 1-1 5 12 12 0 0 1-6 7 11 11 0 0 1-4 1 9 9 0 0 1-5-1 8 8 0 0 1-3-5l-1-1v-1a8 8 0 0 0 4-3h1v-1l-1 1a8 8 0 0 1-3 2 8 8 0 0 1-7-1 8 8 0 0 1-2-10 8 8 0 0 1 5-3l1-1h-1a8 8 0 0 0-4 2l-1 1a11 11 0 0 1-3-1 9 9 0 0 1-5-6Z" clip-rule="evenodd"/><path fill="#F0F0F0" d="M34 116v4l-1 3-1 1a10 10 0 0 0-4-1h1l4 2 4 6c0 3 0 6-2 9s-6 5-9 5l-5-1a8 8 0 0 1-4-6v-1h1a8 8 0 0 0 4-4l-1 1-2 2-3 1c-3 0-6-2-8-4v-7l4-4 3-1-2 1-4 2H8l-3-2a9 9 0 0 1 2-15l4-1h1-2a9 9 0 0 0-3 0c0-3 2-5 4-6l3-1h4l3 2 4 5 1 2h-1l-5 2-1 1h1c2-2 3-2 6-2a9 9 0 0 1 8 7Z"/><path fill="#444" d="m38 123-1-2 35-27-34 29Zm1-10 32-20-33 18 1 2Zm-8-7-1-2 41-13-40 15Z"/><g filter="url(#a)"><path fill="#FBDA00" d="m55 78-1 4-2 3-3 2a25 25 0 0 1-15 3l3-17 3-17a79 79 0 0 1 11-2l2 1 3 1a6 6 0 0 1 2 5v3l-2 3-2 3-3 1 2 1a8 8 0 0 1 2 3v3Zm-11-5a50 50 0 0 1-1 5v2h2l2-1 2-1 1-2-1-1-1-1-1-1h-3Zm2-12a74 74 0 0 1-1 6 17 17 0 0 0 4-1l2-1v-2l-1-1-2-1h-2Zm27 28h-2l-3 1a843 843 0 0 1 1-8h-4l-2 7a862 862 0 0 1-8 1 9107 9107 0 0 1 10-34 253 253 0 0 0 13-2 385 385 0 0 0-2 35h-3Zm-7-12h3a15 15 0 0 1 0-3 140 140 0 0 0 1-9l1-4h-1l-1 4-3 12Zm12 13a1710 1710 0 0 0 7-35h7a222 222 0 0 1 3 17 308 308 0 0 0 4-17l5-1a458 458 0 0 0-7 34 110 110 0 0 0-7 2 333 333 0 0 0-3-14 171 171 0 0 0-2 13l-7 1Zm49-18-2 8c-1 3-2 5-4 6l-5 4-4 1-4-1-3-2-1-4-1-5 2-11 4-8 6-4 6-2 3 1 2 2 2 2v3l-6 2-2-3-1-1-3 2-3 4a36 36 0 0 0-3 12l1 5 3 1 2-1 1-1 2-2v-3l-5 1 1-5a799 799 0 0 0 12-1Zm9 7h-6a896 896 0 0 0 8-24 62 62 0 0 0 7-1 196 196 0 0 0-9 25Zm0 7v2l-1 2-2 1h-4l-2-1-1-2a5 5 0 0 1 0-3l1-2 2-1h2l4 1 1 3Zm14-7h-6a896 896 0 0 0 8-24 62 62 0 0 0 7-1 196 196 0 0 0-9 25Zm1 7-1 2-1 2-2 1h-4l-2-1-1-2a5 5 0 0 1 0-3l1-2 2-1h2l4 1 2 3Zm13-7h-5a896 896 0 0 0 7-24 62 62 0 0 0 7-1 196 196 0 0 0-9 25Zm1 7-1 2-1 2-2 1h-4l-2-1-1-2a5 5 0 0 1 0-3l1-2 2-1h2l4 1 2 3Z"/><path fill="#444" d="M54 82h1-1Zm-2 3h1-1Zm-3 2v1-1Zm-4 2v1-1Zm-4 1v1-1Zm-7 0h-1l-1 1h1l1-1Zm3-17h-1 1Zm3-17v-1h-1v1h1Zm5-1v1-1Zm8 0v1-1Zm3 1-1 1 1-1Zm1 2Zm1 6h-1 1Zm-2 3h-1 1Zm-2 3h1-1Zm-3 1v-1l-2 1 2 1v-1Zm2 1-1 1 1-1Zm1 1-1 1 1-1Zm1 2-1 1 1-1Zm-11-2v-1h-1v1h1Zm0 2h-1 1Zm0 2h-1 1Zm-1 1h-1 1Zm0 2h-1v2l1-1v-1Zm2 0v-1 1Zm2-1 1 1-1-1Zm2-1 1 1-1-1Zm0-3h-1 1Zm-1-1v1-1Zm-1-1-1 1 1-1Zm-1-12v-1l-1 1h1Zm0 2-1-1 1 1Zm0 1h1-1Zm0 2-1-1 1 1Zm-1 1h-1v1h2l-1-1Zm2-1 1 1-1-1Zm2 0 1 1-1-1Zm2-1-1-1 1 1Zm0-2h-1 1Zm-1-1-1 1 1-1Zm-2-1v1-1Zm6 17v3l1 1 1-4h-2Zm0 3-2 3 1 1 2-3-1-1Zm-2 3-4 2 1 2 4-3-1-1Zm-3 2-4 2v2l4-2v-2Zm-4 2-4 1v2l4-1v-2Zm-4 1h-4v2h4v-2Zm-4 0h-3l-1 2h4v-2Zm-3 1 4-17h-2l-3 17h1Zm4-17 3-17h-2l-3 17h2Zm2-16 5-1v-2l-5 1v2Zm5-1 6-1v-2l-6 1v2Zm6-1 2 1v-2l-2-1v2Zm2 1 2 1 1-2-3-1v2Zm2 1 2 1 1-1-2-2-1 2Zm2 1v3h2l-1-4-1 1Zm0 3v3l1 1 1-4h-2Zm0 3-2 3 2 1 1-3-1-1Zm-2 3-2 2 2 1 2-2-2-1Zm-2 2-2 1 1 2 2-2-1-1Zm-2 3 1 1 1-2-1-1-1 2Zm1 1 1 1 2-1-2-2-1 2Zm1 1 1 2 2-1-1-2-2 1Zm1 2v2h2v-3l-2 1Zm-11-3v2h2v-2h-2Zm0 2v2h2v-2h-2Zm0 2-1 1 2 1 1-2h-2Zm-1 1v2l2 1v-2l-2-1Zm1 3h2v-2l-2 1v1Zm2 0 3-1-1-1h-2v2Zm3-1 2-1-2-2-1 2 1 1Zm2-1 1-3h-2l-1 1 2 2Zm1-3-1-2-2 1 1 1h2Zm-1-2-1-1-1 2 2-1Zm-1-1-2-1-1 2 2 1 1-2Zm-2-1h-2v2h1l1-2Zm-2 0v2-2Zm0 0h-1l1 2v-2Zm0-11v1l2 1v-1l-2-1Zm0 1v2h2v-1l-2-1Zm0 2v1l2 1v-2h-2Zm0 1-1 2h2l1-1-2-1Zm1 3 2-1-1-1h-2l1 2Zm2-1h2l-1-2-2 1 1 1Zm2 0 1-1-1-2-1 1 1 2Zm1-1 1-2h-2l1 2Zm1-2v-2l-2 1v1h2Zm0-2-2-1-1 2h1l2-1Zm-2-1-2-1v2l1 1 1-2Zm-2 0-1-1v2h1v-1Zm-1-1h-1v2h1v-2Zm26 29v-1 1Zm-2 0-1-1 1 1Zm-3 1h-1v1h1v-1Zm0-3h1-1Zm1-3h-1 1Zm0-2h1v-1h-1v1Zm-4 0v-1h-1v1h1Zm-2 7v1h1v-1h-1Zm-3 0v1-1Zm-2 0-1-1 1 1Zm-3 1-1-1-1 2h2v-1Zm3-13h1-1Zm2-5-1-1 1 1Zm2-6h-1 1Zm1-5h1-1Zm2-5v-1h-1v1h1Zm6-1v-1 1Zm7-1 1 1v-2h-1v1Zm-1 4h-1 1Zm0 5h1-1Zm0 6h1-1Zm0 6h-1 1Zm-1 14v1h1v-1h-1ZM66 77h-1v1h1v-1Zm0 0v1h1l-1-1Zm2 0v1-1Zm1 0v1-1Zm0 0 1 1v-1h-1Zm0-1h-1 1Zm0-2h-1 1Zm1-2h-1 1Zm0-2h1-1Zm0-5h1-1Zm1-4h1v-1h-1v1Zm-1 0v-1h-1v1h1Zm-1 4h-1 1Zm4 23h-3l1 2h2v-2Zm-3 0-2 1v2l3-1-1-2Zm-1 2v-3h-2v3h2Zm0-3 1-3h-2l-1 3h2Zm1-3v-2h-2v2h2Zm-1-3h-4v2h4v-2Zm-5 1-2 6 2 1 2-7h-2Zm-1 6h-3v2h3v-2Zm-3 0h-3l1 2h2v-2Zm-3 0-3 1 1 2 3-1-1-2Zm-2 2 4-13h-2l-3 12 1 1Zm4-13 2-5-2-1-2 6h2Zm2-5 2-6h-2l-2 5 2 1Zm2-6 1-5-2-1-1 6h2Zm1-5 2-5h-2l-2 4 2 1Zm1-4 6-1v-2l-6 1v2Zm6-1 7-1v-2l-7 1v2Zm6-2-1 4h2l1-3-2-1Zm-1 4v5h2v-5h-2Zm0 5v6h2v-6h-2Zm0 6v6h2v-6h-2Zm0 6-1 14h2l1-14h-2Zm0 13h-3v2h3v-2ZM66 78v-2 2Zm1 0h1v-2h-2l1 2Zm1 0h1v-2h-2l1 2Zm1 0h1l-1-2v2Zm1-1v-1h-2v1h2Zm0-1v-2h-2v2h2Zm0-2 1-2h-2l-1 2h2Zm1-2v-2h-2v2h2Zm0-2v-5h-2v5h2Zm0-5 1-4h-2l-1 4h2Zm0-5h-1v2h1v-2Zm-2 1-1 4h2l1-4h-2Zm-1 4-3 12h2l3-12h-2Zm10 25h-1v2l1-1v-1Zm3-13h1-1Zm1-6h-1 1Zm1-6h1-1Zm1-5h1-1Zm0-5v-1h-1v1h1Zm4 0v1-1Zm2 0v-1 1Zm2 0 1-1h-1v1Zm1 6h-1 1Zm1 6h-1 1Zm1 5h-1 2-1Zm1-3 1 1-1-1Zm0-2h-1 1Zm1-3h-1 1Zm0-3h-1 1Zm2-6v-1h-1v1h1Zm5-1h1l1-1h-2v1Zm-2 14h1-1Zm-2 6-1-1 1 1Zm-1 5h1-1Zm0 5h1-1Zm-1 4v1h1v-1h-1Zm-1 0v1-1Zm-2 1-1-1 1 1Zm-3 0v-1 1Zm-2 1h-1v1h2l-1-1Zm0-7h-1 1Zm-1-4-1 1 1-1Zm0-3h1-1Zm0-2h1-1Zm-1-2 1-1h-2l1 1Zm-1 4h-1 1Zm0 3h1-1Zm-1 3h-1 1Zm-1 7v1l1-1h-1Zm-6 1 3-13h-2l-3 13h2Zm3-13 1-6h-2l-1 6h2Zm1-6 1-6h-2l-1 6h2Zm1-6 1-5h-2l-1 5h2Zm1-5v-5h-2v5h2Zm-1-4h1v-2h-1v2Zm1 0h1v-2h-1v2Zm1 0h2v-2h-2v2Zm2 0h2v-2h-2v2Zm2 0h2v-2h-2v2Zm1-1 1 6h2l-1-7-2 1Zm1 6 1 6h2l-1-6h-2Zm1 6 1 5 2-1-1-4h-2Zm3 5 1-2-2-1-1 2 2 1Zm1-2v-3h-2v2l2 1Zm0-3 1-3h-2l-1 3h2Zm1-3v-3h-2v3h2Zm0-3 2-6h-2l-2 6h2Zm1-5 6-1-1-2-5 1v2Zm5-2c-2 5-3 9-3 14h2l2-14h-1Zm-3 14-2 5 2 1 2-6h-2Zm-2 5-1 6h2l1-5-2-1Zm-1 6v5h2v-5h-2Zm0 5-1 4h2l1-4h-2Zm0 3h-1v2a29 29 0 0 1 1 0v-2Zm-1 0-3 1 1 2 2-1v-2Zm-3 1h-2v2h3l-1-2Zm-2 0-2 1 1 2 1-1v-2Zm-1 2v-8l-2 1v7h2Zm0-8-1-3-2 1 1 3 2-1Zm-1-3v-3l-2 1v3l2-1Zm0-3v-2h-2v3l2-1Zm0-2-1-3-2 1 1 2h2Zm-3-3v3h2v-2l-2-1Zm0 3-1 2h2l1-2h-2Zm-1 2v3h2v-3h-2Zm0 3-1 3h2l1-3h-2Zm-1 3-1 6 2 1 1-7h-2Zm0 6-7 1v2l7-1v-2Zm42-16h1v-2l-1 1v1Zm-2 8 1 1-1-1Zm-4 6Zm-5 4v-1 1Zm-8 0v1-1Zm-3-2v1-1Zm-1-4h1-1Zm1-16h1-1Zm4-8-1-1 1 1Zm6-4v-1 1Zm9-1v1-1Zm2 2Zm2 2h-1v1l1-1Zm0 3v1h1v-1h-1Zm-6 2h-1v1h1v-1Zm-2-3v1-1Zm-4 1h1-1Zm-3 4 1 1-1-1Zm-3 12h-1 1Zm1 5h-1 1Zm5 0h-1 1Zm1-1 1 1-1-1Zm2-2h-1 1Zm0-3 1 1v-2h-1v1Zm-5 1h-1v1h1v-1Zm1-5v-1l-1 1h1Zm5 0-1-1 1 1Zm3-1v-1 1Zm3 0-2 8 2 1 2-9h-2Zm-2 8-3 6 1 1 4-6-2-1Zm-3 6-5 3 1 2 5-4-1-1Zm-5 3-4 1v2l5-1-1-2Zm-4 1-3-1-1 2 4 1v-2Zm-3-1-3-2-1 2 3 2 1-2Zm-3-2-1-3h-2l2 5 1-2Zm-1-3-1-5h-2l1 5h2Zm-1-5c0-4 0-8 2-11l-2-1-2 12h2Zm2-11 4-7-2-2-4 8 2 1Zm4-7 5-5v-1l-7 4 2 2Zm5-5 6-1v-2l-6 2v1Zm6-1 3 1 1-2-4-1v2Zm3 1 2 1 1-1-2-2-1 2Zm2 1 1 2h2l-2-3-1 1Zm1 3v2h2v-3l-2 1Zm1 1-7 2 1 2 6-2v-2Zm-5 2-2-3-1 2 1 2 2-1Zm-2-3-2-1v2l1 1 1-2Zm-2-1-4 2 2 1 2-1v-2Zm-4 2-2 5 1 1 3-5-2-1Zm-2 5-3 6h2l2-5-1-1Zm-3 6-1 6h2l1-6h-2Zm-1 6 1 5 2-1-1-4h-2Zm1 5 4 2v-2l-2-1-2 1Zm4 2 2-1-1-1h-1v2Zm2-1 2-1-1-2-2 2 1 1Zm2-1 2-3h-2l-1 1 1 2Zm2-3v-2l-2-1v3h2Zm-1-4-5 1v2l6-1-1-2Zm-4 2 1-4-2-1-1 5h2Zm0-4h5l-1-2h-4v2Zm5 0 4-1-1-2-4 1 1 2Zm4-1h3v-2h-4l1 2Zm12 6v1h1v-1h-1Zm-3 0v1-1Zm-3 0h-1v1h1v-1Zm3-12h-1 1Zm3-12v-1l-1 1h1Zm2 0v-1 1Zm3 0v1-1Zm2-1v-1 1Zm2 0 1 1 1-2h-2v1Zm-5 12h-1 1Zm-4 22h-1 1Zm-1 2h1-1Zm-2 1v-1 1Zm-4 0v-1 1Zm-2-1h-1 1Zm-1-2-1 1 1-1Zm0-3h1-1Zm1-2Zm2-1-1-1 1 1Zm6 1-1 1 1-1Zm1-5h-3v2h3v-2Zm-3 0h-3v2h3v-2Zm-2 1 3-12h-2l-3 12h2Zm3-12 3-11-2-1-3 12h2Zm2-11h2v-2h-2v2Zm2 0h3v-2h-3v2Zm3 0 2-1v-2l-2 1v2Zm2-1h2v-2h-2v2Zm1-1-5 12 2 1 5-12-2-1Zm-5 12-4 12 2 1 4-12-2-1Zm-4 20v2h2v-2h-2Zm0 2-1 1 2 1 1-2h-2Zm-1 1-1 1v2l3-2-2-1Zm-1 1h-3v2h3v-2Zm-3 0h-1l-1 2h2v-2Zm-1 0-1-1-2 1 2 2 1-2Zm-1-1-1-1-2 1 1 1 2-1Zm-1-1v-1h-2v2l2-1Zm0-1v-2h-2v2h2Zm0-2 1-1-1-1-2 2h2Zm1-1 1-1-1-2-1 2 1 1Zm1-1h2v-2h-3l1 2Zm2 0 3 1 2-2-5-1v2Zm3 1 1 2h2l-1-4-2 2Zm16-5v1h1v-1h-1Zm-3 0v1-1Zm-3 0-1 1h2l-1-1Zm3-12h-1 1Zm3-12v-1 1h-1 1Zm2 0v-1 1Zm3 0v1-1Zm2-1v-1 1Zm2 0 1 1 1-2h-2v1Zm-5 12h-1 1Zm-4 22h-1 1Zm-1 2h1-1Zm-2 1v-1 1Zm-4 0v-1 1Zm-2-1h-1 1Zm-1-2-1 1 1-1Zm0-3h1-1Zm1-2Zm2-1-1-1 1 1Zm6 1-1 1 1-1Zm1-5h-3v2h3v-2Zm-3 0h-3l1 2h2v-2Zm-2 1 3-12h-2l-2 12h1Zm3-12 3-11-2-1-3 12h2Zm2-11h3l-1-2h-2v2Zm3 0h2v-2h-3l1 2Zm2 0 2-1v-2l-2 1v2Zm2-1h2v-2h-2v2Zm1-1-5 12 2 1 5-12-2-1Zm-5 12-4 12 2 1 4-12-2-1Zm-3 20-1 2h2l1-2h-2Zm-1 2-1 1 2 1 1-2h-2Zm-1 1-1 1v2l3-2-2-1Zm-1 1h-3v2h3v-2Zm-3 0h-1l-1 2h2v-2Zm-1 0-1-1-2 1 2 2 1-2Zm-1-1-1-1-2 1 1 1 2-1Zm-1-1v-1h-2v2l2-1Zm0-1v-2h-2v2h2Zm0-2 1-1-1-1-2 2h2Zm1-1 1-1-1-2-1 2 1 1Zm1-1h2v-2h-3l1 2Zm2 0 3 1 2-2-5-1v2Zm3 1 2 2h2l-2-4-2 2Zm16-5v1h1v-1h-1Zm-3 0v1-1Zm-2 0h-1l-1 1h2v-1Zm2-12h-1 1Zm3-12v-1 1h-1 1Zm2 0v-1 1Zm3 0v1-1Zm2-1v-1 1Zm2 0 1 1 1-2h-2v1Zm-5 12h-1 1Zm-4 22h-1 1Zm-1 2h1-1Zm-2 1v-1 1Zm-4 0v-1 1Zm-2-1h-1 1Zm-1-2v1-1Zm0-3h1-1Zm1-2Zm2-1-1-1 1 1Zm6 1-1 1 1-1Zm1-5h-3v2h3v-2Zm-3 0h-3l1 2h2v-2Zm-2 1 3-12h-2l-2 12h1Zm3-12 3-11-2-1-3 12h2Zm3-11h2l-1-2h-2l1 2Zm2 0h2v-2h-3l1 2Zm2 0 2-1v-2l-2 1v2Zm2-1h2v-2h-2v2Zm1-1-5 12 2 1 5-12-2-1Zm-5 12-4 12 2 1 4-12-2-1Zm-3 20-1 2h2l1-2h-2Zm-1 2-1 1 2 1 1-2h-2Zm-1 1-1 1v2l3-2-2-1Zm-1 1h-3v2h3v-2Zm-3 0h-1l-1 2h2v-2Zm-1 0-1-1-2 1 2 2 1-2Zm-1-1-1-1-1 1v1l2-1Zm-1-1v-1h-2l1 2 1-1Zm0-1v-2h-1l-1 2h2Zm0-2 1-1-1-1-1 2h1Zm1-1 1-1-1-2-1 2 1 1Zm1-1h2v-2h-3l1 2Zm2 0 3 1 2-2-5-1v2Zm3 1 2 2h2l-2-4-2 2Z"/></g><defs><filter id="a" width="141.5" height="39.2" x="31.5" y="54" color-interpolation-filters="sRGB" filterUnits="userSpaceOnUse"><feFlood flood-opacity="0" result="BackgroundImageFix"/><feColorMatrix in="SourceAlpha" result="hardAlpha" values="0 0 0 0 0 0 0 0 0 0 0 0 0 0 0 0 0 0 127 0"/><feOffset dx="-2" dy="2"/><feComposite in2="hardAlpha" operator="out"/><feColorMatrix values="0 0 0 0 0.266667 0 0 0 0 0.266667 0 0 0 0 0.266667 0 0 0 1 0"/><feBlend in2="BackgroundImageFix" result="effect1_dropShadow_240_7064"/><feBlend in="SourceGraphic" in2="effect1_dropShadow_240_7064" result="shape"/></filter></defs></svg>