<svg xmlns="http://www.w3.org/2000/svg" width="100%" height="100%" viewBox="0 0 430 430" fill="none"><g clip-path="url(#A)"><path d="M401.968 127.359c-13.982-11.892-34.625-19.059-54.058-18.765 1.305-5.872-.85-12.643-1.781-18.489-1.644-10.32-2.817-20.81-3.294-31.255-.078-1.712-1.017-2.916-2.237-3.54-.223-1.628-.804-3.264-2.261-4.758-13.88-14.206-27.028-34.521-45.396-43.383-.679-3.773-3.387-7.111-8.404-7.151-47.094-.359-94.045 4.888-141.086 4.116-40.201-.658-79.157-6.03-117.982 6.954-3.011 1.008-3.855 4.559-2.669 6.896a5.15 5.15 0 0 0-.517 1.865C15.599 91.603 13.162 163.96 11.543 235.99l-1.999 99.65c-.679 21.288-4.295 47.296 3.09 67.875 10.185 28.387 75.486 24.681 97.44 25.802 71.898 3.657 143.664-8.629 215.634-6.021 6.345.23 9.127-4.991 8.598-9.904 3.278.783 6.843-.531 8.013-5.059 5.114-19.815 6.096-40.509 7.544-60.847 1.1-15.42 9.062-39.204 2.919-53.446-.153-.352-.456-.493-.66-.778 22.16-32.651 40.995-68.361 58.611-97.433a6.58 6.58 0 0 0 2.397-1.884c16.803-20.882 7.612-50.617-11.162-66.586zM287.993 17.241c10.567 14.033 21.588 28.033 33.636 40.826-3.266 1.388-6.447 3.083-9.585 4.468l-21.086 9.205c.014-18.082.048-36.782-3.567-54.365.185-.067.426-.06.602-.134zm45.727 318.332c-1.987 22.9-2.527 46.054-5.594 68.845-.06.461.056.85.065 1.286-.792-.241-1.538-.554-2.483-.586-51.055-1.601-101.844 3.261-152.776 6.075-26.173 1.448-52.276 1.399-78.451.135-35.561-1.719-67.939-1.636-67.596-42.626.966-115.58 13.787-233.53 4.211-348.814 37.544-2.092 74.836.975 112.358 2.703 43.678 2.013 88.069-2.764 131.883-4.276.216 22.244-1.082 44.229-1.603 66.533-.169 7.223 7.313 9.861 12.997 7.459l30.824-13.067c4.404-1.879 9.775-3.532 14.29-6.087-.623 5.464-1.017 10.961-1.195 16.49-.197 6.196-.707 15.082 2.81 20.819-1.668.392-3.378.679-4.983 1.209-1.216.401-2.085 1.165-2.761 2.05-1.283.336-2.555.913-3.741 2.062-52.239 50.562-79.083 123.263-140.266 165.174a6.73 6.73 0 0 0-1.976 2.073c-2.114.417-4.106 1.73-4.919 3.921-12.75 34.345-19.504 71.384-24.394 107.589-.762 5.636 2.191 10.952 8.448 11.091 39.035.866 73.403-17.89 110.681-26.273 4.674-1.047 6.411-4.672 6.177-8.329 22.212-12.58 41.563-31.753 58.908-53.782-.503 6.817-.496 13.535-.913 18.325zm-162.699 40.824c2.008 1.962 4.002 3.931 6.272 5.693 1.527 1.184 3.31 2.548 5.215 3.846-4.439.764-8.902 1.406-13.433 1.735.563-3.776 1.311-7.512 1.946-11.274zm9.995.868c-3.169-2.024-6.129-4.415-8.941-6.977l1.892-10.954c3.81 3.667 7.727 7.216 11.864 10.568 4.807 3.898 9.827 8.276 15.182 11.734l-7.313 1.983c-3.991-2.381-8.92-3.951-12.684-6.354zm-1.281-20.986c7.611 2.231 14.558 6.806 20.384 12.048 2.138 1.922 3.972 4.102 5.689 6.374-4.327-3.09-8.985-5.819-13.294-8.83-4.361-3.05-8.61-6.27-12.779-9.592zm27.921 2.277c-9.404-7.178-19.995-11.582-31.556-11.019l7.633-41.871c12.17 1.337 22.677 7.665 23.499 21.865.325 5.621 4.809 8.466 10.088 7.685 11.909-1.76 15.62 6.878 10.547 16.488-2.629 4.978.544 12.3 6.835 11.911 6.028-.373 10.776.954 15.411 2.655-9.131 2.677-18.153 5.758-27.187 8.749-3.648-6.644-10.185-12.581-15.27-16.463zm13.641-39.098c-1.014-2.872-2.469-5.45-4.113-7.857.301-.199.607-.389.871-.721 21.903-27.4 49.723-48.208 75.601-71.613 23.739-21.472 47.63-52.377 65.528-79.22l8.592 6.292c2.538 1.952 6.124 5.068 10.148 8.186-45.781 52.387-70.867 125.323-133.081 160.939-2.974-9.2-11.452-15.436-23.546-16.006zm62.459-90.088c-25.211 24.384-53.36 45.741-71.736 76.169-7.055-6.421-16.659-9.889-26.756-9.405l.588-3.657c.705-.125 1.425-.299 2.173-.709 63.395-34.806 92.896-106.275 140.155-158.109 5.955 7.658 14.512 14.436 23.017 20.642-26.958 20.347-43.339 51.757-67.441 75.069zm112.632-42.626c-40.291 60.698-77.43 118.769-126.581 172.676-4.503-7.257-14.76-10.375-24.178-11.339.433-2.427.463-4.72.315-6.937.118-.026.224-.007.345-.049 67.552-24.347 100.329-106.845 144.372-158.442 2.655 1.209 5.268 2.029 7.686 2.108-.702.551-1.392 1.126-1.959 1.983zm7.875-14.804a16.61 16.61 0 0 1-.871-1.019c-1.99-2.546-6.937-4.3-9.643-6.016-9.594-6.092-18.929-12.608-28.165-19.228-3.189-2.287-18.577-16.349-29.682-22.414.01-.053.037-.104.047-.157 16.914-.132 32.353 2.636 47.601 11.373 8.513 4.876 15.888 12.509 19.557 21.672 2.215 5.539 2.046 10.674 1.156 15.789z" fill="#444"/></g><defs><clipPath id="A"><path fill="#fff" d="M0 0h430v430H0z"/></clipPath></defs></svg>