<svg xmlns="http://www.w3.org/2000/svg" width="100%" height="100%" viewBox="0 0 22 22" fill="none"><path d="M10.999.229C4.925.229 0 5.173 0 11.273c0 4.878 3.152 9.017 7.524 10.479.55.102.751-.239.751-.532l-.015-1.878c-3.059.667-3.706-1.481-3.706-1.481-.499-1.276-1.221-1.616-1.221-1.616-1-.685.074-.671.074-.671 1.104.078 1.684 1.138 1.684 1.138.982 1.687 2.575 1.2 3.202.917.099-.714.384-1.2.698-1.477-2.442-.279-5.01-1.226-5.01-5.457a4.28 4.28 0 0 1 1.133-2.965c-.114-.279-.491-1.402.107-2.922 0 0 .924-.297 3.025 1.132.877-.245 1.818-.367 2.754-.371a10.52 10.52 0 0 1 2.754.373c2.1-1.429 3.022-1.132 3.022-1.132.599 1.521.223 2.643.11 2.922a4.27 4.27 0 0 1 1.13 2.964c0 4.242-2.571 5.176-5.022 5.449.395.341.747 1.015.747 2.045l-.014 3.029c0 .296.198.639.756.531C18.851 20.288 22 16.15 22 11.273 22 5.173 17.075.229 10.999.229z" fill="#444"/></svg>