<svg xmlns="http://www.w3.org/2000/svg" width="596" height="596" fill="none"><g clip-path="url(#A)" fill="#444"><path d="M581.483 267.939c1.855-2.771 2.965-6.113 3.021-9.233 6.02-324.994-595.01-255.079-539.22-14.334C22.599 249.966 3.28 267.899.343 292.609c-3.219 27.095 16.613 37.697 38.615 38.377-2.551 9.26-3.673 18.969-2.384 27.898-28.498 29.231-20.224 55.686 3.243 73.226-12.411 7.176-17.605 22.667-16.251 40.925 2.31 31.151 28.572 56.591 55.398 68.819 68.134 31.062 159.772 4.997 232.246 5.655 63.217.576 339.659 1.355 245.387-126.227 24.423-18.06 28.491-45.327-7.232-86.567 8.345-.625 16.43-1.497 23.489-3.547 34.45-10.024 24.383-42.674 8.629-63.229zm-79.969-136.91c17.219 15.141 30.65 34.45 39.524 55.54 3.822 9.084 6.212 18.694 8.401 28.269a140.33 140.33 0 0 1 2.702 18.954c.841 8.428-4.171 17.067 4.422 13.014-45.371 21.408-104.21 25.564-153.189 31.633-61.161 7.581-123.148 11.301-184.764 9.273-32.041-1.055-118.472-.693-133.62-39.079-2.65-6.713-8.15-10.086-13.911-10.884C57.556 45.887 392.397 35.093 501.514 131.029zM23.072 285.696c4.82-11.326 15.175-20.314 26.423-26.721.931 2.792 1.837 5.581 2.944 8.417 2.022 5.182 6.15 7.587 10.305 7.822 41.391 56.452 158.835 49.059 216.109 47.99l2.356-.056c-5.318 13.382-10.429 25.79-21.526 36.469-16.919 16.288-38.494 8.657-54.325-4.499-4.498-3.738-9.844-1.969-12.398 1.611-.73-.893-1.676-1.632-3.036-1.923-19.986-4.285-35.904 14.099-51.589-9.285-3.46-5.157-10.216-5.027-13.7 0-11.477 16.567-24.683 28.866-45.825 29.262-29.055.544-27.833-29.886-18.926-49.041 2.616-5.621-.34-14.393-7.866-13.709-19.263 1.759-38.785-3.213-28.946-26.337zm316.435 240.9c-41.005.358-81.215 1.042-122.177 4.022-31.336 2.276-62.605 3.287-93.935.517-18.551-1.642-38.12-6.496-52.581-18.762-17.905-15.191-44.74-52.532-11.183-69.064 6.666 2.869 13.775 5.275 21.201 7.019 72.765 17.073 150.758 9.17 224.68 7.034 39.44-1.138 169.492 2.959 233.631-26.071 62.939 98.044-144.028 94.822-199.636 95.305zm196.862-114.361c-25.264 15.432-60.864 18.029-89.446 20.642-47.154 4.313-94.226 1.023-141.414 2.044-52.659 1.141-105.101 4.495-157.805 2.368-27.37-1.104-54.811-4.288-80.99-12.587-29.114-9.223-29.803-25.264-20.663-45.315 3.584 3.775 8.215 6.972 14.173 9.306 26.85 10.525 57.309-2.198 72.753-25.375 5.04 5.303 11.016 9.984 18.27 10.241 13.017.463 23.832-7.279 37.001-6.382 2.04.139 3.552-.755 4.601-2.056.327.507.522 1.026.992 1.518 18.388 19.225 42.236 25.947 66.773 14.464 16.56-7.752 29.095-26 33.696-44.768 17.327 30.341 50.15 41.268 78.457 15.688 22.481 46.274 92.943 66.817 114.707 7.634 6.564-17.849 24.268-21.866 43.543-23.61-.674 2.159-.491 4.533 1.187 6.787 16.994 22.797 35.585 50.207 4.165 69.401zm-11.508-91.616a6.41 6.41 0 0 0-3.416 0c-14.421 4.749-20.555 10.469-38.025 11.013-3.803.118-6.224 2.9-6.539 6.54-5.627 64.348-81.583 50.027-93.97-2.026-1.286-5.398-8.944-7.59-12.723-3.357-24.559 27.49-55.772 18.539-71.383-10.055 88.621-2.424 189.603-11.06 270.45-47.007.646 40.461-14.143 55.438-44.394 44.892zM170.079 141.05c-8.394 1.339-16.102-.495-24.169 3.249-10.608 4.929-11.975 19.167-11.969 29.259.003 2.863 1.633 6.45 4.406 7.681 6.24 2.77 11.49 3.948 18.276 2.921 3.977-.603 7.007-3.132 10.637-4.368 5.686-1.936 6.635-10.998 0-12.467-5.201-1.15-10.232.377-15.234-.176.204-2.332.55-4.638 1.224-6.892.563-1.877 1.834-2.829 2.73-3.383 4.799-2.971 11.759-5.179 17.399-7.998 4.681-2.341 1.144-8.537-3.3-7.826zm68.094-9.996c-.838-8.12-4.27-14.415-9.635-20.49-2.773-3.142-7.225-2.993-10.682-1.379-8.701 4.066-17.448 10.246-18.187 20.678-.522 7.384 3.686 13.821 4.567 20.991 1.045 8.5 12.711 8.781 13.434 0 .48-5.846-.488-11.461-1.026-17.259-.189-2.037-.309-1.802.594-2.798.828-.915 1.954-1.629 3.02-2.381 1.147 2.137 1.862 4.459 2.335 7.406 1.088 6.762 1.258 14.501 6.848 19.247 3.315 2.813 8.735 1.978 9.962-2.632 1.738-6.527-.538-14.649-1.23-21.383zm-44.252 79.388c-9.566.154-26.924.467-28.844 13.403-1.849 12.457 11.394 20.462 21.649 23.338 5.164 1.447 10.201-5.841 5.557-9.542l-9.656-7.603c-1.222-.949-2.301-2.047-3.321-3.203-.139-.158-.226-.352-.294-.526.028-.191.059-.426.198-.671.424-.754 1.376-1.388 2.069-1.883 4.093-2.918 8.793-5.775 13.403-7.705 2.78-1.165 2.721-5.67-.761-5.608zm305.187-2.004c-7.584 2.362-12.834 10.027-21.13 10.451-8.413.43-7.829-11.595-7.396-16.947.449-5.46-8.985-5.358-8.394 0 .93 8.466 2.557 20.812 11.638 24.469 9.928 4.001 25.205-2.318 30.971-10.574 2.557-3.661-1.651-8.657-5.689-7.399zm-37.804-68.037c-14.096 3.187-13.327 22.286-12.399 33.16.677 7.943 11.446 7.835 12.259 0 .412-3.973.662-9.424 2.765-12.936.742-1.243 1.471-2.396 2.139-3.686.04-.077.081-.108.121-.173 1.119.353 2.251 1.175 3.453 2.01 4.301 2.983 6.874 7.436 12.368 8.53 3.516.702 6.456-1.512 6.697-5.101.823-12.312-15.892-24.408-27.403-21.804z"/></g><defs><clipPath id="A"><path fill="#fff" d="M0 0h596v596H0z"/></clipPath></defs></svg>