<svg xmlns="http://www.w3.org/2000/svg" width="100%" height="100%" viewBox="0 0 144 190" fill="none"><path d="M2.276 42.254l.95-9.793L18.893 7.434l8.071-5.441 14.243 3.264 20.415 35.908 3.323-7.073 9.021-1.632 9.496 1.632 9.021 14.69 2.849-4.352 12.819-3.264 8.071 7.617 5.697 10.881 11.395 1.632 7.596 15.234v31.011l-6.646 33.187 6.646 13.602-4.747 14.145-16.143 13.058-22.789 6.528-18.041-2.176-10.92-8.161-5.222-16.321-25.638-20.675-9.021-15.233-3.798-10.881V98.292l2.374-9.249 8.071-4.353 3.798-1.632-3.798-9.793-3.323-11.969-4.748-11.425-2.374 3.264h-8.546l-8.071-3.264-5.697-7.617z" fill="#f6f6f6"/><path d="M22.93 1.485c-5.887 3.482-9.875 8.378-19.371 23.721-5.887 9.576-4.368 20.457 3.798 27.421 1.994 1.741 3.988 2.285 8.451 2.285 3.229 0 7.027-.326 8.356-.762 2.469-.87 2.659-.544 7.406 12.622 2.659 7.508 4.843 14.037 4.843 14.689s-1.234 1.197-2.754 1.197c-3.229 0-8.071 4.244-10.065 8.814-3.134 6.746-.475 29.597 4.463 38.955 5.507 10.337 15.763 20.783 28.297 28.617 4.843 3.047 5.697 4.026 5.697 6.638 0 7.834 5.887 16.539 14.053 20.674 17.662 9.14 49.851.217 61.816-17.084 4.842-6.964 5.222-17.301.854-25.244l-2.469-4.352 2.374-8.161c3.419-12.187 5.318-26.224 5.318-40.696.095-15.342-1.805-22.633-7.502-28.944-3.038-3.373-3.798-3.7-9.02-3.7-3.229 0-5.603-.435-5.603-1.197 0-.544-1.139-3.7-2.469-6.746-4.652-10.772-15.477-14.798-22.694-8.487-1.899 1.741-3.513 2.829-3.703 2.72-5.507-10.228-11.679-15.125-18.896-15.125-4.368 0-9.685 2.612-11.585 5.767-.76 1.306-1.519 2.067-1.804 1.741-.19-.218-2.564-5.549-5.317-11.752-5.223-11.969-11.3-20.565-16.617-23.394C34.894-.474 26.348-.582 22.93 1.485zm13.768 4.352c5.412 2.611 9.875 9.249 16.807 24.483 7.976 17.954 8.736 19.151 10.825 18.28 1.329-.653 1.424-1.197.57-3.047-1.519-3.156.475-8.27 4.083-10.446 3.988-2.285 10.255-1.306 14.433 2.285 1.899 1.741 4.368 5.658 6.172 9.902 1.614 3.917 3.323 7.073 3.798 7.073s1.804-1.959 2.849-4.352c2.184-4.896 4.273-6.529 8.736-6.529 6.742 0 13.009 8.27 13.104 17.192 0 4.244 2.184 5.658 4.653 3.047 4.748-4.896 13.198.762 15.762 10.555 3.134 12.296 1.14 39.716-4.273 57.996-3.893 13.058-6.931 18.39-13.293 22.851-6.552 4.57-20.605 8.922-31.905 9.793-11.11.979-18.326-1.415-30.765-10.011-23.169-15.995-28.866-24.482-31.81-47.768-1.329-10.664 2.754-20.13 8.641-20.13 2.944 0 3.134.218 3.798 5.005.285 2.829.38 7.943 0 11.425-.475 5.876-.38 6.42 1.234 6.42 4.463 0 4.463-15.778.095-30.576-3.988-13.166-9.875-28.726-12.914-33.949-1.899-3.373-2.659-3.917-3.703-2.938s-1.14 1.85-.475 3.264c1.614 3.373 1.14 4.244-3.038 4.897C7.642 52.626.046 40.004 6.787 28.579 12.959 18.024 20.556 7.687 23.404 6.055c3.798-2.067 9.211-2.176 13.294-.218zm101.316 150.704c.095 12.731-15.857 24.483-38.171 28.4-15.288 2.612-28.012-2.829-32.285-13.819-1.044-2.72-1.709-5.005-1.519-5.223s2.849.653 5.982 1.85c4.938 1.959 7.216 2.176 16.617 1.632 21.935-1.197 38.647-9.466 44.344-21.98l1.519-3.264 1.709 4.352c.95 2.394 1.804 5.985 1.804 8.052z" fill="#444"/></svg>