<svg xmlns="http://www.w3.org/2000/svg" width="100%" height="100%" viewBox="0 0 579 637" fill="none"><path d="M163.277 116.736l-48.839 121.605 8.737 69.166-10.904 1.273-34.985 15.364-30.032 60.552 20.917 95.144 40.183 34.29 45.16 2.663 21.419-21.783 64.081 16.849 135.375-34.555 43.996-55.051 31.432-31.069 53.688-66.11.175-29.346 1.15-44.181-4.078-33.367-25.203-2.195-.998-14.054 10.038-33.249-24.106-14.796-36.148 10.501-22.053 50.931-28.4 45.458-17.034 7.881 24.834-57.355 12.62-39.214 2.19-41.55-4.645-39.607-25.695-11.126-30.685 24.309-6.367 34.838-8.443 45.926-31.887 47.218-33.788 28.959-55.864-1.85-13.42-28.15 12.549-20.174 21.414-38.131-.7-41.167-26.707-21.372-28.978 6.524z" fill="#f6f6f6"/><path d="M368.904 74.609c-16.459.7-37.177 20.19-43.302 40.307-1.609 5.707-2.893 19.618-2.967 30.733.346 19.598.009 20.875-8.215 39.371-15.316 34.874-41.013 62.881-64.283 70.356-32.222 10.24-57.309 1.512-60.315-20.898-.827-6.05-.213-6.97 10.582-17.475 14.071-13.593 20.72-24.47 24.666-40.549 4.119-16.479 3.581-31.654-1.226-43.933-12.8-31.632-42.112-40.054-63.504-18.01-6.984 7.174-8.03 9.093-14.925 31.485-5.797 18.362-10.38 28.947-19.787 46.694-19.602 36.812-21.057 46.144-12.33 86.684l4.734 23.395-8.994.375c-11.241.588-21.853 6.191-34.61 17.744-8.859 8.023-10.519 10.861-19.599 31.833-8.129 18.774-10.257 25.679-11.567 38.157-3.14 31.133 5.735 69.84 22.114 95.194 11.104 17.141 22.254 26.712 39.669 34.252 12.516 5.42 16.49 6.192 29.165 5.276 17.799-1.306 32.092-7.45 39.664-16.979l5.636-7.046 11.247 4.87c6.168 2.67 20.362 6.207 31.368 7.652 39.43 5.452 83.48-2.75 132.329-24.527 35.992-15.96 48.049-26.393 60.923-51.651 4.609-9.152 10.298-18.31 12.519-19.957 2.126-1.925 11.401-11.903 20.313-22.037 9.179-10.256 21.021-22.679 26.336-27.493 15.774-14.042 25.542-26.651 31.249-39.833 4.843-11.185 5.225-15.052 4.689-35.206-.583-12.585-.075-29.679 1.035-38.211 3.208-27.309-7.766-47.239-25.763-46.968l-7.646.247 4.316-10.464c6.226-14.381 6.679-24.383 1.906-34.751-10.566-22.363-38.861-24.178-62.084-3.876-9.836 8.786-8.271 5.669-30.956 61.543-6.728 16.535-10.567 23.411-17.353 31.62l-8.817 10.413 16.821-41.337c18.361-45.888 20.283-54.306 20.525-96.655.315-33.067-11.885-51.157-33.563-50.345zm19.67 28.202c3.78 10.175 4.017 23.559.963 54.492l-2.438 25.034-16.752 40.181c-17.348 42.057-23.444 53.648-29.493 57.669-3.474 2.054-4.563 1.583-12.327-4.863-10.045-8.144-22.026-13.806-23.237-11.01-.432.999 1.131 2.862 3.67 3.961 6.894 2.985 20.737 17.28 27.23 28.155 11.216 18.375 20.801 51.461 21.363 73.049.11 6.214 1.238 14.055 2.196 17.316 1.139 3.339 1.129 7.841.264 9.838-.951 2.197-1.844 7.74-2.035 12.164-.279 4.623-2.641 13.561-5.227 20.031-4.834 11.662-4.834 11.662.266 4.858 5.454-7.125 7.338-7.495 8.796-1.409 1.069 4.495 5.526 7.136 6.824 4.14.518-1.198.139-2.311-.95-2.782-1.995-.864-4.223-25.072-2.58-28.867.778-1.797 2.765-1.411 6.048.959 2.738 2.134 5.182 2.955 5.528 2.156s-1.31-7.919-3.613-16.032c-7.377-25.251-.87-49.234 17.824-66.042 9.75-8.586 28.82-14.322 36.62-10.945 12.699 5.498 12.132 19.246-2.049 47.022-7.306 14.387-10.135 22.412-13.883 39.525-8.837 39.814-15.952 49.777-47.944 67.944-58.557 32.752-130.141 41.365-176.762 21.179-28.118-12.175-52.593-37.24-58.761-60.307-2.011-6.8-4.177-12.244-4.981-11.881-4.821 2.182 3.389 38.941 9.194 41.454 1.088.471 1.468 1.584 1.035 2.583-1.989 4.594-16.332-12.527-22.064-26.155-1.976-4.888-4.1-7.942-4.619-6.744-1.297 2.996 10.159 24.795 17.698 33.752 3.584 4.16 9.612 9.142 13.784 10.949 3.991 1.728 10.366 5.911 14.209 9.473 3.662 3.483 8.689 7.794 11.332 9.649 2.375 1.978 3.946 4.318 3.427 5.517-.432.998-6.758 4.663-13.991 7.935-16.341 7.392-30.847 6.566-48.65-2.566-33.878-17.277-55.403-74.032-46.553-123.326 6.313-34.977 29.186-64.918 51.823-67.45 3.595-.341 7.024.196 7.758.988 1.762 2.897-2.246 20.61-7.175 31.994-5.189 11.984-7.249 22.713-6.19 31.71 1.232 8.597 3.09 6.793 3.543-3.209.279-4.623 1.344-10.565 2.382-12.962 1.997-4.116 2.368-3.481 4.326 5.431 1.354 5.329 3.512 10.296 4.963 10.924 3.266 1.414 3.525.815 3.236-10.458-.179-5.058 1.71-20.367 3.902-33.886 4.321-25.404 4.178-33.53-1.754-63.61-6.148-32.071-6.399-30.994 21.551-94.55l24.309-55.645 8.494-3.2c21.724-8.382 40.652 18.55 35.826 51.088-3.872 25.361-17.426 42.735-47.431 61.287-8.011 5.069-14.951 9.654-15.211 10.253-1.47 3.395 5.797 2.036 17.765-3.218 12.591-5.695 13.852-5.624 13.203-1.636-1.327 11.522 10.589 28.777 24.013 34.589 11.247 4.87 33.496.748 65.408-11.761 15.105-6.03 16.885-7.156 11.201-7.958-4.061-.572-3.974-.772 5.049-9.672 16.008-16.074 25.301-30.076 33.31-50.562l7.144-18.49 4.974 6.423c6.174 8.128 16.841 15.83 18.052 13.034.519-1.198-2.278-6.678-6.337-12.23-13.392-19.318-15.757-46.194-6.245-68.164 10.983-25.365 40.429-29.692 48.749-7.116zm86.742 69.814c1.44 5.13.54 10.195-4.088 23.37-5.579 15.372-6.893 17.412-16.193 25.955-17.977 16.645-25.822 36.254-22.564 57.587 2.067 15.126-.968 21.638-10.247 21.178-16.312-1.133-41.771 14.881-53.416 33.318l-4.461 7.318-4.669-14.591c-2.39-7.913-7.457-19.594-10.901-26.066l-6.596-11.631 6.264-2.031c14.145-4.311 35.192-25.556 43.865-44.095 5.033-10.628 6.727-11.555 8.374-4.912.492 2.347 2.555 7.035 4.42 10.689 5.948 10.639 8.741 5.682 5.152-8.916-4.959-20.884-3.97-31.129 4.807-48.911 13.904-28.132 32.968-39.326 49.967-29.831 6.453 3.505 9.026 6.517 10.286 11.569zm21.421 55.998c4.81 7.3 5.282 13.671 3.121 39.061-.903 10.045-1.462 24.27-1.059 31.797s-.326 17.172-1.244 21.281c-2.518 10.294-14.491 25.507-33.981 43.157-8.772 7.823-20.968 20.567-27.218 28.534s-11.28 13.615-11.392 12.381c-.369-5.615 4.752-21.423 13.935-41.638 8.397-18.895 9.929-23.924 9.88-31.772-.272-10.316-4.502-20.449-10.254-25.074-1.831-1.741-3.308-3.804-2.875-4.802 1.124-2.597 1.763-2.083 8.032 6.324s20.297 17.8 21.767 14.405c.519-1.199-2.538-6.08-6.588-11.154-16.278-19.618-19.778-39.395-10.524-60.766 6.486-14.98 15.682-24.28 28.471-28.941 9.574-3.206 14.464-1.564 19.929 7.207z" fill="#444"/></svg>