<svg xmlns="http://www.w3.org/2000/svg" width="100%" height="100%" viewBox="0 0 430 462" fill="none"><path d="M5 161.5L22 147l20-6 35.5 6 29.5 31.5 13 37.5 4.5-15.5L127 183l2-36 5.5-36.5 12-26 14-10h25l16.5 10 4.5 26L194 170l32-52 29-26 18.5 4 14 11v22l-14 32.5-22 44.5 29.5-31.5 18.5-13 26-14.5 18 5.5 9 22L337 206l-49.5 50 30.5-14.5 19-3 15.5 3L360 260l-13.5 26-65.5 40.5-15.5 17.5-14 27.5-17 21.5-28 14.5-22 4.5-5.5 12-16.5 27.5L143 460l-88-36-8-16.5 8-44 5-11-13-26v-34l4.5-32.5-4.5-29-20.5-15L9 185.5l-4-24z" fill="#f6f6f6"/><path d="M112.5.624c-4.1 1.3-20.1 11.5-26 16.7-8.5 7.5-20.8 21.3-26.2 29.5-8.6 13-19.8 38.4-19.8 45.1 0 4 3.1.2 6.1-7.5 7-18.4 17.2-33.8 31.9-48.5 9.9-9.9 17.5-15.2 31.4-21.7 11-5.1 11.6-5.6 11.6-8.4 0-5.1-3.2-6.9-9-5.2zm.701 43.6c-10.9 3.8-31.9 20-41.1 31.6-7 8.9-14.5 21.6-19.6 33.1-5.2 12-1.3 11.6 5.1-.5 6.7-12.7 19.3-27.9 30.5-36.8 6.6-5.2 22.2-13.9 25-13.9 2.1 0 7.7-3 9.1-4.9 2.6-3.4.9-8.3-3.2-9.4-1.1-.3-3.7 0-5.8.8zM162.8 70.621c-18.1 6.7-28.8 25.2-33.7 58.6-1.5 10.1-4 41.1-5.1 63-.6 11-.5 11.8.9 10.1.9-1.1 1.6-2.5 1.6-3.1s.7-5.6 1.5-11.1c.8-5.4 2.3-18.9 3.4-29.9 2.6-25.1 4.4-35.6 8.2-47 5.4-16.1 12.9-26.4 22.7-31.2 5.1-2.5 6.8-2.8 15.2-2.8 10.2.1 15.1 1.7 19.7 6.7 6.1 6.5 7.6 19 4.5 37.3-2.3 13-4.6 21.7-12.3 45.5-9.5 29.3-11.5 37.7-8.8 36.8.6-.2 5.9-9.8 11.8-21.3 20.3-39.9 31.9-58.3 45.1-71.6 9.9-10 15.6-13.1 24.8-13.7 10.7-.7 19.4 5.2 22.2 14.9 4.3 14.9-6 40.1-34.2 83.7-12.3 19.1-21.1 34.6-19.8 35 1.7.6 4.4-2 20.2-19.3 38.6-42.2 59-58.3 75.4-59.3 9.3-.6 16.4 3.7 19.9 12 3.1 7.5.9 19.5-5.5 30-9.4 15.3-30.3 38.1-53 57.8-13.5 11.6-20 18.2-20 20 0 .6.2 1 .5 1 1.4 0 9.4-4.6 19.7-11.4 22.7-14.9 36.1-20.7 47.7-20.8 10.1 0 14.6 2.3 18.2 9.4 2.9 5.8 2.5 12.4-1.3 19.8-6.9 13.4-23 26-52.3 41.1-19.1 9.8-25.9 14.3-31.1 20.2-4.3 4.9-5.4 6.9-14.7 26.7-7.7 16.3-13.7 24.4-23.2 31.6-7.9 5.9-20.8 12.3-30 14.9-9.1 2.5-30.4 3.1-38.5 1.1-12.2-3-20.6-8-29.6-17.3l-8.1-8.5-7.9-.9c-21.7-2.6-34.3-7.7-45-18.4-17.4-17.3-22.8-45.2-16.7-86.9.9-6.1 1.6-16.5 1.7-23.1.1-15.6-.4-16.5-19.9-36.6-21.4-22-27.5-31.6-27.5-43.3 0-4.4.6-6.2 3.3-10.2 3.7-5.5 10.2-10.3 18.5-13.5 8.6-3.4 23.2-3.3 32.5.4 29.3 11.5 52.3 46.2 50.4 76.2-.3 4.4-1.2 9.7-2.1 11.7-2.2 5.1-2 8.5.4 9.8 1 .6 5.5 1.6 9.8 2.4 11.4 2 19.1 6.3 28.8 16 12.4 12.4 18.1 26.3 17.2 41.4-.4 6.3-.3 7.2 1.1 7 1.3-.3 1.7-2 1.9-9.1.9-28.2-18-53.1-46.3-61.2-3.3-1-6.1-1.8-6.3-2-.1-.1.5-3.1 1.4-6.6 2.6-10.3 1.6-26.9-2.5-38.8-8-23.7-25.1-43.7-45.6-53.1-10.3-4.8-15.5-6-25.7-6-18.6 0-36 8.9-43.3 22.1-2.7 4.9-3 6.3-3 14.4s.4 9.7 3.3 15.9c4.8 10.3 10.8 18 26.3 34.1 7.7 8.1 14.7 16.2 15.5 18 1.8 4.4 1.8 14.8-.1 30.9-3.1 26-3.6 35.4-2.5 46.5 2.2 23 7.8 37 19.9 49 12.5 12.6 25.8 17.7 48.4 18.8l12.7.6 2.1 3.3c6.3 10.3 23.8 21.5 38.6 24.8 9 2 26 2.1 35 .1 31.6-6.7 53.3-25.2 65.4-55.9 4.8-12.2 9.8-21.3 13.4-24.4 1.7-1.6 9.3-6 16.7-9.9 47.8-25 71.2-48.2 68.2-67.4-1-5.8-6.2-13.9-11.3-17.3-9.8-6.6-26.8-4-46.3 7-3.4 1.9-6.2 3.3-6.3 3.2-.2-.2 5.1-5 11.7-10.8 31.1-27 47.5-53.8 43.8-71.5-3.1-14.9-16.2-24.2-30.6-21.8-17 2.9-36.5 17.7-63.8 48.3l-5.8 6.5 3.9-5.5c16.4-23.2 28.3-45.1 32.9-60.5 2.4-8.1 2.4-20.6.1-26.6-2.3-5.9-10.6-13.9-16.9-16.3-20.5-7.9-46.7 13.2-69.1 55.4-3.8 7.1-6.7 11.4-5.4 8 13.8-37 15.1-60.3 4.3-74.5-1.3-1.7-5.3-4.7-8.8-6.5-5.9-3.2-7-3.5-16.8-3.7-8.4-.3-11.5 0-15.7 1.6zm223.7 123.401c0 .1 3.3 3.6 7.3 7.7 19.7 20.2 31.6 62.9 24.7 89-2.4 9.1-2.5 11.9-.4 14.8 2.2 3.2 6 2.9 7.8-.6 4-7.8 4.6-29.1 1.1-45.1-3.9-18.3-13.1-39-22.6-50.9-5.7-7.1-17.9-17.3-17.9-14.9zm-224.401 15.7c.5.5 6.3 2.8 12.9 5 25.1 8.7 43.8 19.4 60.9 35.1 7.4 6.7 16.9 19.5 19.1 25.6 1 2.6 2.4 5.5 3.2 6.3 4.5 4.9-3.1-17.7-8.7-26-5-7.3-19.3-20.9-27.7-26.4-16.1-10.4-31.9-16.7-48-19.1-11.7-1.8-13-1.8-11.7-.5zM384.5 223.221c0 .3 1.1 2.7 2.4 5.3 1.3 2.7 3.2 7.5 4.1 10.8 2.2 8 3.2 30.9 1.5 36.8-1.4 5.3-.8 7.9 2.4 9.4 1.8.8 2.8.7 4.3-.3 1.6-1.2 1.8-2.8 1.7-15.7-.1-12.5-.4-15.4-2.7-23.1-3-9.7-5.6-15.5-9.4-20.5-2.1-2.8-4.3-4.2-4.3-2.7zM54.4 362.823c-3.8 5.7-10.9 33-10.9 41.7 0 15 9.5 24.9 34 35.4l16.6 7.2c18.6 7.9 41.8 14.5 51.4 14.6 9.9 0 21.1-10.1 29.7-26.8 5-9.5 7.9-16.9 7.1-17.8-.3-.2-4.2 5.6-8.9 12.9-4.6 7.2-9.9 15-11.9 17.1-6.9 7.7-15.4 9.3-29 5.5-25.1-6.9-72.3-30.4-77.8-38.7-2.7-4.1-2.8-18.6-.2-34 1.2-7.1 2-14.5 1.8-16.3l-.3-3.3-1.6 2.5z" fill="#444"/></svg>