<svg xmlns="http://www.w3.org/2000/svg" xmlns:xlink="http://www.w3.org/1999/xlink" width="100%" height="100%" viewBox="0 0 145 193" fill="none"><path d="M21 63.5l-17-33L2 11l9.5-8.5 12 2L37 22l21.5 33 3.5-6.5 9.5-1.5 10 1.5L91 62l3-4 13.5-3 8.5 7 6 10 12 1.5 8 14V116l-7 30.5 7 12.5-5 13-17 12-24 6-19-2-11.5-7.5-5.5-15-27-19-9.5-14-4-10v-15L22 99l8.5-4 4-1.5-4-9-4.5-11-5-10z" fill="#fff"/><g fill="#444"><use xlink:href="#B"/><use xlink:href="#B" fill-opacity=".2"/></g><defs ><path id="B" d="M10.474.685c-3.5 1.1-7.3 4.5-9.3 8.5-2.2 4.1-1.2 15.1 2.1 23.9 1.5 3.9 6.2 13.5 10.6 21.5 7 13.1 17 35.3 17 38 0 .6-1.1 1.1-2.4 1.1-3.4 0-8.8 4-10.8 8-3.4 6.7-1.2 24.3 4.3 35.1 4.3 8.6 17.1 19.9 31.7 27.9 3.3 1.9 4.2 2.9 4.2 5 0 3.9 4.8 12.7 8.4 15.5 11.6 8.9 31 9.6 51.3 2 16.1-6.1 26.9-18.7 24.7-28.8-.8-3.7-3.9-10.3-5.3-11.2-.6-.3 0-3.5 1.5-7.7 3.9-11.7 5.7-23.2 5.8-37.3.1-13.8-.8-18.2-5-24.4-3.4-5.1-7.1-7.1-13-7.1-5.1 0-5.1 0-6.3-4.1-1.6-5.3-7.9-11.5-13.1-12.9-4.7-1.3-8.2-.5-12.9 2.9l-2.9 2.1-2.6-4c-3.4-5.2-9.5-9.1-15-9.7-6-.7-8.9.1-13.1 3.8-2 1.8-3.7 3-3.9 2.8-.1-.2-3.3-6.2-7-13.3-8.9-17-12.7-23-18.9-29.5-7.6-7.8-13.2-10.1-20.1-8.1zm13.2 6.9c6.6 4.8 14.4 17.3 30.3 48.1 2.1 3.9 4.1 6.6 5.3 6.8 1.6.4 1.8 0 1.2-3.1-1.2-6.6 5.8-11.8 14-10.2 4.9.9 9.7 5.5 12.8 12.5 1.5 3.3 3.1 6 3.6 6s1.9-1.8 3-4c2.6-5 5.1-6.4 10.9-5.7 3.7.4 5.2 1.2 7.8 4.2 1.7 2 3.4 5 3.7 6.6l1.2 5.9c.6 3.3 2.4 3.9 4.4 1.5.7-.8 2.8-1.5 4.7-1.5 4.5 0 10.6 5.8 12.2 11.5 1.5 5.5 1.3 27.4-.4 36.7-1.6 9.5-5.6 21.6-9.3 28.3-4.8 8.9-17.6 15-36.8 17.6-16.5 2.2-24.1.2-41.7-10.8-11.5-7.3-20.5-15.4-24.2-21.8-3.3-5.7-5.5-15.1-5.5-23.7 0-9.6 2.5-14.1 8.2-14.6 3.6-.3 3.7-.3 4.4 4.4.3 2.5.4 7.3.1 10.5-.7 6.5.4 8.2 2.9 4.4 1.4-2.1 1.6-4.2 1.2-11.3-.7-11-5.2-23.8-15.7-44.2-13.4-26.1-15.1-29.8-16.7-36.2-.9-3.5-1.4-8.1-1.1-10.7 1.1-9.6 11-13.3 19.5-7.2zm112.7 146.1c4.1 7.9.2 17.7-9.6 24-10.5 6.8-29.3 11.6-40.5 10.5-7.8-.8-17.4-5.2-20.3-9.4-1.9-2.6-4.5-9.1-3.7-9.1.1 0 2.7.9 5.9 2 3.9 1.4 8.2 2 13.9 2 22.1 0 42.6-7.7 49.5-18.6 1.5-2.4 2.9-4.4 3-4.4s.9 1.3 1.8 3z"/></defs></svg>