<svg xmlns="http://www.w3.org/2000/svg" width="100%" height="100%" viewBox="0 0 22 22" fill="none"><g clip-path="url(#A)" fill="#444"><path d="M9.121 16.768L6.529 19.36a2.75 2.75 0 0 1-3.889-3.889l5.186-5.186a2.75 2.75 0 0 1 3.888 0c.358.358.938.358 1.296 0s.358-.938 0-1.296c-1.79-1.79-4.691-1.79-6.481 0l-5.186 5.186c-1.79 1.79-1.79 4.691 0 6.481s4.691 1.791 6.482 0l2.592-2.592c.358-.358.358-.938 0-1.296s-.938-.358-1.296 0zM20.657 1.342c-1.79-1.79-4.692-1.79-6.482 0l-3.11 3.11c-.358.358-.358.938 0 1.296s.938.358 1.296 0l3.11-3.11a2.75 2.75 0 0 1 3.889 0 2.75 2.75 0 0 1 0 3.888l-5.703 5.704a2.75 2.75 0 0 1-3.888 0c-.358-.358-.938-.358-1.296 0s-.358.938 0 1.296c1.79 1.79 4.691 1.79 6.481 0l5.703-5.704c1.79-1.79 1.79-4.691 0-6.481z"/></g><defs><clipPath id="A"><path fill="#fff" d="M0 0h22v22H0z"/></clipPath></defs></svg>