<svg xmlns="http://www.w3.org/2000/svg" width="100%" height="100%" viewBox="0 0 195 148" fill="none"><g fill="#444"><path d="M157.075 90.571l-34.208-4.798 39.166 41.962-47.217-27.984 4.887 30.643-25.174-27.915-10.585 45.52-9.518-45.186-20.527 24.54 5.969-27.803-42.079 24.562 33.351-33.789-33.414-.261 30.966-14.957-47.077-6.636 46.765-6.036-30.377-16.324 38.251 6.414-39.57-38.324 47.621 30.006-2.866-19.325 17.494 10.938L88.71 2.828l8.71 28.613 21.739-18.478-3.948 24.166 43.696-19.307-30.118 29.747 22.5.262-15.202 13.34 58.799 7.041-64.55 4.823 26.739 17.537z"/><path d="M155.459 87.743l-34.208-4.798 39.166 41.962L113.2 96.923l4.887 30.643-25.174-27.915-10.585 45.519-9.518-45.185-20.527 24.54 5.969-27.803-42.079 24.562 33.351-33.789-33.414-.261 30.966-14.957L0 65.64l46.766-6.035L16.388 43.28l38.251 6.415-39.57-38.324L62.69 41.376l-2.866-19.325 17.494 10.938L87.094 0l8.71 28.614 21.74-18.478-3.949 24.166 43.696-19.307-30.118 29.747 22.5.261-15.201 13.34 58.799 7.041-64.551 4.823 26.739 17.537z"/></g><path d="M148.432 85.372l-30.827-4.303 35.294 37.639-42.549-25.101 4.404 27.486-22.686-25.039-9.539 40.83-8.577-40.531-18.498 22.013 5.379-24.939-37.919 22.031 30.055-30.308-30.111-.234 27.905-13.416L8.34 65.546l42.143-5.414L23.108 45.49l34.47 5.754-35.659-34.376 42.913 26.915-2.582-17.335 15.765 9.811 8.81-29.591 7.849 25.666 19.59-16.574-3.558 21.676 39.376-17.318-27.14 26.682 20.276.235L129.519 59l52.986 6.315-58.169 4.326 24.096 15.73z" fill="#f0f0f0"/><g filter="url(#A)"><path d="M63.303 57.032c0 2.624-.288 5.104-.864 7.44-.544 2.304-1.28 4.432-2.208 6.384-.928 1.92-2.016 3.648-3.264 5.184-1.216 1.504-2.496 2.8-3.84 3.888-1.344 1.056-2.704 1.872-4.08 2.448-1.376.544-2.688.816-3.936.816-1.056 0-2.016-.192-2.88-.576-.864-.416-1.616-1.008-2.256-1.776-.64-.8-1.152-1.808-1.536-3.024-.352-1.248-.528-2.736-.528-4.464 0-1.792.224-3.68.672-5.664a40.44 40.44 0 0 1 1.824-5.904 32.53 32.53 0 0 1 2.832-5.568c1.12-1.76 2.352-3.312 3.696-4.656 1.344-1.376 2.784-2.464 4.32-3.264s3.136-1.2 4.8-1.2c1.44 0 2.624.304 3.552.912a5.87 5.87 0 0 1 2.208 2.304c.544.928.928 1.984 1.152 3.168a19.07 19.07 0 0 1 .336 3.552zm-18.24 15.072c0 .352.064.72.192 1.104s.304.72.528 1.008.496.544.816.768c.352.192.72.288 1.104.288 1.44 0 2.72-.496 3.84-1.488s2.048-2.208 2.784-3.648 1.296-2.976 1.68-4.608c.416-1.632.624-3.12.624-4.464 0-.384-.032-.8-.096-1.248-.032-.448-.128-.864-.288-1.248-.128-.384-.352-.704-.672-.96-.288-.288-.688-.432-1.2-.432-1.024 0-1.968.256-2.832.768s-1.648 1.2-2.352 2.064c-.672.832-1.264 1.792-1.776 2.88-.512 1.056-.96 2.144-1.344 3.264a20.35 20.35 0 0 0-.768 3.216c-.16 1.056-.24 1.968-.24 2.736zm36.44 1.536c-.448 1.824-1.088 3.376-1.92 4.656-.8 1.28-1.76 2.336-2.88 3.168-1.088.832-2.256 1.44-3.504 1.824s-2.496.576-3.744.576a7.11 7.11 0 0 1-2.256-.384c-.768-.224-1.456-.576-2.064-1.056s-1.12-1.088-1.536-1.824c-.384-.736-.576-1.6-.576-2.592v-.384a1.58 1.58 0 0 1 .048-.384l.624-4.752.912-5.808 1.056-6.048 1.008-5.568.816-4.128.432-2.064 2.4-.24 2.592-.24 2.928-.288-2.208 10.512-.864 4.032-.768 3.696-.624 2.928-.432 1.968-.384 1.968c-.128.768-.192 1.472-.192 2.112 0 .512.128.944.384 1.296.256.32.576.48.96.48a1.68 1.68 0 0 0 1.344-.624c.352-.448.64-.976.864-1.584.256-.608.432-1.216.528-1.824l.336-1.488.624-3.072a99.33 99.33 0 0 0 .72-3.552l.72-3.792.72-3.744 1.584-8.736 7.296-.48-.24 1.248-.624 3.312-.864 4.704-1.008 5.52-1.152 5.616-1.056 5.04zm22.078-.96c-.768 1.76-1.632 3.296-2.592 4.608-.928 1.28-1.92 2.368-2.976 3.264-1.024.864-2.064 1.504-3.12 1.92s-2.08.624-3.072.624-1.904-.224-2.736-.672c-.8-.448-1.504-1.12-2.112-2.016s-1.104-2-1.488-3.312c-.352-1.312-.528-2.848-.528-4.608a32.17 32.17 0 0 1 1.248-8.88c.832-2.944 2-5.584 3.504-7.92s3.28-4.208 5.328-5.616c2.08-1.44 4.368-2.16 6.864-2.16.768 0 1.504.16 2.208.48s1.312.768 1.824 1.344.912 1.28 1.2 2.112c.32.832.48 1.76.48 2.784v.624a4.43 4.43 0 0 1-.048.624l-6.288 1.68c-.384-.8-.832-1.2-1.344-1.2s-1.056.304-1.632.912c-.544.576-1.088 1.344-1.632 2.304-.544.928-1.072 1.984-1.584 3.168a35.87 35.87 0 0 0-1.344 3.504 42.99 42.99 0 0 0-.96 3.408c-.224 1.056-.336 1.92-.336 2.592 0 1.024.128 1.744.384 2.16.288.416.656.624 1.104.624.352 0 .752-.128 1.2-.384a6.43 6.43 0 0 0 1.248-1.056c.384-.448.736-.944 1.056-1.488s.544-1.088.672-1.632l5.472 2.208zm1.203 10.416l2.592-13.104 1.008-5.664.96-5.856.864-5.568.672-4.944 2.016.144 1.872.096 1.824.096h2.064l-1.632 6.816-1.44 6.864 4.752-.528 1.2-6.576a79.18 79.18 0 0 1 1.392-6.624c.736-.128 1.552-.224 2.448-.288l2.496-.24 1.92-.144.816-.096a75.72 75.72 0 0 0-1.296 4.752l-1.152 5.328-1.104 5.568-.96 5.376-1.968 12.48-7.488.864 1.104-5.616.96-4.8.816-4.272-4.656.432-.816 4.224-.816 4.56-1.056 5.184-7.392 1.536zm32.227-3.936c0 .608-.144 1.216-.432 1.824-.256.608-.64 1.152-1.152 1.632-.512.448-1.152.8-1.92 1.056-.768.288-1.648.432-2.64.432-.672 0-1.28-.128-1.824-.384s-.992-.592-1.344-1.008c-.32-.448-.576-.944-.768-1.488s-.288-1.088-.288-1.632c0-.608.096-1.184.288-1.728a4.05 4.05 0 0 1 .864-1.488c.416-.448.912-.816 1.488-1.104.608-.288 1.328-.432 2.16-.432 1.856 0 3.248.448 4.176 1.344.928.864 1.392 1.856 1.392 2.976zm11.471 0c0 .608-.144 1.216-.432 1.824-.256.608-.64 1.152-1.152 1.632-.512.448-1.152.8-1.92 1.056-.768.288-1.648.432-2.64.432-.672 0-1.28-.128-1.824-.384s-.992-.592-1.344-1.008c-.32-.448-.576-.944-.768-1.488s-.288-1.088-.288-1.632c0-.608.096-1.184.288-1.728a4.05 4.05 0 0 1 .864-1.488c.416-.448.912-.816 1.488-1.104.608-.288 1.328-.432 2.16-.432 1.856 0 3.248.448 4.176 1.344.928.864 1.392 1.856 1.392 2.976zm11.472 0c0 .608-.144 1.216-.432 1.824-.256.608-.64 1.152-1.152 1.632-.512.448-1.152.8-1.92 1.056-.768.288-1.648.432-2.64.432-.672 0-1.28-.128-1.824-.384s-.992-.592-1.344-1.008c-.32-.448-.576-.944-.768-1.488s-.288-1.088-.288-1.632c0-.608.096-1.184.288-1.728a4.05 4.05 0 0 1 .864-1.488c.416-.448.912-.816 1.488-1.104.608-.288 1.328-.432 2.16-.432 1.856 0 3.248.448 4.176 1.344.928.864 1.392 1.856 1.392 2.976z" fill="#fbda00"/><path d="M62.439 64.472l-.971-.239-.002.01.973.23zm-2.208 6.384l.9.435.003-.006-.903-.429zm-3.264 5.184l-.776-.631-.002.002.778.629zm-3.84 3.888l.618.786.006-.004.006-.005-.629-.777zm-4.08 2.448l.368.93.009-.004.009-.004-.386-.922zm-6.816.24l-.434.901.014.007.014.006.406-.914zm-2.256-1.776l-.781.625.006.008.006.008.768-.64zm-1.536-3.024l-.962.272.004.015.005.015.954-.301zm.144-10.128l-.975-.22.975.22zm1.824-5.904l-.931-.366h0l.931.366zm6.528-10.224l.707.707.008-.009-.715-.699zm4.32-3.264l-.462-.887h0l.462.887zm8.352-.288l-.548.836.017.011.017.01.514-.857zm2.208 2.304l-.882.471.01.018.01.017.863-.506zm1.152 3.168l.983-.186h0l-.983.186zM45.255 73.208l.949-.316h0l-.949.316zm.528 1.008l.789-.614h0l-.789.614zm.816.768l-.574.819.046.032.049.027.479-.878zm4.944-1.2l.663.749h0l-.663-.749zm2.784-3.648l.89.455-.89-.455zm1.68-4.608l-.969-.247-.002.009-.002.009.973.229zm.528-5.712l-.998.071.003.035.005.035.99-.141zm-.288-1.248l-.949.316.012.035.014.034.923-.385zm-.672-.96l-.707.707.039.039.043.035.625-.781zm-4.032.336l.51.86h0l-.51-.86zm-2.352 2.064l-.775-.632-.003.003.778.628zm-1.776 2.88l.9.436.005-.011-.905-.426zm-1.344 3.264l-.946-.324-.003.008-.003.008.951.308zm-.768 3.216l-.989-.15h0l.989.15zm17-12.336c0 2.551-.28 4.95-.835 7.201l1.942.479c.597-2.421.893-4.982.893-7.679h-2zm-.837 7.21c-.529 2.242-1.243 4.302-2.138 6.184l1.806.859c.961-2.022 1.719-4.217 2.278-6.584l-1.946-.46zm-2.135 6.179c-.897 1.856-1.944 3.517-3.14 4.989l1.552 1.261c1.3-1.601 2.429-3.395 3.388-5.379l-1.801-.87zm-3.141 4.99c-1.177 1.456-2.408 2.701-3.692 3.74l1.258 1.554c1.405-1.137 2.733-2.484 3.988-4.037l-1.555-1.257zm-3.68 3.73c-1.283 1.008-2.566 1.775-3.848 2.312l.772 1.845c1.47-.615 2.907-1.48 4.312-2.584l-1.236-1.573zm-3.83 2.304c-1.28.506-2.467.746-3.568.746v2c1.395 0 2.832-.304 4.304-.886l-.735-1.86zm-3.568.746c-.933 0-1.752-.169-2.474-.49l-.812 1.828c1.006.447 2.107.662 3.286.662v-2zm-2.446-.477c-.73-.351-1.369-.852-1.922-1.515l-1.536 1.28c.727.873 1.592 1.556 2.59 2.037l.868-1.802zm-1.909-1.5c-.547-.683-1.008-1.574-1.363-2.7l-1.907.602c.412 1.306.975 2.431 1.709 3.348l1.562-1.249zm-1.354-2.671c-.32-1.136-.491-2.528-.491-4.192h-2c0 1.791.182 3.375.566 4.736l1.925-.543zm-.491-4.192c0-1.709.214-3.523.647-5.444l-1.951-.441c-.462 2.047-.697 4.009-.697 5.884h2zm.647-5.444a39.44 39.44 0 0 1 1.779-5.758l-1.861-.732c-.786 1.998-1.409 4.015-1.869 6.05l1.951.441zm1.779-5.758a31.53 31.53 0 0 1 2.745-5.397l-1.687-1.074a33.53 33.53 0 0 0-2.919 5.739l1.861.732zm2.745-5.397c1.085-1.704 2.272-3.198 3.559-4.486l-1.414-1.414c-1.4 1.4-2.677 3.011-3.833 4.826l1.687 1.074zm3.568-4.494c1.278-1.308 2.634-2.33 4.066-3.076l-.924-1.774c-1.64.854-3.164 2.009-4.574 3.452l1.431 1.397zm4.066-3.076c1.399-.729 2.842-1.087 4.338-1.087v-2c-1.831 0-3.589.442-5.262 1.313l.924 1.774zm4.338-1.087c1.303 0 2.281.275 3.004.749l1.096-1.673c-1.133-.742-2.523-1.076-4.1-1.076v2zm3.038.77c.809.486 1.416 1.122 1.84 1.917l1.765-.941a6.87 6.87 0 0 0-2.576-2.691l-1.029 1.715zm1.86 1.952c.48.818.827 1.764 1.032 2.848l1.965-.372c-.243-1.283-.663-2.45-1.272-3.488l-1.725 1.011zm1.032 2.848a18.07 18.07 0 0 1 .319 3.366h2c0-1.247-.118-2.494-.353-3.738l-1.965.372zM44.063 72.104c0 .474.086.949.243 1.42l1.897-.632c-.099-.297-.141-.558-.141-.788h-2zm.243 1.42c.16.48.387.919.687 1.306l1.579-1.228c-.147-.189-.273-.422-.369-.71l-1.897.632zm.687 1.306c.29.372.636.696 1.032.973l1.147-1.638c-.244-.171-.442-.359-.6-.563l-1.579 1.228zm1.127 1.032c.492.268 1.024.41 1.583.41v-2c-.209 0-.413-.05-.625-.166l-.958 1.756zm1.583.41c1.694 0 3.208-.592 4.503-1.739l-1.326-1.497c-.945.837-1.992 1.237-3.177 1.237v2zm4.503-1.739c1.221-1.081 2.223-2.399 3.011-3.942l-1.781-.91c-.684 1.338-1.537 2.452-2.557 3.355l1.326 1.497zm3.011-3.942c.774-1.514 1.361-3.126 1.763-4.834l-1.947-.458c-.366 1.556-.899 3.016-1.597 4.382l1.781.91zm1.759-4.816c.432-1.693.655-3.266.655-4.711h-2c0 1.243-.193 2.646-.593 4.217l1.938.494zm.655-4.711c0-.439-.036-.903-.106-1.389l-1.98.283c.058.409.086.777.086 1.107h2zm-.099-1.319c-.039-.547-.158-1.07-.362-1.561l-1.846.769c.115.277.189.586.214.935l1.995-.142zm-.337-1.493c-.19-.569-.527-1.05-.996-1.425l-1.249 1.562c.171.137.282.297.348.495l1.897-.632zm-.914-1.351c-.521-.521-1.202-.725-1.907-.725v2c.319 0 .438.084.493.139l1.414-1.414zm-1.907-.725c-1.2 0-2.32.302-3.342.908l1.02 1.721c.706-.419 1.474-.628 2.322-.628v-2zm-3.342.908c-.976.578-1.847 1.347-2.617 2.293l1.55 1.263c.638-.783 1.334-1.39 2.087-1.835l-1.02-1.721zm-2.62 2.296c-.728.901-1.361 1.931-1.903 3.083l1.81.852c.482-1.025 1.033-1.915 1.649-2.678l-1.556-1.257zm-1.898 3.072c-.53 1.093-.993 2.218-1.39 3.376l1.892.649c.371-1.082.804-2.133 1.298-3.152l-1.8-.873zm-1.396 3.392c-.368 1.136-.637 2.261-.805 3.374l1.977.3c.151-.999.394-2.018.731-3.058l-1.903-.616zm-.805 3.374c-.165 1.088-.251 2.053-.251 2.886h2c0-.703.074-1.562.229-2.586l-1.977-.3zm37.189 4.422l.971.239.002-.008.002-.008-.975-.223zm-1.92 4.656l-.839-.545-.005.007-.005.008.848.53zm-2.88 3.168l-.596-.803-.011.008.608.794zm-3.504 1.824l.294.956-.294-.956zm-6 .192l.316-.949-.018-.006-.018-.005-.28.96zm-2.064-1.056l-.62.785.62-.785zM63.598 80.6l-.887.463.008.015.008.015.871-.492zm-.528-3.36l.97.243.018-.072.007-.074-.995-.097zm1.536-10.56l.988.157-.988-.157zm1.056-6.048l.982.187v-.003l-.983-.184zm1.008-5.568l-.982-.189-.002.009-.002.009.985.17zm.816-4.128l.98.202.001-.006-.981-.196zm.432-2.064l-.095-.995-.704.067-.171.686.97.242zm2.4-.24l.103.995-.103-.995zm2.592-.24l.08.997.008-.001.008-.001-.096-.995zm2.928-.288l.978.21.288-1.342-1.365.137.099.995zM73.63 58.616l.978.209.002-.009-.98-.2zm-.864 4.032l-.978-.21-.002.011-.002.011.982.187zm-.768 3.696l-.975-.223-.003.013-.003.013.981.196zm-.624 2.928l-.974-.225-.003.014-.003.014.981.196zm-.432 1.968l-.97-.242-.007.029-.005.029.983.184zm-.384 1.968l-.981-.196-.003.016-.003.016.986.164zm.192 3.408l-.809.588.014.019.014.018.781-.625zm2.304-.144l.763.646.012-.014.011-.014-.786-.618zm.864-1.584l-.922-.388-.009.021-.008.021.938.346zm.528-1.824l-.981-.196-.004.02-.003.02.988.156zm.336-1.488l.965.263.008-.03.006-.031-.979-.203zm.624-3.072l-.976-.217-.002.01-.002.01.981.196zm.72-3.552l-.98-.201-.002.01-.002.01.984.181zm.72-3.792l-.981-.196-.002.012-.002.012.985.172zm.72-3.744l-.982-.19-.002.008.984.181zm1.584-8.736l-.066-.998-.788.052-.132.778.986.168zm7.296-.48l.982.189.245-1.272-1.292.085.066.998zm-.24 1.248l-.982-.189h0l.982.189zm-.624 3.312l.983.183h0l-.983-.183zm-.864 4.704l-.984-.179-.002.009-.001.009.987.161zm-1.008 5.52l.98.199.001-.003-.981-.196zM82.558 68.6l-.979-.203-.002.013.982.189zm-2.027 4.802c-.427 1.739-1.029 3.182-1.787 4.35l1.677 1.09c.905-1.393 1.584-3.054 2.053-4.962l-1.942-.477zm-1.797 4.365c-.739 1.183-1.616 2.144-2.628 2.895l1.193 1.605c1.228-.912 2.271-2.064 3.132-3.441l-1.696-1.06zm-2.639 2.904c-.999.764-2.061 1.315-3.191 1.663l.588 1.912c1.367-.42 2.64-1.085 3.817-1.985l-1.215-1.589zm-3.191 1.663a11.67 11.67 0 0 1-3.45.532v2c1.352 0 2.699-.208 4.038-.62l-.588-1.912zm-3.45.532c-.618 0-1.264-.107-1.94-.333l-.633 1.897c.86.287 1.719.435 2.572.435v-2zm-1.976-.344c-.649-.189-1.221-.483-1.724-.881l-1.239 1.57c.712.562 1.516.972 2.404 1.231l.56-1.92zm-1.724-.881c-.497-.392-.927-.898-1.285-1.531l-1.741.984c.474.838 1.068 1.549 1.787 2.117l1.239-1.57zm-1.269-1.502c-.296-.568-.463-1.267-.463-2.129h-2c0 1.122.218 2.15.689 3.055l1.773-.925zm-.463-2.129v-.02-.02-.02-.02-.02-.02-.02-.02-.02-.02-.02-.02-.02-.02-.02-.02-.02-.02l-2-.02v.02.02.02.02.02.02.02.02.02.02.02.02.02.02.02.02.02.02l2 .019zm0-.384a.58.58 0 0 1 .018-.141l-1.94-.485a2.58 2.58 0 0 0-.078.626h2zm.043-.287l.617-4.696-1.976-.307-.631 4.808 1.991.194zm.617-4.696l.911-5.805-1.975-.314-.912 5.811 1.976.307zm.911-5.805l1.051-6.018-1.965-.374-1.061 6.078 1.975.314zm1.051-6.02l1.01-5.582-1.971-.341-1.005 5.554 1.966.369zm1.007-5.563l.813-4.115-1.959-.403-.819 4.141 1.964.378zm.815-4.121l.421-2.018-1.94-.485-.442 2.11 1.961.392zm-.454-1.265l2.408-.241-.206-1.989-2.392.239.19 1.991zm2.408-.241l2.569-.238-.159-1.994-2.615.242.206 1.989zm2.585-.239l2.931-.288-.199-1.99-2.925.288.193 1.991zm1.854-1.493l-2.21 10.522 1.96.4 2.206-10.502-1.955-.42zm-2.208 10.513l-.864 4.032 1.956.419.864-4.032-1.956-.419zm-.869 4.054l-.761 3.66 1.95.446.775-3.732-1.965-.374zm-.766 3.687l-.618 2.899 1.949.45.63-2.957-1.961-.392zm-.624 2.928l-.422 1.922 1.94.485.443-2.014-1.961-.392zm-.434 1.98l-.382 1.956 1.961.392.386-1.98-1.966-.369zm-.388 1.988c-.135.811-.206 1.571-.206 2.276h2c0-.575.058-1.223.178-1.948l-1.973-.329zm-.206 2.276c0 .685.174 1.333.575 1.884l1.618-1.176c-.111-.152-.193-.369-.193-.708h-2zm.603 1.921c.431.539 1.03.855 1.741.855v-2a.17.17 0 0 1-.081-.014c-.013-.006-.048-.027-.098-.09l-1.562 1.249zm1.741.855a2.68 2.68 0 0 0 2.107-.978l-1.527-1.292c-.162.192-.331.27-.581.27v2zm2.13-1.006c.425-.541.761-1.163 1.016-1.856l-1.877-.691c-.193.523-.433.957-.712 1.312l1.573 1.236zm.999-1.814c.285-.677.485-1.363.594-2.056l-1.975-.312c-.083.523-.235 1.053-.462 1.592l1.843.776zm.587-2.016l.32-1.421-1.93-.526-.352 1.555 1.961.392zm.335-1.481l.625-3.078-1.961-.392-.623 3.066 1.959.405zm.621-3.058a100.45 100.45 0 0 0 .727-3.588l-1.967-.362-.713 3.516 1.952.434zm.723-3.568l.725-3.821-1.97-.345-.715 3.763 1.959.402zm.721-3.797l.723-3.759-1.967-.362-.717 3.729 1.961.392zm.721-3.75l1.588-8.758-1.972-.336-1.58 8.714 1.964.379zm.668-7.928l7.296-.48-.131-1.996-7.296.48.131 1.996zm7.23-1.478l-.982-.189-.004.02-.004.02-.004.02-.004.02-.004.021-.004.02-.004.021-.004.021-.004.02-.004.021-.004.02-.004.021-.004.02-.004.021-.004.021-.004.022-.004.02-.004.021-.004.022-.004.022-.004.02-.004.02-.004.021-.004.021-.004.022-.004.022-.004.023-.004.02-.004.02-.004.02-.004.021-.004.021-.004.021-.004.022-.004.022-.004.023-.004.023-.004.023-.004.02-.004.02-.004.02-.004.02-.004.021-.004.021-.004.021-.004.021-.004.021-.004.022-.004.022-.004.022-.004.022-.004.023-.004.023-.004.023-.005.023-.004.024-.005.024-.005.024 1.962.387.005-.024.005-.024.005-.024.005-.023.004-.023.004-.023.004-.023.004-.023.004-.022.004-.022.004-.022.004-.022.004-.021.004-.021.004-.021.004-.021.004-.02.004-.02.004-.02.004-.02.005-.023.004-.023.004-.023.004-.022.004-.022.004-.022.004-.021.004-.021.004-.021.004-.02.004-.02.004-.023.004-.022.004-.022.004-.021.004-.021.004-.02.004-.02.004-.022.004-.022.004-.021.004-.02.004-.02.004-.022.004-.021.004-.02.004-.021.004-.021.004-.021.004-.02.004-.021.004-.021.004-.021.004-.02.004-.02.004-.02.004-.02.004-.02c.001-.005.001-.005-.981-.194zm-1.222 1.059l-.625 3.318 1.966.366.623-3.306-1.964-.378zm-.625 3.318l-.865 4.708 1.968.358.863-4.7-1.966-.366zm-.868 4.725a158.64 158.64 0 0 1-1.002 5.485l1.961.392 1.014-5.555-1.974-.323zm-1.001 5.482l-1.151 5.613 1.959.405 1.153-5.619-1.96-.399zm-1.154 5.626a148.2 148.2 0 0 1-1.049 5.006l1.949.447 1.063-5.074-1.964-.379zm22.004 4.27l.916.4.412-.942-.954-.385-.374.927zm-2.592 4.608l-.807-.59-.003.003.81.587zm-2.976 3.264l.645.764.002-.002-.647-.762zm-3.12 1.92l-.367-.93.367.93zm-5.808-.048l-.489.872.007.004.007.004.474-.88zm-2.112-2.016l-.828.561.828-.561zm-1.488-3.312l-.966.259.003.011.003.011.96-.281zm.72-13.488l.962.275.001-.003-.962-.272zm3.504-7.92l.841.541-.841-.541zm5.328-5.616l.567.824.003-.002-.569-.822zm9.072-1.68l.414-.91-.414.91zm3.024 3.456l-.945.327.005.016.006.016.934-.359zm.432 4.032l.258.966.638-.17.094-.654-.99-.141zm-6.288 1.68l-.902.433.359.747.801-.214-.258-.966zm-2.976-.288l-.726-.688-.001.001.727.687zm-1.632 2.304l.863.506.004-.006.004-.006-.87-.493zm-1.584 3.168l.914.406.004-.009-.918-.397zm-1.344 3.504l.951.308h0l-.951-.308zm-.96 3.408l-.974-.229-.002.011-.002.011.978.208zm.048 4.752l-.852.524.014.023.015.022.822-.569zm2.304.24l.496.868.023-.013.022-.014-.541-.841zm1.248-1.056l.735.678.012-.014.012-.014-.759-.651zm1.056-1.488l.862.507h0l-.862-.507zm.672-1.632l.374-.927-1.081-.436-.267 1.134.974.229zm4.555 1.808c-.744 1.704-1.573 3.174-2.482 4.417l1.614 1.181c1.01-1.381 1.909-2.983 2.701-4.799l-1.833-.8zm-2.485 4.421c-.887 1.224-1.826 2.251-2.813 3.089l1.294 1.525c1.125-.954 2.17-2.104 3.138-3.439l-1.619-1.174zm-2.811 3.087c-.956.806-1.903 1.384-2.842 1.754l.733 1.861c1.174-.462 2.306-1.164 3.398-2.086l-1.29-1.529zm-2.842 1.754c-.956.377-1.856.554-2.705.554v2c1.134 0 2.282-.238 3.439-.694l-.733-1.861zm-2.705.554c-.835 0-1.583-.187-2.262-.553l-.948 1.761c.985.53 2.061.791 3.21.791v-2zm-2.247-.544c-.642-.36-1.237-.914-1.773-1.705l-1.655 1.123c.68 1.001 1.493 1.791 2.451 2.327l.977-1.745zm-1.773-1.705c-.537-.791-.994-1.794-1.356-3.031l-1.919.562c.406 1.387.941 2.591 1.62 3.593l1.655-1.123zm-1.35-3.01c-.324-1.207-.494-2.652-.494-4.349h-2c0 1.823.182 3.45.562 4.867l1.932-.518zm-.494-4.349a31.17 31.17 0 0 1 1.21-8.605l-1.923-.549a33.17 33.17 0 0 0-1.286 9.155h2zm1.21-8.608c.808-2.858 1.937-5.406 3.382-7.651l-1.682-1.083c-1.563 2.427-2.769 5.16-3.626 8.189l1.925.544zm3.382-7.651c1.441-2.238 3.127-4.009 5.054-5.333l-1.133-1.648c-2.169 1.491-4.035 3.464-5.602 5.899l1.682 1.083zm5.056-5.335c1.915-1.326 4.005-1.982 6.295-1.982v-2c-2.703 0-5.189.784-7.434 2.338l1.139 1.644zm6.295-1.982c.624 0 1.219.129 1.794.39l.828-1.821c-.833-.379-1.71-.57-2.622-.57v2zm1.794.39a4.41 4.41 0 0 1 1.49 1.098l1.495-1.329a6.41 6.41 0 0 0-2.157-1.59l-.828 1.821zm1.49 1.098c.413.465.752 1.049 1.003 1.775l1.89-.654c-.325-.939-.787-1.762-1.398-2.449l-1.495 1.329zm1.014 1.807c.27.702.414 1.506.414 2.425h2c0-1.129-.177-2.181-.547-3.143l-1.867.718zm.414 2.425v.02.02.021.021.021.021.021.021.02.02.02.02.02.021.021.021.021.021.021.02.02.02.02.02.02.02.021.021.021.021l2 .007v-.021-.021-.021-.021-.02-.02-.02-.02-.02-.02-.021-.021-.021-.021-.021-.021-.021-.021-.02-.02-.02-.02-.02-.021-.021-.021-.021-.021-.02-.02l-2-.006zm0 .624a3.51 3.51 0 0 1-.038.483l1.98.283a5.51 5.51 0 0 0 .058-.765h-2zm.694-.342l-6.288 1.68.516 1.932 6.288-1.68-.516-1.932zm-5.129 2.213c-.422-.879-1.121-1.767-2.245-1.767v2c-.031 0-.02-.02.054.046.09.081.228.254.388.587l1.803-.865zm-2.245-1.767c-.918 0-1.709.539-2.358 1.224l1.452 1.375c.503-.53.8-.6.906-.6v-2zm-2.359 1.225c-.616.652-1.206 1.493-1.775 2.498l1.74.986c.518-.915 1.017-1.611 1.489-2.11l-1.454-1.373zm-1.768 2.485c-.568.969-1.114 2.063-1.639 3.277l1.836.794c.499-1.154 1.009-2.172 1.529-3.059l-1.725-1.011zm-1.635 3.268c-.526 1.183-.986 2.384-1.381 3.602l1.903.617c.373-1.15.808-2.286 1.307-3.406l-1.828-.812zm-1.381 3.602l-.982 3.488 1.947.458a41.95 41.95 0 0 1 .938-3.329l-1.903-.617zm-.987 3.509c-.231 1.089-.358 2.029-.358 2.8h2c0-.573.097-1.361.314-2.385l-1.956-.415zm-.358 2.8c0 1.046.12 2.014.532 2.684l1.703-1.048c-.099-.162-.236-.634-.236-1.636h-2zm.562 2.729c.447.645 1.104 1.055 1.926 1.055v-2c-.073 0-.152-.006-.282-.193l-1.644 1.138zm1.926 1.055c.589 0 1.163-.211 1.696-.516l-.992-1.736c-.363.207-.588.252-.704.252v2zm1.741-.543a7.43 7.43 0 0 0 1.442-1.219l-1.47-1.357c-.33.358-.682.654-1.054.893l1.082 1.682zm1.466-1.246c.425-.496.811-1.04 1.159-1.632l-1.724-1.014a9.32 9.32 0 0 1-.953 1.344l1.518 1.302zm1.159-1.632c.364-.62.63-1.257.783-1.91l-1.947-.458c-.102.434-.285.886-.56 1.354l1.724 1.014zm-.564-1.212l5.472 2.208.748-1.855-5.472-2.208-.748 1.855zm7.049 11.697l-.981-.196-.296 1.483 1.48-.308-.203-.979zm2.592-13.104l.981.192.002-.01.002-.01-.985-.173zm1.008-5.664l.984.177v-.003l-.984-.175zm.96-5.856l-.987-.164-.001.008-.001.008.989.148zm.864-5.568l-.988-.156-.001.007-.001.007.99.141zm.672-4.944l.043-.999-.936-.041-.101.932.994.108zm2.016.144l-.105.995.027.003.028.001.05-.999zm1.872.096l-.053.999.053-.999zm1.824.096l-.053.999.026.001h.027v-1zm2.064 0l.972.233.295-1.233h-1.267v1zm-1.632 6.816l-.973-.233-.003.013.976.22zm-1.44 6.864l-.982-.191-.259 1.335 1.351-.15-.11-.994zm4.752-.528l.11.994.729-.081.142-.719-.981-.194zm1.2-6.576l.986.164.001-.002-.987-.162zm1.392-6.624l-.172-.985-.638.111-.16.628.97.246zm2.448-.288l.071.998.018-.001.017-.002-.106-.994zm2.496-.24l.083.997-.083-.997zm1.92-.144l.062.998.027-.002.028-.003-.117-.993zm.816-.096l.955.297.457-1.47-1.529.18.117.993zm-1.296 4.752l-.973-.234-.003.013.976.221zm-1.152 5.328l.978.206.001-.003-.979-.203zm-1.104 5.568l.983.183-.983-.183zm-.96 5.376l.985.171.001-.003-.986-.167zm-1.968 12.48l.114.993.767-.088.109-.764-.99-.141zm-7.488.864l-.978-.212-.295 1.365 1.387-.16-.114-.993zm1.104-5.616l-.979-.204-.003.016-.003.016.985.173zm.96-4.8l-.979-.207-.002.009-.001.009.982.189zm.816-4.272l.987.16.207-1.275-1.287.119.093.996zm-4.656.432l-.093-.996-.754.07-.137.745.984.181zm-.816 4.224l-.981-.196-.002.009-.001.01.984.177zm-.816 4.56l.98.2.002-.012.002-.012-.984-.175zm-1.056 5.184l.203.979.645-.134.132-.645-.98-.2zm-6.412 1.732l2.593-13.108-1.963-.384-2.591 13.1 1.961.392zm2.597-13.127l1.007-5.659-1.968-.355-1.009 5.669 1.97.346zm1.007-5.662l.965-5.882-1.978-.297-.956 5.83 1.969.349zm.962-5.866l.868-5.591-1.98-.283-.861 5.545 1.973.329zm.866-5.576l.678-4.992-1.988-.216a103.43 103.43 0 0 1-.666 4.896l1.976.312zm-.36-4.101a32.02 32.02 0 0 1 1.955.139l.209-1.989-2.077-.149-.087 1.998zm2.01.144l1.869.096.105-1.997-1.874-.096-.1 1.997zm1.869.096l1.824.096.105-1.997-1.824-.096-.105 1.997zm1.877.097h.022.023.022.023.023.022.023.023.023.023.023.023.023.023.023.023.023.023.02.023.023.023.02.023.024.023.024.023.02.024.023.024.024.024.024.023.024.024.024.024.024.021.024.02.024.024.021.024.02.021.024.025.02.025.024.021.024.021.021.024.021.021.025.02.021.021.021.021.021.02.021.021.021.021.022.021.021.021.021.021.021.022.021.021.022.021.021.022.021.022.021.022l.013-2h-.022-.021-.022-.021-.022-.021-.022-.021-.021-.022-.021-.021-.021-.021-.022-.021-.021-.021-.021-.021-.021-.021-.021-.021-.021-.021-.025-.025-.024-.021-.021-.021-.024-.021-.021-.02-.021-.024-.021-.024-.021-.02-.025-.02-.024-.021-.02-.024-.024-.024-.021-.02-.024-.024-.024-.024-.02-.023-.024-.024-.024-.024-.023-.024-.023-.02-.024-.023-.024-.023-.023-.02-.023-.023-.024-.023-.023-.023-.023-.023-.023-.023-.023-.023-.023-.022-.023-.023-.022-.023-.023-.022l-.015 2zm1.091-1.233l-1.632 6.816 1.945.466 1.632-6.816-1.945-.466zm-1.635 6.829l-1.446 6.893 1.963.382 1.434-6.835-1.951-.44zm-.354 8.078l4.752-.528-.221-1.988-4.752.528.221 1.988zm5.623-1.328l1.205-6.605-1.973-.329-1.194 6.547 1.962.387zm1.206-6.608a78.38 78.38 0 0 1 1.374-6.54l-1.939-.491a80.37 80.37 0 0 0-1.409 6.708l1.974.324zm.576-5.801c.697-.121 1.479-.214 2.348-.276l-.142-1.995-2.549.3.343 1.97zm2.383-.279l2.473-.238-.166-1.993-2.52.242.213 1.989zm2.473-.238l1.899-.142-.125-1.996-1.94.146.166 1.993zm1.954-.147l.022-.003.022-.002.021-.003.021-.002.021-.002.021-.002.02-.002.02-.002.02-.002.022-.003.022-.003.021-.003.021-.002.021-.002.02-.002.02-.002.022-.003.021-.002.021-.002.02-.002.02-.002.021-.002.021-.002.02-.002.021-.002.021-.002.02-.002.021-.002.02-.002.02-.002.02-.002.02-.002.021-.002.021-.002.02-.002.02-.002.02-.002.02-.002.02-.002c.01-.001.01-.001-.107-.994l-.117-.993-.02.002-.02.002-.02.002-.02.002-.02.002-.02.002-.02.002-.02.002-.021.002-.02.002-.021.002-.02.002-.02.002-.02.002-.021.002-.02.002-.02.002-.021.002-.02.002-.02.002-.02.002-.021.002-.021.002-.02.002-.02.002-.02.002-.021.002-.021.003-.021.002-.022.003-.022.003-.02.002-.02.002-.021.002-.02.003-.021.002-.022.003-.021.003-.022.003.218 1.988zm-.256-1.386a76.24 76.24 0 0 0-1.313 4.815l1.944.468a74.52 74.52 0 0 1 1.279-4.689l-1.91-.594zm-1.317 4.828l-1.156 5.346 1.959.405 1.148-5.31-1.951-.442zm-1.155 5.343l-1.108 5.591 1.966.367 1.099-5.545-1.957-.412zm-1.108 5.591l-.963 5.392 1.972.335.957-5.36-1.966-.367zm-.963 5.389l-1.972 12.509 1.98.283c.606-4.247 1.261-8.397 1.963-12.451l-1.971-.341zm-1.097 11.657l-7.488.864.229 1.987 7.488-.864-.229-1.987zm-6.396 2.069a145.7 145.7 0 0 0 1.112-5.655l-1.97-.346c-.318 1.81-.683 3.669-1.097 5.577l1.955.424zm1.106-5.624l.963-4.815-1.964-.378-.957 4.785 1.958.408zm.959-4.797c.354-1.674.63-3.114.825-4.319l-1.974-.32a92.8 92.8 0 0 1-.808 4.225l1.957.414zm-.255-5.475l-4.656.432.185 1.991 4.656-.432-.185-1.991zm-5.547 1.246l-.813 4.209 1.961.392.819-4.239-1.967-.362zm-.816 4.228l-.817 4.562 1.969.35.816-4.558-1.968-.354zm-.812 4.538c-.003.013-.004.017-.004.02-.003.013-.004.017-.004.02-.003.014-.004.017-.004.02-.003.014-.004.017-.005.02-.002.013-.003.017-.004.02-.002.013-.003.017-.004.02-.003.014-.003.017-.004.02-.003.013-.003.017-.004.02-.003.014-.004.017-.004.02-.003.014-.004.017-.004.02-.003.013-.004.017-.005.02-.002.013-.003.017-.004.02-.002.014-.003.017-.004.02-.003.014-.003.017-.004.02-.003.013-.003.017-.004.02-.003.014-.003.017-.004.02-.003.014-.004.017-.004.02-.003.013-.004.017-.004.02-.003.014-.004.017-.004.02-.003.014-.004.017-.005.02-.002.013-.003.017-.004.02-.003.013-.003.017-.004.02-.003.014-.003.017-.004.02-.003.014-.003.017-.004.02-.003.013-.004.017-.004.02-.003.014-.004.017-.004.02-.003.013-.004.017-.005.02-.002.013-.003.017-.004.02-.002.014-.003.017-.004.02-.002.014-.003.017-.004.02-.003.013-.003.017-.004.02-.003.013-.003.017-.004.02-.003.014-.004.017-.004.02-.003.013-.004.017-.004.02-.003.013-.004.017-.005.02-.002.014-.003.017-.004.02-.002.013-.003.017-.004.02-.003.013-.003.017-.004.02-.003.014-.003.017-.004.02-.003.014-.003.017-.004.02-.003.013-.004.017-.004.02-.003.013-.004.017-.004.02-.003.014-.004.017-.004.02-.003.013-.004.017-.005.02-.002.013-.003.017-.004.02-.003.014-.003.017-.004.02-.003.013-.003.017-.004.02-.003.013-.003.017-.004.02-.003.014-.004.017-.004.02-.003.014-.004.017-.004.02-.003.013-.004.017-.005.02-.002.013-.003.017-.004.02-.002.014-.003.017-.004.02-.002.013-.003.017-.004.02-.003.013-.003.017-.004.02-.003.014-.003.017-.004.02-.003.013-.004.017-.004.02-.003.013-.004.017-.004.02-.003.014-.004.017-.005.02-.002.014-.003.017-.004.02-.002.013-.003.017-.004.02-.003.013-.003.017-.004.02-.003.014-.003.017-.004.02-.003.013-.003.017-.004.02-.003.014-.004.017-.004.02-.003.014-.004.017-.004.02-.003.013-.004.017-.004.02-.003.013-.004.017-.005.02-.002.014-.003.017-.004.02-.002.014-.003.017-.004.02-.003.013-.003.017-.004.02-.003.014-.003.017-.004.02-.003.014-.004.017-.004.02-.003.013-.004.017-.004.02-.003.014-.004.017-.005.02-.002.014-.003.017-.004.02-.002.013-.003.017-.004.02-.003.013-.003.017-.004.02-.003.014-.003.017-.004.02-.003.013-.003.017-.004.02-.003.013-.004.017-.004.02-.003.014-.004.017-.004.02-.003.013-.004.017-.004.02-.003.013-.004.017-.005.02-.002.014-.003.017-.004.02-.003.014-.003.017-.004.02-.003.013-.003.017-.004.02-.003.013-.003.017-.004.02-.003.014-.004.017-.004.02-.003.013-.004.017-.004.02-.003.013-.004.017-.005.02-.002.014-.003.017-.004.02-.002.013-.003.017-.004.02-.002.013-.003.017-.004.02-.003.014-.003.017-.004.02-.003.014-.003.017-.004.02-.003.013-.004.017-.004.02-.003.013-.004.017-.004.02-.003.014-.004.017-.005.02-.002.013-.003.017-.004.02-.002.013-.003.017-.004.02-.003.014-.003.017-.004.02-.003.013-.003.017-.004.02-.003.013-.003.017-.004.02-.003.014-.004.017-.004.02-.003.014-.004.017-.004.02-.003.013-.004.017-.004.02-.003.013-.004.017-.005.02-.002.014-.003.017-.004.02-.002.013-.003.017-.004.02-.003.014-.003.017-.004.02-.003.014-.003.017-.004.02-.003.013-.004.017-.004.02-.003.013-.004.017-.004.02-.003.014-.004.017-.005.02-.002.014-.003.017-.004.02-.002.013-.003.017-.004.02-.002.014-.003.017-.004.02-.003.014-.003.017-.004.02-.003.013-.003.017-.004.02-.003.014-.004.017-.004.02-.003.014-.004.017-.004.02-.003.013-.004.017-.005.02-.002.013-.003.017-.004.02-.002.014-.003.017-.004.02-.003.014-.003.017-.004.02-.003.013-.003.017-.004.02-.003.014-.003.017-.004.02-.003.013-.004.017-.004.02-.003.013-.004.017-.004.02-.003.014-.004.017-.004.02-.003.014-.004.017-.005.02-.002.013-.003.017-.004.02-.002.013-.003.017-.004.02-.003.014-.003.017-.004.02-.003.013-.003.017-.004.02-.003.013-.004.017-.004.02-.003.014-.004.017-.004.02-.003.013-.004.017-.005.02-.002.013-.003.017-.004.02-.002.014-.003.017-.004.02-.003.014-.003.017-.004.02-.003.013-.003.017-.004.02-.003.013-.003.017-.004.02-.003.014-.004.017-.004.02-.003.013-.004.017-.004.02-.003.013-.004.017-.004.02-.003.014-.004.017-.005.02-.002.013-.003.017-.004.02-.003.013-.003.017-.004.02-.003.014-.003.017-.004.02-.003.014-.003.017-.004.02-.003.013-.004.017-.004.02-.003.013-.004.017-.004.02-.003.014-.004.017-.005.02-.002.013-.003.017-.004.02-.002.013-.003.017-.004.02-.002.014-.003.017-.004.02-.003.013-.003.017-.004.02-.003.013-.003.017-.004.02-.003.014-.004.017-.004.02-.003.014-.004.017-.004.02-.003.013-.004.017-.005.02-.002.014-.003.017-.004.02-.002.014-.003.017-.004.02-.003.013-.003.017-.004.02-.003.014-.003.017-.004.02-.003.014-.003.017-.004.02-.003.013-.004.017-.004.02-.003.013-.004.017-.004.02-.003.014-.004.017-.004.02-.003.014-.004.017-.005.02-.002.013-.003.017-.004.02-.002.014-.003.017-.004.02-.003.013-.003.017-.004.02-.003.013-.003.017-.004.02-.003.014-.004.017-.004.02-.003.014-.004.017-.004.02-.003.013-.004.017-.005.02-.002.013-.003.017-.004.02-.002.014-.003.017-.004.02-.003.013-.003.017-.004.02-.003.013-.003.017-.004.02-.003.014-.003.017-.004.02-.003.013-.004.017-.004.02-.003.013-.004.017-.004.02-.003.014-.004.017-.005.02-.002.014-.003.017-.004.02-.002.013-.003.017-.004.02-.003.013-.003.017-.004.02-.003.014-.003.017-.004.02-.003.013-.003.017-.004.02-.003.013-.004.017-.004.02-.003.014-.004.017-.004.02-.003.013-.004.017-.004.02-.003.013-.004.017-.005.02-.002.014-.003.017-.004.02-.002.014-.003.017-.004.02-.003.013-.003.017-.004.02-.003.013-.003.017-.004.02-.003.014-.004.017-.004.02-.003.013-.004.017-.004.02-.003.013-.004.017-.005.02-.002.014-.003.017-.004.02-.002.013-.003.017-.004.02-.003.013-.003.017-.004.02-.003.014-.003.017-.004.02-.003.014-.003.017-.004.02-.003.013-.004.017-.004.02-.003.013-.004.017-.004.02-.003.014-.004.017-.004.02-.003.013-.004.017-.005.02-.002.014-.003.017-.004.02-.003.014-.003.017-.004.02-.003.013-.003.017-.004.02-.003.013-.003.017-.004.02-.003.014-.004.017-.004.02-.003.014-.004.017-.004.02-.003.013-.004.017-.005.02-.002.014-.003.017-.004.02-.002.014-.003.017-.004.02-.002.013-.003.017-.004.02-.003.014-.003.017-.004.02-.003.014-.003.017-.004.02-.003.013-.004.017-.004.02-.003.013-.004.017-.004.02-.003.014-.004.017-.005.02-.002.014-.003.017-.004.02-.002.013-.003.017-.004.02-.003.014-.003.017-.004.02-.003.013-.003.017-.004.02-.003.013-.003.017-.004.02-.003.014-.004.017-.004.02-.003.014-.004.017-.004.02-.003.013-.004.017-.004.02-.003.013-.004.017-.005.02-.002.014-.003.017-.004.02-.002.013-.003.017-.004.02-.003.013-.003.017-.004.02-.003.014-.003.017-.004.02-.003.013-.004.017-.004.02-.003.013-.004.017-.004.02-.003.014-.004.017-.005.02-.002.014-.003.017-.004.02-.002.013-.003.017-.004.02-.003.013-.003.017-.004.02-.003.014-.003.017-.004.02-.003.013-.003.017-.004.02-.003.013-.004.017-.004.02-.003.014-.004.017-.004.02-.003.013-.004.017-.005.02-.002.013-.003.017-.004.02-.002.014-.003.017-.004.02-.003.014-.003.017-.004.02-.003.013-.003.017-.004.02-.003.013-.003.017-.004.02l1.96.399c.002-.014.003-.017.004-.02.002-.014.003-.017.004-.02.003-.013.003-.017.004-.02.003-.013.003-.017.004-.02.003-.014.004-.017.004-.02.003-.013.004-.017.004-.02.003-.013.004-.017.005-.02.002-.014.003-.017.004-.02.002-.013.003-.017.004-.02.003-.013.003-.017.004-.02.003-.014.003-.017.004-.02.003-.014.003-.017.004-.02.003-.013.004-.017.004-.02.003-.013.004-.017.004-.02.003-.014.004-.017.004-.02.003-.013.004-.017.005-.02.002-.013.003-.017.004-.02.003-.014.003-.017.004-.02.003-.013.003-.017.004-.02.003-.013.003-.017.004-.02.003-.014.004-.017.004-.02.003-.014.004-.017.004-.02.003-.013.004-.017.005-.02.002-.013.003-.017.004-.02.002-.014.003-.017.004-.02.003-.013.003-.017.004-.02.003-.013.003-.017.004-.02.003-.014.003-.017.004-.02.003-.013.004-.017.004-.02.003-.013.004-.017.004-.02.003-.014.004-.017.005-.02.002-.014.003-.017.004-.02.002-.013.003-.017.004-.02.003-.013.003-.017.004-.02.003-.014.003-.017.004-.02.003-.013.003-.017.004-.02.003-.014.004-.017.004-.02.003-.014.004-.017.004-.02.003-.013.004-.017.004-.02.003-.013.004-.017.005-.02.002-.014.003-.017.004-.02.002-.014.003-.017.004-.02.003-.013.003-.017.004-.02.003-.014.003-.017.004-.02.003-.014.004-.017.004-.02.003-.013.004-.017.004-.02.003-.014.004-.017.005-.02.002-.014.003-.017.004-.02.002-.013.003-.017.004-.02.003-.013.003-.017.004-.02.003-.014.003-.017.004-.02.003-.014.003-.017.004-.02.003-.013.004-.017.004-.02.003-.014.004-.017.004-.02.003-.013.004-.017.005-.02.002-.013.003-.017.004-.02.002-.014.003-.017.004-.02.003-.014.003-.017.004-.02.003-.013.003-.017.004-.02.003-.013.003-.017.004-.02.003-.014.004-.017.004-.02.003-.013.004-.017.004-.02.003-.013.004-.017.005-.02.002-.014.003-.017.004-.02.002-.013.003-.017.004-.02.002-.013.003-.017.004-.02.003-.014.003-.017.004-.02.003-.014.003-.017.004-.02.003-.013.004-.017.004-.02.003-.013.004-.017.004-.02.003-.014.004-.017.005-.02.002-.013.003-.017.004-.02.002-.013.003-.017.004-.02.003-.014.003-.017.004-.02.003-.013.003-.017.004-.02.003-.013.003-.017.004-.02.003-.014.004-.017.004-.02.003-.014.004-.017.004-.02.003-.013.004-.017.004-.02.003-.013.004-.017.005-.02.002-.014.003-.017.004-.02.003-.013.003-.017.004-.02.003-.014.003-.017.004-.02.003-.014.003-.017.004-.02.003-.013.004-.017.004-.02.003-.013.004-.017.004-.02.003-.014.004-.017.005-.02.002-.014.003-.017.004-.02.002-.013.003-.017.004-.02.003-.014.003-.017.004-.02.003-.014.003-.017.004-.02.003-.013.003-.017.004-.02.003-.014.004-.017.004-.02.003-.014.004-.017.004-.02.003-.013.004-.017.005-.02.002-.013.003-.017.004-.02.002-.014.003-.017.004-.02.003-.014.003-.017.004-.02.003-.013.003-.017.004-.02.003-.014.003-.017.004-.02.003-.013.004-.017.004-.02.003-.013.004-.017.004-.02.003-.014.004-.017.005-.02.002-.014.003-.017.004-.02.002-.013.003-.017.004-.02.002-.013.003-.017.004-.02.003-.014.003-.017.004-.02.003-.013.003-.017.004-.02.003-.013.004-.017.004-.02.003-.014.004-.017.004-.02.003-.013.004-.017.005-.02.002-.013.003-.017.004-.02.002-.014.003-.017.004-.02.003-.014.003-.017.004-.02.003-.013.003-.017.004-.02.003-.013.003-.017.004-.02.003-.014.004-.017.004-.02.003-.013.004-.017.004-.02.003-.013.004-.017.005-.02.002-.014.003-.017.004-.02.002-.013.003-.017.004-.02.003-.013.003-.017.004-.02.003-.014.003-.017.004-.02.003-.014.003-.017.004-.02.003-.013.004-.017.004-.02.003-.013.004-.017.004-.02.003-.014.004-.017.005-.02.002-.013.003-.017.004-.02.002-.013.003-.017.004-.02.002-.014.003-.017.004-.02.003-.013.003-.017.004-.02.003-.013.003-.017.004-.02.003-.014.004-.017.004-.02.003-.014.004-.017.004-.02.003-.013.004-.017.005-.02.002-.013.003-.017.004-.02.002-.014.003-.017.004-.02.003-.013.003-.017.004-.02.003-.014.003-.017.004-.02.003-.014.003-.017.004-.02.003-.013.004-.017.004-.02.003-.013.004-.017.004-.02.003-.014.004-.017.004-.02.003-.014.004-.017.005-.02.002-.013.003-.017.004-.02.003-.014.003-.017.004-.02.003-.014.003-.017.004-.02.003-.013.003-.017.004-.02.003-.014.004-.017.004-.02.003-.014.004-.017.004-.02.003-.013.004-.017.005-.02.002-.013.003-.017.004-.02.002-.014.003-.017.004-.02.003-.013.003-.017.004-.02.003-.013.003-.017.004-.02.003-.014.003-.017.004-.02.003-.013.004-.017.004-.02.003-.013.004-.017.004-.02.003-.014.004-.017.005-.02.002-.014.003-.017.004-.02.002-.013.003-.017.004-.02.003-.013.003-.017.004-.02.003-.014.003-.017.004-.02.003-.013.003-.017.004-.02.003-.013.004-.017.004-.02.003-.014.004-.017.004-.02.003-.013.004-.017.005-.02.002-.013.003-.017.004-.02.002-.014.003-.017.004-.02.002-.014.003-.017.004-.02.003-.013.003-.017.004-.02.003-.013.003-.017.004-.02.003-.014.004-.017.004-.02.003-.013.004-.017.004-.02.003-.013.004-.017.005-.02.002-.014.003-.017.004-.02.002-.013.003-.017.004-.02.003-.013.003-.017.004-.02.003-.014.003-.017.004-.02.003-.014.003-.017.004-.02.003-.013.004-.017.004-.02.003-.013.004-.017.004-.02.003-.014.004-.017.005-.02.002-.013.003-.017.004-.02.002-.014.003-.017.004-.02.003-.014.003-.017.004-.02.003-.013.003-.017.004-.02.003-.013.003-.017.004-.02.003-.014.004-.017.004-.02.003-.014.004-.017.004-.02.003-.013.004-.017.005-.02.002-.014.003-.017.004-.02.002-.014.003-.017.004-.02.002-.013.003-.017.004-.02.003-.014.003-.017.004-.02.003-.014.003-.017.004-.02.003-.013.004-.017.004-.02.003-.013.004-.017.004-.02.003-.014.004-.017.005-.02.002-.014.003-.017.004-.02.002-.013.003-.017.004-.02.003-.014.003-.017.004-.02.003-.013.003-.017.004-.02.003-.013.003-.017.004-.02.003-.014.004-.017.004-.02.003-.014.004-.017.004-.02.003-.013.004-.017.004-.02.003-.013.004-.017.005-.02.002-.014.003-.017.004-.02.003-.013.003-.017.004-.02.003-.013.003-.017.004-.02.003-.014.003-.017.004-.02.003-.013.004-.017.004-.02.003-.013.004-.017.004-.02.003-.014.004-.017.005-.02.002-.014.003-.017.004-.02.002-.013.003-.017.004-.02.003-.013.003-.017.004-.02.003-.014.003-.017.004-.02.003-.013.003-.017.004-.02.003-.013.004-.017.004-.02.003-.014.004-.017.004-.02.003-.013.004-.017.005-.02.002-.013.003-.017.004-.02.002-.014.003-.017.004-.02.003-.014.003-.017.004-.02.003-.013.003-.017.004-.02.003-.013.003-.017.004-.02.003-.014.004-.017.004-.02.003-.013.004-.017.004-.02.003-.013.004-.017.005-.02.002-.014.003-.017.004-.02.002-.013.003-.017.004-.02.002-.013.003-.017.004-.02.003-.014.003-.017.004-.02.003-.014.003-.017.004-.02.003-.013.004-.017.004-.02.003-.014.004-.017.004-.02.003-.014.004-.017.005-.02.002-.013.003-.017.004-.02.002-.014.003-.017.004-.02.003-.014.003-.017.004-.02.003-.013.003-.017.004-.02.003-.013.003-.017.004-.02.003-.014.004-.017.004-.02.003-.014.004-.017.004-.02.003-.013.004-.017.005-.02.002-.014.003-.017.004-.02.002-.013.003-.017.004-.02.003-.013.003-.017.004-.02.003-.014.003-.017.004-.02.003-.014.003-.017.004-.02.003-.013.004-.017.004-.02.003-.013.004-.017.004-.02.003-.014.004-.017.005-.02.002-.013.003-.017.004-.02l-1.96-.399zm-.28 4.404l-7.392 1.536.407 1.958 7.392-1.536-.407-1.958zm24.607.403l-.903-.428-.01.02-.008.02.921.388zm-1.152 1.632l.659.753.013-.011.012-.012-.684-.73zm-1.92 1.056l-.316-.949-.018.006-.017.006.351.936zm-4.464.048l.426-.905-.426.905zm-1.344-1.008l-.813.581.023.033.027.031.763-.646zm-.768-1.488l-.943.333.943-.333zm0-3.36l.943.333.003-.008.003-.008-.949-.316zm.864-1.488l-.733-.681-.002.002.735.678zm1.488-1.104l-.428-.904-.009.004-.01.005.447.894zm6.336.912l-.694.719.006.006.007.006.681-.732zm.392 2.976c0 .445-.104.907-.335 1.396l1.807.856a5.22 5.22 0 0 0 .528-2.252h-2zm-.353 1.436c-.199.471-.498.9-.915 1.291l1.368 1.459a5.75 5.75 0 0 0 1.39-1.973l-1.843-.776zm-.889 1.267c-.395.346-.912.638-1.578.86l.632 1.897c.871-.29 1.634-.702 2.263-1.252l-1.317-1.505zm-1.613.872c-.635.238-1.392.368-2.289.368v2c1.088 0 2.09-.158 2.991-.496l-.702-1.873zm-2.289.368c-.542 0-1.002-.103-1.398-.289l-.852 1.81c.693.326 1.448.479 2.25.479v-2zm-1.398-.289c-.428-.201-.756-.454-1.006-.749l-1.527 1.292c.454.536 1.021.956 1.681 1.267l.852-1.81zm-.956-.684c-.263-.368-.476-.78-.639-1.24l-1.886.666c.222.628.52 1.209.898 1.736l1.627-1.162zm-.639-1.24a3.89 3.89 0 0 1-.231-1.299h-2c0 .664.118 1.32.345 1.965l1.886-.666zm-.231-1.299a4.16 4.16 0 0 1 .231-1.395l-1.886-.666a6.17 6.17 0 0 0-.345 2.061h2zm.237-1.412c.15-.451.369-.822.65-1.126l-1.47-1.357a5.04 5.04 0 0 0-1.077 1.85l1.897.632zm.648-1.124a4.16 4.16 0 0 1 1.202-.89l-.894-1.789c-.677.339-1.272.778-1.774 1.318l1.466 1.361zm1.183-.881c.447-.211 1.014-.336 1.732-.336v-2c-.946 0-1.818.164-2.588.528l.856 1.807zm1.732-.336c1.711 0 2.808.413 3.482 1.063l1.389-1.439c-1.183-1.142-2.869-1.625-4.871-1.625v2zm3.495 1.076c.754.702 1.073 1.44 1.073 2.244h2c0-1.436-.609-2.682-1.71-3.708l-1.363 1.464zm13.112 4.068l-.903-.428-.01.02-.008.02.921.388zm-1.152 1.632l.659.753.013-.011.012-.012-.684-.73zm-1.919 1.056l-.317-.949-.017.006-.018.006.352.936zm-4.465.048l.426-.905-.426.905zm-1.344-1.008l-.813.581.024.033.026.031.763-.646zm-.768-1.488l-.942.333.942-.333zm0-3.36l.943.333.003-.008.003-.008-.949-.316zm.864-1.488l-.732-.681-.002.002.734.678zm1.488-1.104l-.428-.904-.009.004-.01.005.447.894zm6.337.912l-.695.719.006.006.007.006.682-.732zm.391 2.976c0 .445-.104.907-.335 1.396l1.807.856a5.22 5.22 0 0 0 .528-2.252h-2zm-.353 1.436c-.198.471-.498.9-.914 1.291l1.367 1.459a5.75 5.75 0 0 0 1.39-1.973l-1.843-.776zm-.889 1.267c-.395.346-.912.638-1.578.86l.633 1.897c.87-.29 1.633-.702 2.262-1.252l-1.317-1.505zm-1.613.872c-.635.238-1.392.368-2.288.368v2c1.087 0 2.09-.158 2.991-.496l-.703-1.873zm-2.288.368c-.543 0-1.003-.103-1.399-.289l-.851 1.81c.692.326 1.448.479 2.25.479v-2zm-1.399-.289c-.427-.201-.756-.454-1.006-.749l-1.527 1.292c.454.536 1.021.956 1.682 1.267l.851-1.81zm-.956-.684c-.263-.368-.476-.78-.639-1.24l-1.885.666a6.93 6.93 0 0 0 .897 1.736l1.627-1.162zm-.639-1.24a3.89 3.89 0 0 1-.231-1.299h-2c0 .664.118 1.32.346 1.965l1.885-.666zm-.231-1.299a4.16 4.16 0 0 1 .231-1.395l-1.885-.666c-.232.657-.346 1.346-.346 2.061h2zm.237-1.412c.151-.451.369-.822.65-1.126l-1.469-1.357c-.487.528-.845 1.15-1.078 1.85l1.897.632zm.648-1.124a4.15 4.15 0 0 1 1.203-.89l-.895-1.789a6.16 6.16 0 0 0-1.773 1.318l1.465 1.361zm1.184-.881c.446-.211 1.013-.336 1.731-.336v-2c-.945 0-1.818.164-2.588.528l.857 1.807zm1.731-.336c1.711 0 2.809.413 3.482 1.063l1.389-1.439c-1.183-1.142-2.869-1.625-4.871-1.625v2zm3.495 1.076c.754.702 1.073 1.44 1.073 2.244h2c0-1.436-.608-2.682-1.71-3.708l-1.363 1.464zm13.113 4.068l-.904-.428-.009.02-.009.02.922.388zm-1.152 1.632l.658.753.013-.011.013-.012-.684-.73zm-1.92 1.056l-.316-.949-.018.006-.017.006.351.936zm-4.464.048l.426-.905-.426.905zm-1.344-1.008l-.814.581.024.033.026.031.764-.646zm-.768-1.488l-.943.333.943-.333zm0-3.36l.943.333.003-.008.002-.008-.948-.316zm.864-1.488l-.733-.681-.002.002.735.678zm1.488-1.104l-.428-.904-.01.004-.009.005.447.894zm6.336.912l-.695.719.007.006.006.006.682-.732zm.392 2.976c0 .445-.105.907-.336 1.396l1.807.856c.345-.727.529-1.481.529-2.252h-2zm-.354 1.436c-.198.471-.498.9-.914 1.291l1.368 1.459c.607-.57 1.076-1.228 1.389-1.973l-1.843-.776zm-.889 1.267c-.395.346-.912.638-1.577.86l.632 1.897c.87-.29 1.633-.702 2.262-1.252l-1.317-1.505zm-1.612.872c-.635.238-1.393.368-2.289.368v2c1.087 0 2.09-.158 2.991-.496l-.702-1.873zm-2.289.368c-.542 0-1.003-.103-1.398-.289l-.852 1.81c.692.326 1.448.479 2.25.479v-2zm-1.398-.289c-.428-.201-.757-.454-1.007-.749l-1.527 1.292c.454.536 1.022.956 1.682 1.267l.852-1.81zm-.957-.684c-.262-.368-.476-.78-.638-1.24l-1.886.666a6.93 6.93 0 0 0 .897 1.736l1.627-1.162zm-.638-1.24c-.157-.444-.231-.875-.231-1.299h-2a5.86 5.86 0 0 0 .345 1.965l1.886-.666zm-.231-1.299c0-.501.078-.964.231-1.395l-1.886-.666c-.232.657-.345 1.346-.345 2.061h2zm.236-1.412a3.06 3.06 0 0 1 .651-1.126l-1.47-1.357c-.487.528-.844 1.15-1.078 1.85l1.897.632zm.649-1.124c.33-.355.727-.653 1.202-.89l-.894-1.789a6.15 6.15 0 0 0-1.774 1.318l1.466 1.361zm1.183-.881c.446-.211 1.014-.336 1.732-.336v-2c-.946 0-1.819.164-2.588.528l.856 1.807zm1.732-.336c1.71 0 2.808.413 3.481 1.063l1.389-1.439c-1.182-1.142-2.869-1.625-4.87-1.625v2zm3.494 1.076c.755.702 1.074 1.44 1.074 2.244h2c0-1.436-.609-2.682-1.711-3.708l-1.363 1.464z" fill="#444"/></g><defs><filter id="A" x="35.91" y="47.098" width="124.042" height="39.008" filterUnits="userSpaceOnUse" color-interpolation-filters="sRGB"><feFlood flood-opacity="0" result="A"/><feColorMatrix in="SourceAlpha" values="0 0 0 0 0 0 0 0 0 0 0 0 0 0 0 0 0 0 127 0" result="B"/><feOffset dx="-2" dy="2"/><feComposite in2="B" operator="out"/><feColorMatrix values="0 0 0 0 0.266667 0 0 0 0 0.266667 0 0 0 0 0.266667 0 0 0 1 0"/><feBlend in2="A"/><feBlend in="SourceGraphic"/></filter></defs></svg>