<svg xmlns="http://www.w3.org/2000/svg" width="100%" height="100%" viewBox="0 0 426 426" fill="#444"><path d="M420.853 21.536c-.516-1.787-1.468-3.027-2.566-4.033-1.799-3.626-6.063-6.352-10.451-5.596.178-5.07-4.212-10.19-10.439-8.73-64 14.977-129.704 30.422-192.429 50.15C159.419 67.654 114.029 83.46 68.92 99.142c-19.419 6.75-46.773 12.613-63.327 25.837-3.326 2.656-3.521 6.639-2.068 10.057-3.202 1.552-5.01 6.013-1.951 9.703 21.087 25.432 52.353 72.989 89.513 80.078-4.302 56.159-8.587 117.294 13.39 170.038 2.591 6.218 9.303 8.573 14.687 3.878 2.039-1.778 3.842-3.739 5.776-5.598 14.768 1.345 32.725-12.57 44.17-19.704 15.959-9.954 31.257-20.966 46.29-32.247 6.824-5.122 16.83-10.819 23.275-17.769 16.935 11.062 34.793 20.273 54.488 24.669 33.125 7.392 37.614-5.247 51.758-32.629 25.683-49.719 42.652-105.896 60.612-158.842 14.483-42.707 28.236-90.403 15.32-135.077zM112.035 305.048c-.806 10.874-3.061 26.022-2.926 40.551-6.604-39.24-4.219-80.222-5.97-119.981 5.636-.265 11.247-1.374 16.82-3.047l-7.924 82.477zM15.213 141.063l209.468-72.082c44.148-13.911 96.907-17.697 142.317-33.428-13.973 10.96-27.354 23.4-42.54 32.928-32.923 20.656-67.303 38.901-101.214 57.85-29.721 16.608-54.004 41.33-81.638 61.122-54.722 39.19-88.86-10.387-126.393-46.389zm302.612-29.786c-.276-2.178-.544-4.359-.68-6.555-.171-2.787-.117-5.614-.077-8.432 9.907-5.405 19.666-10.922 28.917-16.841l5.066-3.137-19.223 20.162c-4.747 4.868-9.333 9.868-14.003 14.802zm-9.063 9.579l-6.916 7.311c-1.203-7.107-3.045-14.171-4.554-21.278l9.611-5.149c-.438 6.685-.027 13.349 1.859 19.116zm-38.844 42.706l-11.733 13.202c-1.021-2.068-4.199-2.915-6.008-1.186-3.016-13.39-5.271-26.748-6.369-40.69 4.72-2.836 9.636-5.472 14.486-8.176-.609 13.221-.112 35.995 9.624 36.85zm-.851-21.646c-.826-6.438-.905-12.927-1.354-19.385l21.509-11.4c.243 8.923 1.644 17.997 4.958 25.513l-18.44 20.377c-.563-.527-1.264-.911-2.117-.958-3.103-.18-4.287-12.034-4.556-14.147zm-23.281 49.387l-22.151 27.04c-.048-.004-.09-.018-.14-.022-.462-2.495-1.071-4.909-1.394-7.444-.856-6.748-1.069-13.583-1.303-20.373l-.689-34.271c-.054-1.574-1.04-2.353-2.162-2.726 6.635-5.054 13.672-9.72 20.851-14.245.023 17.512 2.369 35.175 6.988 52.041zm-33.801 19.574c.128 3.673 2.039 11.616 5.142 15.768l-13.25 16.903c.036-10.286-1.599-20.959-2.452-30.612-1.208-13.639-2.428-27.667-5.731-41.072l16.877-14.358c.359-.291.759-.545 1.121-.835-.811 18.069-2.338 36.105-1.707 54.206zm-29.889 70.741l2.27 1.714c-2.358 2.144-4.469 4.508-6.472 6.963-4.481-32.203-2.382-64.039-5.094-96.252-.075-.874-.477-1.473-.941-1.972 6.022-4.839 11.813-9.801 17.442-14.672 2.143 13.349 2.742 27.036 3.043 40.432.29 12.898-1.857 26.946 1.208 39.588l-8.548 11.467c-.122.173-.119.353-.223.526-5.232.487-8.09 8.241-2.685 12.206zm-54.866 82.89c-.77-48.433 4.659-97.402 2.791-145.637 12.501-5.378 24.667-13.496 36.269-22.428l-.38 4.098c-.215 1.547-.321 1.626-.402 4.34-2.573 29.117-3.947 59.93 2.21 88.225.68 3.124 3.097 4.094 5.412 3.667-4.482 6.55-8.455 13.551-12.681 20.333-1.742 2.793-3.612 5.501-5.386 8.281 1.587-15.822-.476-33.348-.299-48.091.26-21.501-2.32-43.273-2.475-64.351-.013-1.996-2.959-1.965-3.074 0-1.237 21.114-4.922 42.796-5.752 64.351-.744 19.315-5.969 44.067-.387 62.916.227.763.737 1.196 1.193 1.699-5.378 7.77-10.994 15.36-17.039 22.597zm84.425-42.822c-12.42 9.863-25.12 19.392-37.971 28.684-8.528 6.166-17.332 11.888-26.276 17.398 6.006-7.879 11.735-15.999 17.303-24.334 10.511-15.736 24.51-33.098 31.531-51.143l26.454 20.043c-3.853 3.063-7.486 6.528-11.041 9.352zm143.126-82.595c-14.708 37.913-18.986 98.884-67.854 88.312-31.301-6.772-60.744-32.539-88.298-50.821 66.951-81.446 140.409-156.99 207.602-237.702 10.1 65.207-28.85 141.952-51.45 200.211zM41.768 329.725c-3.072-8.198-5.061-16.724-6.038-25.421-.667-5.928-9.04-6.155-9.39 0-.489 8.648.912 16.799 3.009 25.181 2.064 8.241 4.388 18.011 9.444 24.909 2.858 3.896 11.245 3.348 10.45-2.831-.995-7.763-4.736-14.522-7.475-21.838zm-11.759 28.206c-4.731-8.331-10.713-14.971-14.131-24.144-4.132-11.097-4.172-22.998-2.328-34.526.957-5.969-7.091-8.371-9.132-2.517-7.659 21.943-3.669 55.755 17.236 69.54 5.277 3.48 11.263-3.234 8.355-8.353zm195.503 17.332c-.963-3.581-5.138-5.142-8.299-3.377-3.71 2.071-4.502 5.005-6.42 8.594-1.83 3.429-4.248 6.406-6.912 9.213-5.878 6.197-13.6 10.244-21.219 13.881-5.564 2.652-1.612 11.971 4.194 9.948 9.038-3.153 17.158-7.561 24.566-13.637 6.339-5.205 16.448-15.831 14.09-24.622zm17.013 3.892c-5.779 5.108-10.513 11.901-16.214 17.288-6.287 5.941-13.711 11.081-19.551 17.431-4.269 4.642 1.069 11.326 6.595 8.547 8.061-4.056 15.424-10.855 22.371-16.563 5.957-4.893 14.605-10.935 18.069-18.004 3.618-7.372-5.05-14.201-11.27-8.699z"/></svg>