<svg xmlns="http://www.w3.org/2000/svg" width="100%" height="100%" viewBox="0 0 512 512" fill="none"><path fill-rule="evenodd" d="M74.953 75.008c99.959-99.99 262.05-100.014 362.039-.055 48.013 47.998 74.994 113.102 75.008 180.992a256 256 0 0 1-74.953 181.047c-99.959 99.99-262.049 100.014-362.039.055s-100.014-262.049-.055-362.039zm367.55 194.776c4.352 1.585 8.31 7.294 9.139 11.866 2.54 14.012 7.032 42.283 4.714 55.794-2.24 13.056-17.455 18.424-26.079 20.443-3.262.755-5.95-1.618-5.95-4.96v-.502c0-3.343-2.607-5.302-5.822-4.385l-6.732 1.925c-3.216.91-5.823 4.011-5.823 6.906 0 2.901-2.039 7.06-4.927 8.737-7.053 4.092-15.516 5.991-21.078 6.853-3.302.514-6.01-2.019-6.01-5.362v-1.022c0-3.343-2.701-5.95-6.044-5.823l-2.085.073c-3.336.121-6.044 2.929-6.044 6.277v4.319c0 3.343-2.493 7.12-5.709 8.029-12.655 3.59-24.04 1.745-30.565-.041-3.222-.868-5.715-4.646-5.715-7.988v-5.382c0-3.343-2.708-6.044-6.05-6.044h-2.08c-3.342 0-6.049 2.702-6.049 6.044v3.122c0 3.343-2.273 7.695-5.595 8.09-8.09.969-21.7-1.578-29.462-3.283-3.269-.722-5.89-3.924-5.89-7.072s-2.132-7.381-5.04-9.019c-9.961-5.641-24.18-9.472-32.108-11.317-3.249-.755-5.91 1.438-5.91 4.78v1.016c0 3.342-2.614 6.765-5.896 7.386-13.15 2.487-24.321 1.29-30.752.074-3.289-.622-5.882-4.119-5.882-7.461v-3.643a5.76 5.76 0 0 0-6.044-5.81l-5.93.234c-3.343.127-6.044 2.935-6.044 6.284v1.196c0 3.35-2.647 6.666-5.963 7.087-17.662 2.266-37.918-1.518-47.678-3.757-3.25-.749-5.81-4.178-5.736-7.521l.554-26.139s-4.204-12.601-7.005-46.2c-1.089-13.117 2.113-22.396 7.194-31.34 23.091 7.026 83.811 30.196 83.811 79.64h12.602c0-56.069-61.717-81.94-89.407-90.711l.68-1.009c7.01-10.394 15.037-22.294 20.819-40.572 9.172-28.927 1.397-49.55-4.332-59.591-2.299-4.031-1.524-8.824 2.474-11.178l12.837-7.57c3.991-2.353 9.64-1.357 12.04 2.607 12.206 20.135 10.943 42.47 10.943 42.47l36.234.521c36.219.529 50.92-4.198 50.92-4.198v-9.974c0-4.639 1.798-11.785 5.094-15.048 5.749-5.708 13.116-8.664 18.685-10.181 4.473-1.223 8.778 2.173 9.493 6.759 1.076 6.952 2.815 17.635 5.021 29.448.676 3.63-1.578 7.574-4.913 9.165-5.923 2.828-13.324 7.226-22.429 13.998-2.794 2.08-3.376 6.024-1.297 8.812 1.244 1.664 3.136 2.54 5.061 2.54a6.3 6.3 0 0 0 3.75-1.243c7.187-5.348 12.996-8.939 17.595-11.359 3.269-1.718 6.679.094 7.495 3.697l.775 3.376c.842 3.596-1.096 7.842-4.278 9.713-4.312 2.535-9.199 5.756-14.728 9.861-2.788 2.079-3.363 6.03-1.291 8.818 1.238 1.664 3.143 2.54 5.062 2.54 1.317 0 2.634-.408 3.757-1.243 3.998-2.974 7.567-5.401 10.743-7.387 3.134-1.958 6.624-.514 7.861 2.968 1.044 2.909 2.092 5.509 3.156 7.735.174.362.36.715.548 1.077.314.588-2.019 2.52-5.141 4.499-3.269 2.072-6.819 4.505-10.69 7.387-2.795 2.079-3.376 6.023-1.29 8.811 1.236 1.665 3.135 2.547 5.06 2.547a6.31 6.31 0 0 0 3.75-1.243c4.185-3.108 7.895-5.622 11.171-7.661 3.134-1.945 7.927-1.257 10.796 1.069l1.771 1.404c2.922 2.253 2.795 5.322-.347 7.267-3.718 2.293-7.822 5.074-12.361 8.444a6.3 6.3 0 0 0-1.291 8.811 6.29 6.29 0 0 0 5.061 2.54c1.303 0 2.62-.407 3.757-1.243 7.16-5.328 12.956-8.918 17.548-11.338 3.269-1.718 8.697-1.431 12.027.154 20.497 9.801 44.182 16.292 60.949 16.292 18.049 0 29.761 2.835 36.546 5.315z" fill="#444"/></svg>