<svg xmlns="http://www.w3.org/2000/svg" width="100%" height="100%" viewBox="0 0 731 731" fill="none"><path fill="#444" d="M296.325 161.572l271.942 133.172-134.29 274.225-271.942-133.172z"/><g fill="#3178c6"><path d="M531.593 267.337L315.079 160.095c-14.512-7.188-32.103-1.251-39.291 13.261L168.546 389.87c-7.188 14.512-1.251 32.103 13.261 39.291l216.514 107.241c14.512 7.188 32.103 1.251 39.291-13.261l107.242-216.514c7.188-14.511 1.25-32.102-13.261-39.29z"/><path d="M531.594 267.333L315.081 160.092c-14.512-7.188-26.981-21.472-34.169-6.961L168.548 389.867c-7.188 14.511-25.509 20.499-10.997 27.687l264.423 131.438c14.512 7.187 8.452-11.342 15.64-25.854L557.449 286.59c7.187-14.511-11.343-12.069-25.855-19.257z"/></g><path fill-rule="evenodd" d="M349.31 443.69l-13.031 26.308c3.191 4.31 7.435 8.46 12.732 12.448s11.179 7.585 17.649 10.79c6.306 3.123 12.594 5.487 18.867 7.092s12.232 2.083 17.88 1.434a33.89 33.89 0 0 0 15.532-5.821c4.708-3.231 8.69-8.135 11.948-14.712 2.362-4.769 3.719-9.3 4.071-13.596s-.122-8.507-1.424-12.633-3.282-8.23-5.938-12.31-5.854-8.274-9.592-12.583c-2.748-3.136-5.161-6.054-7.238-8.755s-3.728-5.225-4.955-7.573-1.974-4.561-2.242-6.639.087-4.104 1.064-6.077c.896-1.809 2.17-3.208 3.821-4.199s3.585-1.586 5.801-1.786 4.699.024 7.452.671 5.636 1.717 8.652 3.211c2.193 1.086 4.428 2.398 6.705 3.935a61.39 61.39 0 0 1 6.608 5.167 57.19 57.19 0 0 1 5.914 6.155c1.814 2.195 3.369 4.467 4.664 6.815l12.176-24.582c-3.243-3.517-7.052-6.82-11.428-9.909s-9.636-6.155-15.776-9.196c-6.252-3.096-12.506-5.358-18.763-6.785s-12.217-1.769-17.879-1.024-10.817 2.713-15.47 5.904-8.499 7.853-11.54 13.992c-3.882 7.837-4.932 15.644-3.15 23.421s6.327 15.863 13.639 24.263a309.96 309.96 0 0 1 7.958 9.367c2.419 2.974 4.387 5.791 5.902 8.452s2.483 5.223 2.904 7.684.06 4.841-1.081 7.144c-.841 1.699-2.033 3.07-3.575 4.116s-3.414 1.687-5.615 1.928-4.699.044-7.493-.589-5.862-1.778-9.207-3.434c-5.702-2.825-10.854-6.622-15.456-11.393s-8.298-10.337-11.086-16.701zm-12.122-86.725l33.749 16.716 10.694-21.589-94.068-46.593-10.694 21.589 33.584 16.635-47.613 96.126 26.736 13.243 47.612-96.127z" fill="#fff"/><path transform="rotate(26.35 288.71 148.413)" stroke="#444" stroke-width="11" d="M288.71 148.413h300.547v295.911H288.71z"/></svg>