<svg xmlns="http://www.w3.org/2000/svg" width="100%" height="100%" viewBox="0 0 442 442" fill="none"><g clip-path="url(#A)"><path d="M220.766.009C98.853.009 0 98.843 0 220.765s98.843 220.756 220.766 220.756c121.932 0 220.766-98.833 220.766-220.756S342.698.009 220.766.009zm0 66.009c40.34 0 73.029 32.699 73.029 73.019 0 40.331-32.689 73.02-73.029 73.02-40.321 0-73.01-32.689-73.01-73.02 0-40.321 32.689-73.019 73.01-73.019zm-.048 317.786c-40.234 0-77.083-14.653-105.506-38.905-6.924-5.906-10.919-14.565-10.919-23.652 0-40.893 33.097-73.621 73.999-73.621h84.967c40.912 0 73.883 32.728 73.883 73.621a31.04 31.04 0 0 1-10.909 23.642c-28.413 24.262-65.272 38.915-105.515 38.915z" fill="#444"/></g><defs><clipPath id="A"><path fill="#fff" d="M0 0h441.532v441.532H0z"/></clipPath></defs></svg>